; NON-PLATED HOLES START AT T1
; THROUGH (PLATED) HOLES START AT T100
M48
INCH
T1C0.125984
T100C0.031496
T101C0.038000
T102C0.039417
T103C0.021000
T104C0.039370
T105C0.035000
%
T1
X038411Y024547
X038411Y001047
X000911Y024547
X000911Y001047
T100
X001911Y018547
X001911Y002547
X008911Y018547
X008911Y002547
T101
X037411Y017047
X027411Y016047
X037411Y012047
X037411Y018047
X027411Y012047
X037411Y015047
X037411Y014047
X024911Y006047
X037411Y013047
X037411Y011047
X037411Y010047
X027411Y005047
X037411Y006047
X027411Y018047
X025911Y006047
X027411Y007047
X037411Y016047
X027411Y015047
X037411Y005047
X027411Y006047
X027411Y014047
X027411Y009047
X027411Y010047
X027411Y017047
X027411Y004047
X037411Y004047
X025911Y005047
X027411Y013047
X024911Y005047
X037411Y009047
X027411Y008047
X037411Y008047
X027411Y011047
X037411Y007047
T102
X023411Y008046
X023411Y005047
X023411Y007046
X023411Y006047
T103
X012394Y015044
X020904Y015051
X020904Y016056
X020911Y014047
X012394Y014040
X012394Y016056
X012394Y017060
X020911Y019068
X012394Y013036
X020911Y017067
X012396Y018063
X020911Y018064
T104
X002411Y022047
X004380Y022047
T105
X024411Y021047
X025386Y014047
X024386Y014047
X024411Y019047
X023386Y014047
T00
M30
