G04 MADE WITH FRITZING*
G04 WWW.FRITZING.ORG*
G04 SINGLE SIDED*
G04 HOLES NOT PLATED*
G04 CONTOUR ON CENTER OF CONTOUR VECTOR*
%ASAXBY*%
%FSLAX23Y23*%
%MOIN*%
%OFA0B0*%
%SFA1.0B1.0*%
%ADD10C,0.075000*%
%ADD11C,0.052000*%
%ADD12C,0.067195*%
%ADD13C,0.094488*%
%ADD14C,0.079370*%
%ADD15C,0.078000*%
%ADD16C,0.045000*%
%ADD17R,0.075000X0.075000*%
%ADD18R,0.079370X0.079370*%
%ADD19C,0.024000*%
%ADD20R,0.001000X0.001000*%
%LNCOPPER0*%
G90*
G70*
G54D10*
X2441Y2105D03*
X2441Y1905D03*
G54D11*
X2741Y1805D03*
X2741Y1705D03*
X2741Y1605D03*
X2741Y1505D03*
X2741Y1405D03*
X2741Y1305D03*
X2741Y1205D03*
X2741Y1105D03*
X2741Y1005D03*
X2741Y905D03*
X2741Y805D03*
X2741Y705D03*
X2741Y605D03*
X2741Y505D03*
X2741Y405D03*
X3741Y405D03*
X3741Y505D03*
X3741Y605D03*
X3741Y705D03*
X3741Y805D03*
X3741Y905D03*
X3741Y1005D03*
X3741Y1105D03*
X3741Y1205D03*
X3741Y1305D03*
X3741Y1405D03*
X3741Y1505D03*
X3741Y1605D03*
X3741Y1705D03*
X3741Y1805D03*
G54D12*
X2341Y805D03*
X2341Y705D03*
X2341Y605D03*
X2341Y505D03*
G54D13*
X191Y1855D03*
X891Y1855D03*
X891Y255D03*
X191Y255D03*
X191Y1855D03*
X891Y1855D03*
X891Y255D03*
X191Y255D03*
G54D14*
X438Y2205D03*
X241Y2205D03*
G54D15*
X2491Y505D03*
X2591Y505D03*
X2491Y505D03*
X2591Y505D03*
X2491Y605D03*
X2591Y605D03*
X2491Y605D03*
X2591Y605D03*
G54D10*
X2539Y1405D03*
X2439Y1405D03*
X2339Y1405D03*
G54D16*
X1240Y1806D03*
X1239Y1706D03*
X1239Y1606D03*
X1239Y1504D03*
X1239Y1404D03*
X1239Y1304D03*
X2091Y1907D03*
X2091Y1806D03*
X2091Y1707D03*
X2090Y1606D03*
X2090Y1505D03*
X2091Y1405D03*
G54D17*
X2441Y2105D03*
G54D18*
X438Y2205D03*
G54D17*
X2539Y1405D03*
G54D19*
X870Y1871D02*
X462Y2186D01*
D02*
X195Y1881D02*
X237Y2174D01*
D02*
X2466Y621D02*
X2367Y688D01*
D02*
X2466Y521D02*
X2367Y588D01*
D02*
X2711Y605D02*
X2621Y605D01*
D02*
X2841Y253D02*
X2693Y253D01*
D02*
X2941Y353D02*
X2841Y253D01*
D02*
X2941Y605D02*
X2941Y353D01*
D02*
X2768Y691D02*
X2941Y605D01*
D02*
X2693Y253D02*
X2589Y353D01*
D02*
X2589Y353D02*
X2591Y475D01*
D02*
X2720Y1684D02*
X2455Y1421D01*
D02*
X2720Y1784D02*
X2354Y1420D01*
D02*
X2711Y1405D02*
X2557Y1405D01*
D02*
X2112Y1812D02*
X2414Y1897D01*
D02*
X1941Y1405D02*
X1841Y1605D01*
D02*
X1841Y1605D02*
X1841Y2005D01*
D02*
X1841Y2005D02*
X1941Y2105D01*
D02*
X1941Y2105D02*
X2413Y2105D01*
D02*
X2070Y1405D02*
X1941Y1405D01*
D02*
X2241Y1305D02*
X2711Y1305D01*
D02*
X2103Y1488D02*
X2241Y1305D01*
D02*
X2112Y1605D02*
X2241Y1605D01*
D02*
X2241Y1605D02*
X2693Y1953D01*
D02*
X2841Y1953D02*
X2941Y1853D01*
D02*
X2941Y1853D02*
X2941Y1305D01*
D02*
X2693Y1953D02*
X2841Y1953D01*
D02*
X2941Y1305D02*
X2768Y1218D01*
D02*
X393Y2305D02*
X3289Y2305D01*
D02*
X267Y2222D02*
X393Y2305D01*
D02*
X3289Y2305D02*
X3721Y1827D01*
D02*
X3241Y2205D02*
X3720Y1726D01*
D02*
X469Y2205D02*
X3241Y2205D01*
D02*
X541Y1805D02*
X541Y1005D01*
D02*
X693Y805D02*
X2310Y805D01*
D02*
X541Y1005D02*
X693Y805D01*
D02*
X260Y2180D02*
X541Y1805D01*
D02*
X93Y705D02*
X241Y505D01*
D02*
X241Y505D02*
X2310Y505D01*
D02*
X3843Y2254D02*
X3742Y2354D01*
D02*
X293Y2353D02*
X90Y2203D01*
D02*
X3763Y1726D02*
X3843Y1805D01*
D02*
X90Y2203D02*
X93Y705D01*
D02*
X3843Y1805D02*
X3843Y2254D01*
D02*
X3742Y2354D02*
X293Y2353D01*
D02*
X3141Y353D02*
X2941Y157D01*
D02*
X293Y153D02*
X210Y236D01*
D02*
X1941Y1505D02*
X1893Y1605D01*
D02*
X3141Y1853D02*
X3141Y353D01*
D02*
X2941Y157D02*
X293Y153D01*
D02*
X2073Y1417D02*
X1941Y1505D01*
D02*
X1893Y1605D02*
X1893Y1953D01*
D02*
X2941Y2053D02*
X3141Y1853D01*
D02*
X1893Y1953D02*
X1993Y2053D01*
D02*
X1993Y2053D02*
X2941Y2053D01*
D02*
X3041Y353D02*
X3041Y1853D01*
D02*
X2893Y205D02*
X3041Y353D01*
D02*
X3041Y1853D02*
X2893Y2005D01*
D02*
X2893Y2005D02*
X2393Y2005D01*
D02*
X2393Y2005D02*
X2109Y1818D01*
D02*
X915Y243D02*
X990Y205D01*
D02*
X990Y205D02*
X2893Y205D01*
G54D20*
X144Y1902D02*
X237Y1902D01*
X144Y1901D02*
X237Y1901D01*
X144Y1900D02*
X237Y1900D01*
X144Y1899D02*
X237Y1899D01*
X144Y1898D02*
X237Y1898D01*
X144Y1897D02*
X237Y1897D01*
X144Y1896D02*
X237Y1896D01*
X144Y1895D02*
X237Y1895D01*
X144Y1894D02*
X237Y1894D01*
X144Y1893D02*
X237Y1893D01*
X144Y1892D02*
X237Y1892D01*
X144Y1891D02*
X237Y1891D01*
X144Y1890D02*
X237Y1890D01*
X144Y1889D02*
X237Y1889D01*
X144Y1888D02*
X237Y1888D01*
X144Y1887D02*
X237Y1887D01*
X144Y1886D02*
X237Y1886D01*
X144Y1885D02*
X237Y1885D01*
X144Y1884D02*
X237Y1884D01*
X144Y1883D02*
X237Y1883D01*
X144Y1882D02*
X237Y1882D01*
X144Y1881D02*
X237Y1881D01*
X144Y1880D02*
X237Y1880D01*
X144Y1879D02*
X237Y1879D01*
X144Y1878D02*
X237Y1878D01*
X144Y1877D02*
X237Y1877D01*
X144Y1876D02*
X237Y1876D01*
X144Y1875D02*
X237Y1875D01*
X144Y1874D02*
X185Y1874D01*
X197Y1874D02*
X237Y1874D01*
X144Y1873D02*
X182Y1873D01*
X199Y1873D02*
X237Y1873D01*
X144Y1872D02*
X180Y1872D01*
X201Y1872D02*
X237Y1872D01*
X144Y1871D02*
X178Y1871D01*
X203Y1871D02*
X237Y1871D01*
X144Y1870D02*
X177Y1870D01*
X204Y1870D02*
X237Y1870D01*
X144Y1869D02*
X176Y1869D01*
X205Y1869D02*
X237Y1869D01*
X144Y1868D02*
X175Y1868D01*
X206Y1868D02*
X237Y1868D01*
X144Y1867D02*
X174Y1867D01*
X207Y1867D02*
X237Y1867D01*
X144Y1866D02*
X174Y1866D01*
X208Y1866D02*
X237Y1866D01*
X144Y1865D02*
X173Y1865D01*
X208Y1865D02*
X237Y1865D01*
X144Y1864D02*
X173Y1864D01*
X209Y1864D02*
X237Y1864D01*
X144Y1863D02*
X172Y1863D01*
X209Y1863D02*
X237Y1863D01*
X144Y1862D02*
X172Y1862D01*
X210Y1862D02*
X237Y1862D01*
X144Y1861D02*
X171Y1861D01*
X210Y1861D02*
X237Y1861D01*
X144Y1860D02*
X171Y1860D01*
X210Y1860D02*
X237Y1860D01*
X144Y1859D02*
X171Y1859D01*
X210Y1859D02*
X237Y1859D01*
X144Y1858D02*
X171Y1858D01*
X211Y1858D02*
X237Y1858D01*
X144Y1857D02*
X171Y1857D01*
X211Y1857D02*
X237Y1857D01*
X144Y1856D02*
X171Y1856D01*
X211Y1856D02*
X237Y1856D01*
X144Y1855D02*
X171Y1855D01*
X211Y1855D02*
X237Y1855D01*
X144Y1854D02*
X171Y1854D01*
X211Y1854D02*
X237Y1854D01*
X144Y1853D02*
X171Y1853D01*
X211Y1853D02*
X237Y1853D01*
X144Y1852D02*
X171Y1852D01*
X211Y1852D02*
X237Y1852D01*
X144Y1851D02*
X171Y1851D01*
X210Y1851D02*
X237Y1851D01*
X144Y1850D02*
X171Y1850D01*
X210Y1850D02*
X237Y1850D01*
X144Y1849D02*
X172Y1849D01*
X210Y1849D02*
X237Y1849D01*
X144Y1848D02*
X172Y1848D01*
X209Y1848D02*
X237Y1848D01*
X144Y1847D02*
X172Y1847D01*
X209Y1847D02*
X237Y1847D01*
X144Y1846D02*
X173Y1846D01*
X208Y1846D02*
X237Y1846D01*
X144Y1845D02*
X173Y1845D01*
X208Y1845D02*
X237Y1845D01*
X144Y1844D02*
X174Y1844D01*
X207Y1844D02*
X237Y1844D01*
X144Y1843D02*
X175Y1843D01*
X206Y1843D02*
X237Y1843D01*
X144Y1842D02*
X176Y1842D01*
X206Y1842D02*
X237Y1842D01*
X144Y1841D02*
X177Y1841D01*
X205Y1841D02*
X237Y1841D01*
X144Y1840D02*
X178Y1840D01*
X203Y1840D02*
X237Y1840D01*
X144Y1839D02*
X179Y1839D01*
X202Y1839D02*
X237Y1839D01*
X144Y1838D02*
X181Y1838D01*
X200Y1838D02*
X237Y1838D01*
X144Y1837D02*
X183Y1837D01*
X198Y1837D02*
X237Y1837D01*
X144Y1836D02*
X186Y1836D01*
X195Y1836D02*
X237Y1836D01*
X144Y1835D02*
X237Y1835D01*
X144Y1834D02*
X237Y1834D01*
X144Y1833D02*
X237Y1833D01*
X144Y1832D02*
X237Y1832D01*
X144Y1831D02*
X237Y1831D01*
X2713Y1831D02*
X2771Y1831D01*
X3710Y1831D02*
X3768Y1831D01*
X144Y1830D02*
X237Y1830D01*
X2708Y1830D02*
X2775Y1830D01*
X3706Y1830D02*
X3773Y1830D01*
X144Y1829D02*
X237Y1829D01*
X2706Y1829D02*
X2778Y1829D01*
X3703Y1829D02*
X3775Y1829D01*
X144Y1828D02*
X237Y1828D01*
X2704Y1828D02*
X2780Y1828D01*
X3701Y1828D02*
X3777Y1828D01*
X144Y1827D02*
X237Y1827D01*
X2702Y1827D02*
X2781Y1827D01*
X3700Y1827D02*
X3779Y1827D01*
X144Y1826D02*
X237Y1826D01*
X2701Y1826D02*
X2783Y1826D01*
X3698Y1826D02*
X3780Y1826D01*
X144Y1825D02*
X237Y1825D01*
X2700Y1825D02*
X2784Y1825D01*
X3697Y1825D02*
X3781Y1825D01*
X144Y1824D02*
X237Y1824D01*
X2698Y1824D02*
X2785Y1824D01*
X3696Y1824D02*
X3783Y1824D01*
X144Y1823D02*
X237Y1823D01*
X2697Y1823D02*
X2786Y1823D01*
X3695Y1823D02*
X3784Y1823D01*
X144Y1822D02*
X237Y1822D01*
X2697Y1822D02*
X2787Y1822D01*
X3694Y1822D02*
X3784Y1822D01*
X144Y1821D02*
X237Y1821D01*
X2696Y1821D02*
X2739Y1821D01*
X2746Y1821D02*
X2788Y1821D01*
X3693Y1821D02*
X3736Y1821D01*
X3743Y1821D02*
X3785Y1821D01*
X144Y1820D02*
X237Y1820D01*
X2695Y1820D02*
X2736Y1820D01*
X2749Y1820D02*
X2789Y1820D01*
X3692Y1820D02*
X3732Y1820D01*
X3746Y1820D02*
X3786Y1820D01*
X144Y1819D02*
X237Y1819D01*
X2694Y1819D02*
X2734Y1819D01*
X2751Y1819D02*
X2789Y1819D01*
X3692Y1819D02*
X3731Y1819D01*
X3748Y1819D02*
X3787Y1819D01*
X144Y1818D02*
X237Y1818D01*
X2694Y1818D02*
X2732Y1818D01*
X2753Y1818D02*
X2790Y1818D01*
X3691Y1818D02*
X3729Y1818D01*
X3749Y1818D02*
X3787Y1818D01*
X144Y1817D02*
X237Y1817D01*
X2693Y1817D02*
X2731Y1817D01*
X2754Y1817D02*
X2790Y1817D01*
X3691Y1817D02*
X3728Y1817D01*
X3751Y1817D02*
X3788Y1817D01*
X144Y1816D02*
X237Y1816D01*
X2693Y1816D02*
X2730Y1816D01*
X2755Y1816D02*
X2791Y1816D01*
X3690Y1816D02*
X3727Y1816D01*
X3752Y1816D02*
X3788Y1816D01*
X144Y1815D02*
X237Y1815D01*
X2692Y1815D02*
X2729Y1815D01*
X2756Y1815D02*
X2791Y1815D01*
X3690Y1815D02*
X3726Y1815D01*
X3752Y1815D02*
X3789Y1815D01*
X144Y1814D02*
X237Y1814D01*
X2692Y1814D02*
X2729Y1814D01*
X2756Y1814D02*
X2792Y1814D01*
X3689Y1814D02*
X3725Y1814D01*
X3753Y1814D02*
X3789Y1814D01*
X144Y1813D02*
X237Y1813D01*
X2691Y1813D02*
X2728Y1813D01*
X2757Y1813D02*
X2792Y1813D01*
X3689Y1813D02*
X3725Y1813D01*
X3754Y1813D02*
X3790Y1813D01*
X144Y1812D02*
X237Y1812D01*
X2691Y1812D02*
X2728Y1812D01*
X2757Y1812D02*
X2792Y1812D01*
X3689Y1812D02*
X3724Y1812D01*
X3754Y1812D02*
X3790Y1812D01*
X144Y1811D02*
X237Y1811D01*
X2691Y1811D02*
X2727Y1811D01*
X2758Y1811D02*
X2793Y1811D01*
X3688Y1811D02*
X3724Y1811D01*
X3755Y1811D02*
X3790Y1811D01*
X144Y1810D02*
X237Y1810D01*
X2691Y1810D02*
X2727Y1810D01*
X2758Y1810D02*
X2793Y1810D01*
X3688Y1810D02*
X3723Y1810D01*
X3755Y1810D02*
X3790Y1810D01*
X144Y1809D02*
X237Y1809D01*
X2691Y1809D02*
X2726Y1809D01*
X2759Y1809D02*
X2793Y1809D01*
X3688Y1809D02*
X3723Y1809D01*
X3755Y1809D02*
X3790Y1809D01*
X144Y1808D02*
X237Y1808D01*
X2690Y1808D02*
X2726Y1808D01*
X2759Y1808D02*
X2793Y1808D01*
X3688Y1808D02*
X3723Y1808D01*
X3755Y1808D02*
X3791Y1808D01*
X2690Y1807D02*
X2726Y1807D01*
X2759Y1807D02*
X2793Y1807D01*
X3688Y1807D02*
X3723Y1807D01*
X3756Y1807D02*
X3791Y1807D01*
X2690Y1806D02*
X2726Y1806D01*
X2759Y1806D02*
X2793Y1806D01*
X3688Y1806D02*
X3723Y1806D01*
X3756Y1806D02*
X3791Y1806D01*
X2690Y1805D02*
X2726Y1805D01*
X2759Y1805D02*
X2793Y1805D01*
X3688Y1805D02*
X3723Y1805D01*
X3756Y1805D02*
X3791Y1805D01*
X2690Y1804D02*
X2726Y1804D01*
X2759Y1804D02*
X2793Y1804D01*
X3688Y1804D02*
X3723Y1804D01*
X3756Y1804D02*
X3791Y1804D01*
X2690Y1803D02*
X2726Y1803D01*
X2759Y1803D02*
X2793Y1803D01*
X3688Y1803D02*
X3723Y1803D01*
X3755Y1803D02*
X3791Y1803D01*
X2691Y1802D02*
X2726Y1802D01*
X2759Y1802D02*
X2793Y1802D01*
X3688Y1802D02*
X3723Y1802D01*
X3755Y1802D02*
X3790Y1802D01*
X2691Y1801D02*
X2727Y1801D01*
X2758Y1801D02*
X2793Y1801D01*
X3688Y1801D02*
X3723Y1801D01*
X3755Y1801D02*
X3790Y1801D01*
X2691Y1800D02*
X2727Y1800D01*
X2758Y1800D02*
X2793Y1800D01*
X3688Y1800D02*
X3724Y1800D01*
X3755Y1800D02*
X3790Y1800D01*
X2691Y1799D02*
X2727Y1799D01*
X2758Y1799D02*
X2792Y1799D01*
X3689Y1799D02*
X3724Y1799D01*
X3754Y1799D02*
X3790Y1799D01*
X2691Y1798D02*
X2728Y1798D01*
X2757Y1798D02*
X2792Y1798D01*
X3689Y1798D02*
X3725Y1798D01*
X3754Y1798D02*
X3790Y1798D01*
X2692Y1797D02*
X2728Y1797D01*
X2757Y1797D02*
X2792Y1797D01*
X3689Y1797D02*
X3725Y1797D01*
X3753Y1797D02*
X3789Y1797D01*
X2692Y1796D02*
X2729Y1796D01*
X2756Y1796D02*
X2792Y1796D01*
X3689Y1796D02*
X3726Y1796D01*
X3753Y1796D02*
X3789Y1796D01*
X2692Y1795D02*
X2730Y1795D01*
X2755Y1795D02*
X2791Y1795D01*
X3690Y1795D02*
X3727Y1795D01*
X3752Y1795D02*
X3789Y1795D01*
X2693Y1794D02*
X2731Y1794D01*
X2754Y1794D02*
X2791Y1794D01*
X3690Y1794D02*
X3727Y1794D01*
X3751Y1794D02*
X3788Y1794D01*
X2693Y1793D02*
X2732Y1793D01*
X2753Y1793D02*
X2790Y1793D01*
X3691Y1793D02*
X3729Y1793D01*
X3750Y1793D02*
X3788Y1793D01*
X2694Y1792D02*
X2733Y1792D01*
X2752Y1792D02*
X2789Y1792D01*
X3691Y1792D02*
X3730Y1792D01*
X3749Y1792D02*
X3787Y1792D01*
X2695Y1791D02*
X2735Y1791D01*
X2750Y1791D02*
X2789Y1791D01*
X3692Y1791D02*
X3732Y1791D01*
X3747Y1791D02*
X3786Y1791D01*
X2695Y1790D02*
X2738Y1790D01*
X2747Y1790D02*
X2788Y1790D01*
X3693Y1790D02*
X3734Y1790D01*
X3744Y1790D02*
X3786Y1790D01*
X2696Y1789D02*
X2787Y1789D01*
X3694Y1789D02*
X3785Y1789D01*
X2697Y1788D02*
X2787Y1788D01*
X3694Y1788D02*
X3784Y1788D01*
X2698Y1787D02*
X2786Y1787D01*
X3695Y1787D02*
X3783Y1787D01*
X2699Y1786D02*
X2785Y1786D01*
X3696Y1786D02*
X3782Y1786D01*
X2700Y1785D02*
X2783Y1785D01*
X3698Y1785D02*
X3781Y1785D01*
X2701Y1784D02*
X2782Y1784D01*
X3699Y1784D02*
X3780Y1784D01*
X2703Y1783D02*
X2780Y1783D01*
X3701Y1783D02*
X3778Y1783D01*
X2705Y1782D02*
X2779Y1782D01*
X3702Y1782D02*
X3776Y1782D01*
X2707Y1781D02*
X2777Y1781D01*
X3704Y1781D02*
X3774Y1781D01*
X2710Y1780D02*
X2773Y1780D01*
X3708Y1780D02*
X3771Y1780D01*
X2713Y1731D02*
X2771Y1731D01*
X3710Y1731D02*
X3768Y1731D01*
X2708Y1730D02*
X2775Y1730D01*
X3706Y1730D02*
X3773Y1730D01*
X2706Y1729D02*
X2778Y1729D01*
X3703Y1729D02*
X3775Y1729D01*
X2704Y1728D02*
X2779Y1728D01*
X3701Y1728D02*
X3777Y1728D01*
X2702Y1727D02*
X2781Y1727D01*
X3700Y1727D02*
X3779Y1727D01*
X2701Y1726D02*
X2783Y1726D01*
X3698Y1726D02*
X3780Y1726D01*
X2699Y1725D02*
X2784Y1725D01*
X3697Y1725D02*
X3781Y1725D01*
X2698Y1724D02*
X2785Y1724D01*
X3696Y1724D02*
X3783Y1724D01*
X2697Y1723D02*
X2786Y1723D01*
X3695Y1723D02*
X3784Y1723D01*
X2696Y1722D02*
X2787Y1722D01*
X3694Y1722D02*
X3784Y1722D01*
X2696Y1721D02*
X2739Y1721D01*
X2746Y1721D02*
X2788Y1721D01*
X3693Y1721D02*
X3736Y1721D01*
X3743Y1721D02*
X3785Y1721D01*
X2695Y1720D02*
X2735Y1720D01*
X2749Y1720D02*
X2789Y1720D01*
X3692Y1720D02*
X3732Y1720D01*
X3746Y1720D02*
X3786Y1720D01*
X2694Y1719D02*
X2734Y1719D01*
X2751Y1719D02*
X2789Y1719D01*
X3692Y1719D02*
X3730Y1719D01*
X3748Y1719D02*
X3787Y1719D01*
X2694Y1718D02*
X2732Y1718D01*
X2753Y1718D02*
X2790Y1718D01*
X3691Y1718D02*
X3729Y1718D01*
X3750Y1718D02*
X3787Y1718D01*
X2693Y1717D02*
X2731Y1717D01*
X2754Y1717D02*
X2790Y1717D01*
X3691Y1717D02*
X3728Y1717D01*
X3751Y1717D02*
X3788Y1717D01*
X2693Y1716D02*
X2730Y1716D01*
X2755Y1716D02*
X2791Y1716D01*
X3690Y1716D02*
X3727Y1716D01*
X3752Y1716D02*
X3788Y1716D01*
X2692Y1715D02*
X2729Y1715D01*
X2756Y1715D02*
X2791Y1715D01*
X3690Y1715D02*
X3726Y1715D01*
X3753Y1715D02*
X3789Y1715D01*
X2692Y1714D02*
X2728Y1714D01*
X2757Y1714D02*
X2792Y1714D01*
X3689Y1714D02*
X3725Y1714D01*
X3753Y1714D02*
X3789Y1714D01*
X2691Y1713D02*
X2728Y1713D01*
X2757Y1713D02*
X2792Y1713D01*
X3689Y1713D02*
X3725Y1713D01*
X3754Y1713D02*
X3790Y1713D01*
X2691Y1712D02*
X2727Y1712D01*
X2758Y1712D02*
X2792Y1712D01*
X3689Y1712D02*
X3724Y1712D01*
X3754Y1712D02*
X3790Y1712D01*
X2691Y1711D02*
X2727Y1711D01*
X2758Y1711D02*
X2792Y1711D01*
X3688Y1711D02*
X3724Y1711D01*
X3755Y1711D02*
X3790Y1711D01*
X2691Y1710D02*
X2726Y1710D01*
X2758Y1710D02*
X2793Y1710D01*
X3688Y1710D02*
X3723Y1710D01*
X3755Y1710D02*
X3790Y1710D01*
X2691Y1709D02*
X2726Y1709D01*
X2759Y1709D02*
X2793Y1709D01*
X3688Y1709D02*
X3723Y1709D01*
X3755Y1709D02*
X3790Y1709D01*
X2690Y1708D02*
X2726Y1708D01*
X2759Y1708D02*
X2793Y1708D01*
X3688Y1708D02*
X3723Y1708D01*
X3756Y1708D02*
X3791Y1708D01*
X2690Y1707D02*
X2726Y1707D01*
X2759Y1707D02*
X2793Y1707D01*
X3688Y1707D02*
X3723Y1707D01*
X3756Y1707D02*
X3791Y1707D01*
X2690Y1706D02*
X2726Y1706D01*
X2759Y1706D02*
X2793Y1706D01*
X3688Y1706D02*
X3723Y1706D01*
X3756Y1706D02*
X3791Y1706D01*
X2690Y1705D02*
X2726Y1705D01*
X2759Y1705D02*
X2793Y1705D01*
X3688Y1705D02*
X3723Y1705D01*
X3756Y1705D02*
X3791Y1705D01*
X2690Y1704D02*
X2726Y1704D01*
X2759Y1704D02*
X2793Y1704D01*
X3688Y1704D02*
X3723Y1704D01*
X3756Y1704D02*
X3791Y1704D01*
X2690Y1703D02*
X2726Y1703D01*
X2759Y1703D02*
X2793Y1703D01*
X3688Y1703D02*
X3723Y1703D01*
X3756Y1703D02*
X3791Y1703D01*
X2690Y1702D02*
X2726Y1702D01*
X2759Y1702D02*
X2793Y1702D01*
X3688Y1702D02*
X3723Y1702D01*
X3756Y1702D02*
X3790Y1702D01*
X2691Y1701D02*
X2726Y1701D01*
X2759Y1701D02*
X2793Y1701D01*
X3688Y1701D02*
X3723Y1701D01*
X3755Y1701D02*
X3790Y1701D01*
X2691Y1700D02*
X2727Y1700D01*
X2758Y1700D02*
X2793Y1700D01*
X3688Y1700D02*
X3723Y1700D01*
X3755Y1700D02*
X3790Y1700D01*
X2691Y1699D02*
X2727Y1699D01*
X2758Y1699D02*
X2792Y1699D01*
X3689Y1699D02*
X3724Y1699D01*
X3755Y1699D02*
X3790Y1699D01*
X2691Y1698D02*
X2728Y1698D01*
X2757Y1698D02*
X2792Y1698D01*
X3689Y1698D02*
X3724Y1698D01*
X3754Y1698D02*
X3790Y1698D01*
X2692Y1697D02*
X2728Y1697D01*
X2757Y1697D02*
X2792Y1697D01*
X3689Y1697D02*
X3725Y1697D01*
X3754Y1697D02*
X3789Y1697D01*
X2692Y1696D02*
X2729Y1696D01*
X2756Y1696D02*
X2791Y1696D01*
X3689Y1696D02*
X3726Y1696D01*
X3753Y1696D02*
X3789Y1696D01*
X2692Y1695D02*
X2730Y1695D01*
X2755Y1695D02*
X2791Y1695D01*
X3690Y1695D02*
X3726Y1695D01*
X3752Y1695D02*
X3789Y1695D01*
X2693Y1694D02*
X2730Y1694D01*
X2754Y1694D02*
X2790Y1694D01*
X3690Y1694D02*
X3727Y1694D01*
X3751Y1694D02*
X3788Y1694D01*
X2693Y1693D02*
X2732Y1693D01*
X2753Y1693D02*
X2790Y1693D01*
X3691Y1693D02*
X3728Y1693D01*
X3750Y1693D02*
X3787Y1693D01*
X2694Y1692D02*
X2733Y1692D01*
X2752Y1692D02*
X2789Y1692D01*
X3691Y1692D02*
X3730Y1692D01*
X3749Y1692D02*
X3787Y1692D01*
X2694Y1691D02*
X2735Y1691D01*
X2750Y1691D02*
X2789Y1691D01*
X3692Y1691D02*
X3731Y1691D01*
X3747Y1691D02*
X3786Y1691D01*
X2695Y1690D02*
X2737Y1690D01*
X2748Y1690D02*
X2788Y1690D01*
X3693Y1690D02*
X3734Y1690D01*
X3744Y1690D02*
X3786Y1690D01*
X2696Y1689D02*
X2787Y1689D01*
X3694Y1689D02*
X3785Y1689D01*
X2697Y1688D02*
X2786Y1688D01*
X3694Y1688D02*
X3784Y1688D01*
X2698Y1687D02*
X2786Y1687D01*
X3695Y1687D02*
X3783Y1687D01*
X2699Y1686D02*
X2784Y1686D01*
X3696Y1686D02*
X3782Y1686D01*
X2700Y1685D02*
X2783Y1685D01*
X3698Y1685D02*
X3781Y1685D01*
X2701Y1684D02*
X2782Y1684D01*
X3699Y1684D02*
X3780Y1684D01*
X2703Y1683D02*
X2780Y1683D01*
X3701Y1683D02*
X3778Y1683D01*
X2705Y1682D02*
X2779Y1682D01*
X3702Y1682D02*
X3776Y1682D01*
X2707Y1681D02*
X2776Y1681D01*
X3704Y1681D02*
X3774Y1681D01*
X2710Y1680D02*
X2773Y1680D01*
X3708Y1680D02*
X3771Y1680D01*
X2713Y1631D02*
X2771Y1631D01*
X3710Y1631D02*
X3768Y1631D01*
X2708Y1630D02*
X2775Y1630D01*
X3706Y1630D02*
X3773Y1630D01*
X2706Y1629D02*
X2778Y1629D01*
X3703Y1629D02*
X3775Y1629D01*
X2704Y1628D02*
X2779Y1628D01*
X3701Y1628D02*
X3777Y1628D01*
X2702Y1627D02*
X2781Y1627D01*
X3700Y1627D02*
X3779Y1627D01*
X2701Y1626D02*
X2783Y1626D01*
X3698Y1626D02*
X3780Y1626D01*
X2699Y1625D02*
X2784Y1625D01*
X3697Y1625D02*
X3781Y1625D01*
X2698Y1624D02*
X2785Y1624D01*
X3696Y1624D02*
X3783Y1624D01*
X2697Y1623D02*
X2786Y1623D01*
X3695Y1623D02*
X3784Y1623D01*
X2696Y1622D02*
X2787Y1622D01*
X3694Y1622D02*
X3784Y1622D01*
X2696Y1621D02*
X2739Y1621D01*
X2746Y1621D02*
X2788Y1621D01*
X3693Y1621D02*
X3736Y1621D01*
X3743Y1621D02*
X3785Y1621D01*
X2695Y1620D02*
X2735Y1620D01*
X2749Y1620D02*
X2789Y1620D01*
X3692Y1620D02*
X3732Y1620D01*
X3746Y1620D02*
X3786Y1620D01*
X2694Y1619D02*
X2733Y1619D01*
X2751Y1619D02*
X2789Y1619D01*
X3692Y1619D02*
X3730Y1619D01*
X3748Y1619D02*
X3787Y1619D01*
X2694Y1618D02*
X2732Y1618D01*
X2753Y1618D02*
X2790Y1618D01*
X3691Y1618D02*
X3729Y1618D01*
X3750Y1618D02*
X3787Y1618D01*
X2693Y1617D02*
X2731Y1617D01*
X2754Y1617D02*
X2790Y1617D01*
X3691Y1617D02*
X3728Y1617D01*
X3751Y1617D02*
X3788Y1617D01*
X2693Y1616D02*
X2730Y1616D01*
X2755Y1616D02*
X2791Y1616D01*
X3690Y1616D02*
X3727Y1616D01*
X3752Y1616D02*
X3788Y1616D01*
X2692Y1615D02*
X2729Y1615D01*
X2756Y1615D02*
X2791Y1615D01*
X3690Y1615D02*
X3726Y1615D01*
X3753Y1615D02*
X3789Y1615D01*
X2692Y1614D02*
X2728Y1614D01*
X2756Y1614D02*
X2792Y1614D01*
X3689Y1614D02*
X3725Y1614D01*
X3753Y1614D02*
X3789Y1614D01*
X2691Y1613D02*
X2728Y1613D01*
X2757Y1613D02*
X2792Y1613D01*
X3689Y1613D02*
X3725Y1613D01*
X3754Y1613D02*
X3790Y1613D01*
X2691Y1612D02*
X2727Y1612D01*
X2758Y1612D02*
X2792Y1612D01*
X3689Y1612D02*
X3724Y1612D01*
X3754Y1612D02*
X3790Y1612D01*
X2691Y1611D02*
X2727Y1611D01*
X2758Y1611D02*
X2792Y1611D01*
X3688Y1611D02*
X3724Y1611D01*
X3755Y1611D02*
X3790Y1611D01*
X2691Y1610D02*
X2726Y1610D01*
X2758Y1610D02*
X2793Y1610D01*
X3688Y1610D02*
X3723Y1610D01*
X3755Y1610D02*
X3790Y1610D01*
X2690Y1609D02*
X2726Y1609D01*
X2759Y1609D02*
X2793Y1609D01*
X3688Y1609D02*
X3723Y1609D01*
X3755Y1609D02*
X3790Y1609D01*
X2690Y1608D02*
X2726Y1608D01*
X2759Y1608D02*
X2793Y1608D01*
X3688Y1608D02*
X3723Y1608D01*
X3756Y1608D02*
X3791Y1608D01*
X2690Y1607D02*
X2726Y1607D01*
X2759Y1607D02*
X2793Y1607D01*
X3688Y1607D02*
X3723Y1607D01*
X3756Y1607D02*
X3791Y1607D01*
X2690Y1606D02*
X2726Y1606D01*
X2759Y1606D02*
X2793Y1606D01*
X3688Y1606D02*
X3723Y1606D01*
X3756Y1606D02*
X3791Y1606D01*
X2690Y1605D02*
X2726Y1605D01*
X2759Y1605D02*
X2793Y1605D01*
X3688Y1605D02*
X3723Y1605D01*
X3756Y1605D02*
X3791Y1605D01*
X2690Y1604D02*
X2726Y1604D01*
X2759Y1604D02*
X2793Y1604D01*
X3688Y1604D02*
X3723Y1604D01*
X3756Y1604D02*
X3791Y1604D01*
X2690Y1603D02*
X2726Y1603D01*
X2759Y1603D02*
X2793Y1603D01*
X3688Y1603D02*
X3723Y1603D01*
X3756Y1603D02*
X3791Y1603D01*
X2690Y1602D02*
X2726Y1602D01*
X2759Y1602D02*
X2793Y1602D01*
X3688Y1602D02*
X3723Y1602D01*
X3756Y1602D02*
X3790Y1602D01*
X2691Y1601D02*
X2726Y1601D01*
X2758Y1601D02*
X2793Y1601D01*
X3688Y1601D02*
X3723Y1601D01*
X3755Y1601D02*
X3790Y1601D01*
X2691Y1600D02*
X2727Y1600D01*
X2758Y1600D02*
X2793Y1600D01*
X3688Y1600D02*
X3723Y1600D01*
X3755Y1600D02*
X3790Y1600D01*
X2691Y1599D02*
X2727Y1599D01*
X2758Y1599D02*
X2792Y1599D01*
X3689Y1599D02*
X3724Y1599D01*
X3755Y1599D02*
X3790Y1599D01*
X2691Y1598D02*
X2728Y1598D01*
X2757Y1598D02*
X2792Y1598D01*
X3689Y1598D02*
X3724Y1598D01*
X3754Y1598D02*
X3790Y1598D01*
X2692Y1597D02*
X2728Y1597D01*
X2757Y1597D02*
X2792Y1597D01*
X3689Y1597D02*
X3725Y1597D01*
X3754Y1597D02*
X3789Y1597D01*
X2692Y1596D02*
X2729Y1596D01*
X2756Y1596D02*
X2791Y1596D01*
X3689Y1596D02*
X3726Y1596D01*
X3753Y1596D02*
X3789Y1596D01*
X2692Y1595D02*
X2730Y1595D01*
X2755Y1595D02*
X2791Y1595D01*
X3690Y1595D02*
X3726Y1595D01*
X3752Y1595D02*
X3789Y1595D01*
X2693Y1594D02*
X2730Y1594D01*
X2754Y1594D02*
X2790Y1594D01*
X3690Y1594D02*
X3727Y1594D01*
X3751Y1594D02*
X3788Y1594D01*
X2693Y1593D02*
X2732Y1593D01*
X2753Y1593D02*
X2790Y1593D01*
X3691Y1593D02*
X3728Y1593D01*
X3750Y1593D02*
X3787Y1593D01*
X2694Y1592D02*
X2733Y1592D01*
X2752Y1592D02*
X2789Y1592D01*
X3691Y1592D02*
X3730Y1592D01*
X3749Y1592D02*
X3787Y1592D01*
X2694Y1591D02*
X2735Y1591D01*
X2750Y1591D02*
X2789Y1591D01*
X3692Y1591D02*
X3731Y1591D01*
X3747Y1591D02*
X3786Y1591D01*
X2695Y1590D02*
X2737Y1590D01*
X2748Y1590D02*
X2788Y1590D01*
X3693Y1590D02*
X3734Y1590D01*
X3744Y1590D02*
X3786Y1590D01*
X2696Y1589D02*
X2787Y1589D01*
X3694Y1589D02*
X3785Y1589D01*
X2697Y1588D02*
X2786Y1588D01*
X3694Y1588D02*
X3784Y1588D01*
X2698Y1587D02*
X2786Y1587D01*
X3695Y1587D02*
X3783Y1587D01*
X2699Y1586D02*
X2784Y1586D01*
X3696Y1586D02*
X3782Y1586D01*
X2700Y1585D02*
X2783Y1585D01*
X3698Y1585D02*
X3781Y1585D01*
X2701Y1584D02*
X2782Y1584D01*
X3699Y1584D02*
X3780Y1584D01*
X2703Y1583D02*
X2780Y1583D01*
X3701Y1583D02*
X3778Y1583D01*
X2705Y1582D02*
X2779Y1582D01*
X3702Y1582D02*
X3776Y1582D01*
X2707Y1581D02*
X2776Y1581D01*
X3704Y1581D02*
X3774Y1581D01*
X2710Y1580D02*
X2773Y1580D01*
X3708Y1580D02*
X3771Y1580D01*
X2713Y1531D02*
X2771Y1531D01*
X3710Y1531D02*
X3768Y1531D01*
X2708Y1530D02*
X2775Y1530D01*
X3706Y1530D02*
X3773Y1530D01*
X2706Y1529D02*
X2778Y1529D01*
X3703Y1529D02*
X3775Y1529D01*
X2704Y1528D02*
X2779Y1528D01*
X3701Y1528D02*
X3777Y1528D01*
X2702Y1527D02*
X2781Y1527D01*
X3700Y1527D02*
X3779Y1527D01*
X2701Y1526D02*
X2783Y1526D01*
X3698Y1526D02*
X3780Y1526D01*
X2699Y1525D02*
X2784Y1525D01*
X3697Y1525D02*
X3781Y1525D01*
X2698Y1524D02*
X2785Y1524D01*
X3696Y1524D02*
X3783Y1524D01*
X2697Y1523D02*
X2786Y1523D01*
X3695Y1523D02*
X3784Y1523D01*
X2696Y1522D02*
X2787Y1522D01*
X3694Y1522D02*
X3784Y1522D01*
X2696Y1521D02*
X2739Y1521D01*
X2746Y1521D02*
X2788Y1521D01*
X3693Y1521D02*
X3736Y1521D01*
X3743Y1521D02*
X3785Y1521D01*
X2695Y1520D02*
X2735Y1520D01*
X2749Y1520D02*
X2789Y1520D01*
X3692Y1520D02*
X3732Y1520D01*
X3746Y1520D02*
X3786Y1520D01*
X2694Y1519D02*
X2734Y1519D01*
X2751Y1519D02*
X2789Y1519D01*
X3692Y1519D02*
X3730Y1519D01*
X3748Y1519D02*
X3787Y1519D01*
X2694Y1518D02*
X2732Y1518D01*
X2753Y1518D02*
X2790Y1518D01*
X3691Y1518D02*
X3729Y1518D01*
X3750Y1518D02*
X3787Y1518D01*
X2693Y1517D02*
X2731Y1517D01*
X2754Y1517D02*
X2790Y1517D01*
X3691Y1517D02*
X3728Y1517D01*
X3751Y1517D02*
X3788Y1517D01*
X2693Y1516D02*
X2730Y1516D01*
X2755Y1516D02*
X2791Y1516D01*
X3690Y1516D02*
X3727Y1516D01*
X3752Y1516D02*
X3788Y1516D01*
X2692Y1515D02*
X2729Y1515D01*
X2756Y1515D02*
X2791Y1515D01*
X3690Y1515D02*
X3726Y1515D01*
X3753Y1515D02*
X3789Y1515D01*
X2692Y1514D02*
X2728Y1514D01*
X2757Y1514D02*
X2792Y1514D01*
X3689Y1514D02*
X3725Y1514D01*
X3753Y1514D02*
X3789Y1514D01*
X2691Y1513D02*
X2728Y1513D01*
X2757Y1513D02*
X2792Y1513D01*
X3689Y1513D02*
X3725Y1513D01*
X3754Y1513D02*
X3790Y1513D01*
X2691Y1512D02*
X2727Y1512D01*
X2758Y1512D02*
X2792Y1512D01*
X3689Y1512D02*
X3724Y1512D01*
X3754Y1512D02*
X3790Y1512D01*
X2691Y1511D02*
X2727Y1511D01*
X2758Y1511D02*
X2792Y1511D01*
X3688Y1511D02*
X3724Y1511D01*
X3755Y1511D02*
X3790Y1511D01*
X2691Y1510D02*
X2726Y1510D01*
X2758Y1510D02*
X2793Y1510D01*
X3688Y1510D02*
X3723Y1510D01*
X3755Y1510D02*
X3790Y1510D01*
X2691Y1509D02*
X2726Y1509D01*
X2759Y1509D02*
X2793Y1509D01*
X3688Y1509D02*
X3723Y1509D01*
X3755Y1509D02*
X3790Y1509D01*
X2690Y1508D02*
X2726Y1508D01*
X2759Y1508D02*
X2793Y1508D01*
X3688Y1508D02*
X3723Y1508D01*
X3756Y1508D02*
X3791Y1508D01*
X2690Y1507D02*
X2726Y1507D01*
X2759Y1507D02*
X2793Y1507D01*
X3688Y1507D02*
X3723Y1507D01*
X3756Y1507D02*
X3791Y1507D01*
X2690Y1506D02*
X2726Y1506D01*
X2759Y1506D02*
X2793Y1506D01*
X3688Y1506D02*
X3723Y1506D01*
X3756Y1506D02*
X3791Y1506D01*
X2690Y1505D02*
X2726Y1505D01*
X2759Y1505D02*
X2793Y1505D01*
X3688Y1505D02*
X3723Y1505D01*
X3756Y1505D02*
X3791Y1505D01*
X2690Y1504D02*
X2726Y1504D01*
X2759Y1504D02*
X2793Y1504D01*
X3688Y1504D02*
X3723Y1504D01*
X3756Y1504D02*
X3791Y1504D01*
X2690Y1503D02*
X2726Y1503D01*
X2759Y1503D02*
X2793Y1503D01*
X3688Y1503D02*
X3723Y1503D01*
X3756Y1503D02*
X3791Y1503D01*
X2690Y1502D02*
X2726Y1502D01*
X2759Y1502D02*
X2793Y1502D01*
X3688Y1502D02*
X3723Y1502D01*
X3756Y1502D02*
X3790Y1502D01*
X2691Y1501D02*
X2726Y1501D01*
X2759Y1501D02*
X2793Y1501D01*
X3688Y1501D02*
X3723Y1501D01*
X3755Y1501D02*
X3790Y1501D01*
X2691Y1500D02*
X2727Y1500D01*
X2758Y1500D02*
X2793Y1500D01*
X3688Y1500D02*
X3723Y1500D01*
X3755Y1500D02*
X3790Y1500D01*
X2691Y1499D02*
X2727Y1499D01*
X2758Y1499D02*
X2792Y1499D01*
X3689Y1499D02*
X3724Y1499D01*
X3755Y1499D02*
X3790Y1499D01*
X2691Y1498D02*
X2728Y1498D01*
X2757Y1498D02*
X2792Y1498D01*
X3689Y1498D02*
X3724Y1498D01*
X3754Y1498D02*
X3790Y1498D01*
X2692Y1497D02*
X2728Y1497D01*
X2757Y1497D02*
X2792Y1497D01*
X3689Y1497D02*
X3725Y1497D01*
X3754Y1497D02*
X3789Y1497D01*
X2692Y1496D02*
X2729Y1496D01*
X2756Y1496D02*
X2791Y1496D01*
X3689Y1496D02*
X3726Y1496D01*
X3753Y1496D02*
X3789Y1496D01*
X2692Y1495D02*
X2730Y1495D01*
X2755Y1495D02*
X2791Y1495D01*
X3690Y1495D02*
X3726Y1495D01*
X3752Y1495D02*
X3789Y1495D01*
X2693Y1494D02*
X2730Y1494D01*
X2754Y1494D02*
X2790Y1494D01*
X3690Y1494D02*
X3727Y1494D01*
X3751Y1494D02*
X3788Y1494D01*
X2693Y1493D02*
X2732Y1493D01*
X2753Y1493D02*
X2790Y1493D01*
X3691Y1493D02*
X3728Y1493D01*
X3750Y1493D02*
X3787Y1493D01*
X2694Y1492D02*
X2733Y1492D01*
X2752Y1492D02*
X2789Y1492D01*
X3691Y1492D02*
X3730Y1492D01*
X3749Y1492D02*
X3787Y1492D01*
X2694Y1491D02*
X2735Y1491D01*
X2750Y1491D02*
X2789Y1491D01*
X3692Y1491D02*
X3731Y1491D01*
X3747Y1491D02*
X3786Y1491D01*
X2695Y1490D02*
X2737Y1490D01*
X2748Y1490D02*
X2788Y1490D01*
X3693Y1490D02*
X3734Y1490D01*
X3744Y1490D02*
X3786Y1490D01*
X2696Y1489D02*
X2787Y1489D01*
X3694Y1489D02*
X3785Y1489D01*
X2697Y1488D02*
X2786Y1488D01*
X3694Y1488D02*
X3784Y1488D01*
X2698Y1487D02*
X2786Y1487D01*
X3695Y1487D02*
X3783Y1487D01*
X2699Y1486D02*
X2784Y1486D01*
X3696Y1486D02*
X3782Y1486D01*
X2700Y1485D02*
X2783Y1485D01*
X3698Y1485D02*
X3781Y1485D01*
X2701Y1484D02*
X2782Y1484D01*
X3699Y1484D02*
X3780Y1484D01*
X2703Y1483D02*
X2780Y1483D01*
X3701Y1483D02*
X3778Y1483D01*
X2705Y1482D02*
X2779Y1482D01*
X3702Y1482D02*
X3776Y1482D01*
X2707Y1481D02*
X2776Y1481D01*
X3704Y1481D02*
X3774Y1481D01*
X2710Y1480D02*
X2773Y1480D01*
X3708Y1480D02*
X3771Y1480D01*
X2713Y1431D02*
X2771Y1431D01*
X3710Y1431D02*
X3768Y1431D01*
X2708Y1430D02*
X2775Y1430D01*
X3706Y1430D02*
X3773Y1430D01*
X2706Y1429D02*
X2778Y1429D01*
X3703Y1429D02*
X3775Y1429D01*
X2704Y1428D02*
X2779Y1428D01*
X3701Y1428D02*
X3777Y1428D01*
X2702Y1427D02*
X2781Y1427D01*
X3700Y1427D02*
X3779Y1427D01*
X2701Y1426D02*
X2783Y1426D01*
X3698Y1426D02*
X3780Y1426D01*
X2699Y1425D02*
X2784Y1425D01*
X3697Y1425D02*
X3781Y1425D01*
X2698Y1424D02*
X2785Y1424D01*
X3696Y1424D02*
X3783Y1424D01*
X2697Y1423D02*
X2786Y1423D01*
X3695Y1423D02*
X3784Y1423D01*
X2696Y1422D02*
X2787Y1422D01*
X3694Y1422D02*
X3784Y1422D01*
X2696Y1421D02*
X2739Y1421D01*
X2746Y1421D02*
X2788Y1421D01*
X3693Y1421D02*
X3736Y1421D01*
X3743Y1421D02*
X3785Y1421D01*
X2695Y1420D02*
X2736Y1420D01*
X2749Y1420D02*
X2789Y1420D01*
X3692Y1420D02*
X3732Y1420D01*
X3746Y1420D02*
X3786Y1420D01*
X2694Y1419D02*
X2734Y1419D01*
X2751Y1419D02*
X2789Y1419D01*
X3692Y1419D02*
X3731Y1419D01*
X3748Y1419D02*
X3787Y1419D01*
X2694Y1418D02*
X2732Y1418D01*
X2753Y1418D02*
X2790Y1418D01*
X3691Y1418D02*
X3729Y1418D01*
X3749Y1418D02*
X3787Y1418D01*
X2693Y1417D02*
X2731Y1417D01*
X2754Y1417D02*
X2790Y1417D01*
X3691Y1417D02*
X3728Y1417D01*
X3751Y1417D02*
X3788Y1417D01*
X2693Y1416D02*
X2730Y1416D01*
X2755Y1416D02*
X2791Y1416D01*
X3690Y1416D02*
X3727Y1416D01*
X3752Y1416D02*
X3788Y1416D01*
X2692Y1415D02*
X2729Y1415D01*
X2756Y1415D02*
X2791Y1415D01*
X3690Y1415D02*
X3726Y1415D01*
X3752Y1415D02*
X3789Y1415D01*
X2692Y1414D02*
X2729Y1414D01*
X2756Y1414D02*
X2792Y1414D01*
X3689Y1414D02*
X3725Y1414D01*
X3753Y1414D02*
X3789Y1414D01*
X2691Y1413D02*
X2728Y1413D01*
X2757Y1413D02*
X2792Y1413D01*
X3689Y1413D02*
X3725Y1413D01*
X3754Y1413D02*
X3790Y1413D01*
X2691Y1412D02*
X2727Y1412D01*
X2757Y1412D02*
X2792Y1412D01*
X3689Y1412D02*
X3724Y1412D01*
X3754Y1412D02*
X3790Y1412D01*
X2691Y1411D02*
X2727Y1411D01*
X2758Y1411D02*
X2792Y1411D01*
X3688Y1411D02*
X3724Y1411D01*
X3755Y1411D02*
X3790Y1411D01*
X2691Y1410D02*
X2727Y1410D01*
X2758Y1410D02*
X2793Y1410D01*
X3688Y1410D02*
X3723Y1410D01*
X3755Y1410D02*
X3790Y1410D01*
X2690Y1409D02*
X2726Y1409D01*
X2758Y1409D02*
X2793Y1409D01*
X3688Y1409D02*
X3723Y1409D01*
X3755Y1409D02*
X3790Y1409D01*
X2690Y1408D02*
X2726Y1408D01*
X2759Y1408D02*
X2793Y1408D01*
X3688Y1408D02*
X3723Y1408D01*
X3755Y1408D02*
X3791Y1408D01*
X2690Y1407D02*
X2726Y1407D01*
X2759Y1407D02*
X2793Y1407D01*
X3688Y1407D02*
X3723Y1407D01*
X3756Y1407D02*
X3791Y1407D01*
X2690Y1406D02*
X2726Y1406D01*
X2759Y1406D02*
X2793Y1406D01*
X3688Y1406D02*
X3723Y1406D01*
X3756Y1406D02*
X3791Y1406D01*
X2690Y1405D02*
X2726Y1405D01*
X2759Y1405D02*
X2793Y1405D01*
X3688Y1405D02*
X3723Y1405D01*
X3756Y1405D02*
X3791Y1405D01*
X2690Y1404D02*
X2726Y1404D01*
X2759Y1404D02*
X2793Y1404D01*
X3688Y1404D02*
X3723Y1404D01*
X3756Y1404D02*
X3791Y1404D01*
X2690Y1403D02*
X2726Y1403D01*
X2759Y1403D02*
X2793Y1403D01*
X3688Y1403D02*
X3723Y1403D01*
X3755Y1403D02*
X3791Y1403D01*
X2690Y1402D02*
X2726Y1402D01*
X2759Y1402D02*
X2793Y1402D01*
X3688Y1402D02*
X3723Y1402D01*
X3755Y1402D02*
X3790Y1402D01*
X2691Y1401D02*
X2727Y1401D01*
X2758Y1401D02*
X2793Y1401D01*
X3688Y1401D02*
X3723Y1401D01*
X3755Y1401D02*
X3790Y1401D01*
X2691Y1400D02*
X2727Y1400D01*
X2758Y1400D02*
X2793Y1400D01*
X3688Y1400D02*
X3724Y1400D01*
X3755Y1400D02*
X3790Y1400D01*
X2691Y1399D02*
X2727Y1399D01*
X2758Y1399D02*
X2792Y1399D01*
X3689Y1399D02*
X3724Y1399D01*
X3754Y1399D02*
X3790Y1399D01*
X2691Y1398D02*
X2728Y1398D01*
X2757Y1398D02*
X2792Y1398D01*
X3689Y1398D02*
X3725Y1398D01*
X3754Y1398D02*
X3790Y1398D01*
X2692Y1397D02*
X2728Y1397D01*
X2757Y1397D02*
X2792Y1397D01*
X3689Y1397D02*
X3725Y1397D01*
X3753Y1397D02*
X3789Y1397D01*
X2692Y1396D02*
X2729Y1396D01*
X2756Y1396D02*
X2791Y1396D01*
X3689Y1396D02*
X3726Y1396D01*
X3753Y1396D02*
X3789Y1396D01*
X2692Y1395D02*
X2730Y1395D01*
X2755Y1395D02*
X2791Y1395D01*
X3690Y1395D02*
X3727Y1395D01*
X3752Y1395D02*
X3789Y1395D01*
X2693Y1394D02*
X2731Y1394D01*
X2754Y1394D02*
X2790Y1394D01*
X3690Y1394D02*
X3727Y1394D01*
X3751Y1394D02*
X3788Y1394D01*
X2693Y1393D02*
X2732Y1393D01*
X2753Y1393D02*
X2790Y1393D01*
X3691Y1393D02*
X3729Y1393D01*
X3750Y1393D02*
X3787Y1393D01*
X2694Y1392D02*
X2733Y1392D01*
X2752Y1392D02*
X2789Y1392D01*
X3691Y1392D02*
X3730Y1392D01*
X3749Y1392D02*
X3787Y1392D01*
X2694Y1391D02*
X2735Y1391D01*
X2750Y1391D02*
X2789Y1391D01*
X3692Y1391D02*
X3732Y1391D01*
X3747Y1391D02*
X3786Y1391D01*
X2695Y1390D02*
X2738Y1390D01*
X2747Y1390D02*
X2788Y1390D01*
X3693Y1390D02*
X3734Y1390D01*
X3744Y1390D02*
X3786Y1390D01*
X2696Y1389D02*
X2787Y1389D01*
X3694Y1389D02*
X3785Y1389D01*
X2697Y1388D02*
X2786Y1388D01*
X3694Y1388D02*
X3784Y1388D01*
X2698Y1387D02*
X2786Y1387D01*
X3695Y1387D02*
X3783Y1387D01*
X2699Y1386D02*
X2784Y1386D01*
X3696Y1386D02*
X3782Y1386D01*
X2700Y1385D02*
X2783Y1385D01*
X3698Y1385D02*
X3781Y1385D01*
X2701Y1384D02*
X2782Y1384D01*
X3699Y1384D02*
X3780Y1384D01*
X2703Y1383D02*
X2780Y1383D01*
X3701Y1383D02*
X3778Y1383D01*
X2705Y1382D02*
X2779Y1382D01*
X3702Y1382D02*
X3776Y1382D01*
X2707Y1381D02*
X2776Y1381D01*
X3704Y1381D02*
X3774Y1381D01*
X2710Y1380D02*
X2773Y1380D01*
X3708Y1380D02*
X3771Y1380D01*
X2713Y1331D02*
X2771Y1331D01*
X3710Y1331D02*
X3768Y1331D01*
X2708Y1330D02*
X2775Y1330D01*
X3706Y1330D02*
X3773Y1330D01*
X2706Y1329D02*
X2778Y1329D01*
X3703Y1329D02*
X3775Y1329D01*
X2704Y1328D02*
X2780Y1328D01*
X3701Y1328D02*
X3777Y1328D01*
X2702Y1327D02*
X2781Y1327D01*
X3700Y1327D02*
X3779Y1327D01*
X2701Y1326D02*
X2783Y1326D01*
X3698Y1326D02*
X3780Y1326D01*
X2699Y1325D02*
X2784Y1325D01*
X3697Y1325D02*
X3781Y1325D01*
X2698Y1324D02*
X2785Y1324D01*
X3696Y1324D02*
X3783Y1324D01*
X2697Y1323D02*
X2786Y1323D01*
X3695Y1323D02*
X3784Y1323D01*
X2696Y1322D02*
X2787Y1322D01*
X3694Y1322D02*
X3784Y1322D01*
X2696Y1321D02*
X2739Y1321D01*
X2746Y1321D02*
X2788Y1321D01*
X3693Y1321D02*
X3736Y1321D01*
X3743Y1321D02*
X3785Y1321D01*
X2695Y1320D02*
X2736Y1320D01*
X2749Y1320D02*
X2789Y1320D01*
X3692Y1320D02*
X3732Y1320D01*
X3746Y1320D02*
X3786Y1320D01*
X2694Y1319D02*
X2734Y1319D01*
X2751Y1319D02*
X2789Y1319D01*
X3692Y1319D02*
X3731Y1319D01*
X3748Y1319D02*
X3787Y1319D01*
X2694Y1318D02*
X2732Y1318D01*
X2753Y1318D02*
X2790Y1318D01*
X3691Y1318D02*
X3729Y1318D01*
X3749Y1318D02*
X3787Y1318D01*
X2693Y1317D02*
X2731Y1317D01*
X2754Y1317D02*
X2790Y1317D01*
X3691Y1317D02*
X3728Y1317D01*
X3751Y1317D02*
X3788Y1317D01*
X2693Y1316D02*
X2730Y1316D01*
X2755Y1316D02*
X2791Y1316D01*
X3690Y1316D02*
X3727Y1316D01*
X3752Y1316D02*
X3788Y1316D01*
X2692Y1315D02*
X2729Y1315D01*
X2756Y1315D02*
X2791Y1315D01*
X3690Y1315D02*
X3726Y1315D01*
X3752Y1315D02*
X3789Y1315D01*
X2692Y1314D02*
X2729Y1314D01*
X2756Y1314D02*
X2792Y1314D01*
X3689Y1314D02*
X3725Y1314D01*
X3753Y1314D02*
X3789Y1314D01*
X2691Y1313D02*
X2728Y1313D01*
X2757Y1313D02*
X2792Y1313D01*
X3689Y1313D02*
X3725Y1313D01*
X3754Y1313D02*
X3790Y1313D01*
X2691Y1312D02*
X2727Y1312D01*
X2757Y1312D02*
X2792Y1312D01*
X3689Y1312D02*
X3724Y1312D01*
X3754Y1312D02*
X3790Y1312D01*
X2691Y1311D02*
X2727Y1311D01*
X2758Y1311D02*
X2792Y1311D01*
X3688Y1311D02*
X3724Y1311D01*
X3755Y1311D02*
X3790Y1311D01*
X2691Y1310D02*
X2727Y1310D01*
X2758Y1310D02*
X2793Y1310D01*
X3688Y1310D02*
X3723Y1310D01*
X3755Y1310D02*
X3790Y1310D01*
X2691Y1309D02*
X2726Y1309D01*
X2758Y1309D02*
X2793Y1309D01*
X3688Y1309D02*
X3723Y1309D01*
X3755Y1309D02*
X3790Y1309D01*
X2690Y1308D02*
X2726Y1308D01*
X2759Y1308D02*
X2793Y1308D01*
X3688Y1308D02*
X3723Y1308D01*
X3755Y1308D02*
X3791Y1308D01*
X2690Y1307D02*
X2726Y1307D01*
X2759Y1307D02*
X2793Y1307D01*
X3688Y1307D02*
X3723Y1307D01*
X3756Y1307D02*
X3791Y1307D01*
X2690Y1306D02*
X2726Y1306D01*
X2759Y1306D02*
X2793Y1306D01*
X3688Y1306D02*
X3723Y1306D01*
X3756Y1306D02*
X3791Y1306D01*
X2690Y1305D02*
X2726Y1305D01*
X2759Y1305D02*
X2793Y1305D01*
X3688Y1305D02*
X3723Y1305D01*
X3756Y1305D02*
X3791Y1305D01*
X2690Y1304D02*
X2726Y1304D01*
X2759Y1304D02*
X2793Y1304D01*
X3688Y1304D02*
X3723Y1304D01*
X3756Y1304D02*
X3791Y1304D01*
X2690Y1303D02*
X2726Y1303D01*
X2759Y1303D02*
X2793Y1303D01*
X3688Y1303D02*
X3723Y1303D01*
X3755Y1303D02*
X3791Y1303D01*
X2690Y1302D02*
X2726Y1302D01*
X2759Y1302D02*
X2793Y1302D01*
X3688Y1302D02*
X3723Y1302D01*
X3755Y1302D02*
X3790Y1302D01*
X2691Y1301D02*
X2727Y1301D01*
X2758Y1301D02*
X2793Y1301D01*
X3688Y1301D02*
X3723Y1301D01*
X3755Y1301D02*
X3790Y1301D01*
X2691Y1300D02*
X2727Y1300D01*
X2758Y1300D02*
X2793Y1300D01*
X3688Y1300D02*
X3724Y1300D01*
X3755Y1300D02*
X3790Y1300D01*
X2691Y1299D02*
X2727Y1299D01*
X2758Y1299D02*
X2792Y1299D01*
X3689Y1299D02*
X3724Y1299D01*
X3754Y1299D02*
X3790Y1299D01*
X2691Y1298D02*
X2728Y1298D01*
X2757Y1298D02*
X2792Y1298D01*
X3689Y1298D02*
X3725Y1298D01*
X3754Y1298D02*
X3790Y1298D01*
X2692Y1297D02*
X2728Y1297D01*
X2757Y1297D02*
X2792Y1297D01*
X3689Y1297D02*
X3725Y1297D01*
X3753Y1297D02*
X3789Y1297D01*
X2692Y1296D02*
X2729Y1296D01*
X2756Y1296D02*
X2791Y1296D01*
X3689Y1296D02*
X3726Y1296D01*
X3753Y1296D02*
X3789Y1296D01*
X2692Y1295D02*
X2730Y1295D01*
X2755Y1295D02*
X2791Y1295D01*
X3690Y1295D02*
X3727Y1295D01*
X3752Y1295D02*
X3789Y1295D01*
X2693Y1294D02*
X2731Y1294D01*
X2754Y1294D02*
X2790Y1294D01*
X3690Y1294D02*
X3727Y1294D01*
X3751Y1294D02*
X3788Y1294D01*
X2693Y1293D02*
X2732Y1293D01*
X2753Y1293D02*
X2790Y1293D01*
X3691Y1293D02*
X3729Y1293D01*
X3750Y1293D02*
X3787Y1293D01*
X2694Y1292D02*
X2733Y1292D01*
X2752Y1292D02*
X2789Y1292D01*
X3691Y1292D02*
X3730Y1292D01*
X3748Y1292D02*
X3787Y1292D01*
X2694Y1291D02*
X2735Y1291D01*
X2750Y1291D02*
X2789Y1291D01*
X3692Y1291D02*
X3732Y1291D01*
X3747Y1291D02*
X3786Y1291D01*
X2695Y1290D02*
X2738Y1290D01*
X2747Y1290D02*
X2788Y1290D01*
X3693Y1290D02*
X3734Y1290D01*
X3744Y1290D02*
X3786Y1290D01*
X2696Y1289D02*
X2787Y1289D01*
X3694Y1289D02*
X3785Y1289D01*
X2697Y1288D02*
X2786Y1288D01*
X3694Y1288D02*
X3784Y1288D01*
X2698Y1287D02*
X2786Y1287D01*
X3695Y1287D02*
X3783Y1287D01*
X2699Y1286D02*
X2784Y1286D01*
X3696Y1286D02*
X3782Y1286D01*
X2700Y1285D02*
X2783Y1285D01*
X3698Y1285D02*
X3781Y1285D01*
X2701Y1284D02*
X2782Y1284D01*
X3699Y1284D02*
X3780Y1284D01*
X2703Y1283D02*
X2780Y1283D01*
X3701Y1283D02*
X3778Y1283D01*
X2705Y1282D02*
X2779Y1282D01*
X3702Y1282D02*
X3776Y1282D01*
X2707Y1281D02*
X2776Y1281D01*
X3704Y1281D02*
X3774Y1281D01*
X2710Y1280D02*
X2773Y1280D01*
X3708Y1280D02*
X3771Y1280D01*
X2713Y1231D02*
X2771Y1231D01*
X3710Y1231D02*
X3768Y1231D01*
X2708Y1230D02*
X2775Y1230D01*
X3706Y1230D02*
X3773Y1230D01*
X2706Y1229D02*
X2778Y1229D01*
X3703Y1229D02*
X3775Y1229D01*
X2704Y1228D02*
X2780Y1228D01*
X3701Y1228D02*
X3777Y1228D01*
X2702Y1227D02*
X2781Y1227D01*
X3700Y1227D02*
X3779Y1227D01*
X2701Y1226D02*
X2783Y1226D01*
X3698Y1226D02*
X3780Y1226D01*
X2699Y1225D02*
X2784Y1225D01*
X3697Y1225D02*
X3781Y1225D01*
X2698Y1224D02*
X2785Y1224D01*
X3696Y1224D02*
X3783Y1224D01*
X2697Y1223D02*
X2786Y1223D01*
X3695Y1223D02*
X3784Y1223D01*
X2696Y1222D02*
X2787Y1222D01*
X3694Y1222D02*
X3784Y1222D01*
X2696Y1221D02*
X2739Y1221D01*
X2746Y1221D02*
X2788Y1221D01*
X3693Y1221D02*
X3735Y1221D01*
X3743Y1221D02*
X3785Y1221D01*
X2695Y1220D02*
X2736Y1220D01*
X2749Y1220D02*
X2789Y1220D01*
X3692Y1220D02*
X3732Y1220D01*
X3746Y1220D02*
X3786Y1220D01*
X2694Y1219D02*
X2734Y1219D01*
X2751Y1219D02*
X2789Y1219D01*
X3692Y1219D02*
X3730Y1219D01*
X3748Y1219D02*
X3787Y1219D01*
X2694Y1218D02*
X2732Y1218D01*
X2753Y1218D02*
X2790Y1218D01*
X3691Y1218D02*
X3729Y1218D01*
X3750Y1218D02*
X3787Y1218D01*
X2693Y1217D02*
X2731Y1217D01*
X2754Y1217D02*
X2790Y1217D01*
X3691Y1217D02*
X3728Y1217D01*
X3751Y1217D02*
X3788Y1217D01*
X2693Y1216D02*
X2730Y1216D01*
X2755Y1216D02*
X2791Y1216D01*
X3690Y1216D02*
X3727Y1216D01*
X3752Y1216D02*
X3788Y1216D01*
X2692Y1215D02*
X2729Y1215D01*
X2756Y1215D02*
X2791Y1215D01*
X3690Y1215D02*
X3726Y1215D01*
X3753Y1215D02*
X3789Y1215D01*
X2692Y1214D02*
X2729Y1214D01*
X2756Y1214D02*
X2792Y1214D01*
X3689Y1214D02*
X3725Y1214D01*
X3753Y1214D02*
X3789Y1214D01*
X2691Y1213D02*
X2728Y1213D01*
X2757Y1213D02*
X2792Y1213D01*
X3689Y1213D02*
X3724Y1213D01*
X3754Y1213D02*
X3790Y1213D01*
X2691Y1212D02*
X2727Y1212D01*
X2757Y1212D02*
X2792Y1212D01*
X3689Y1212D02*
X3724Y1212D01*
X3754Y1212D02*
X3790Y1212D01*
X2691Y1211D02*
X2727Y1211D01*
X2758Y1211D02*
X2792Y1211D01*
X3688Y1211D02*
X3724Y1211D01*
X3755Y1211D02*
X3790Y1211D01*
X2691Y1210D02*
X2727Y1210D01*
X2758Y1210D02*
X2793Y1210D01*
X3688Y1210D02*
X3723Y1210D01*
X3755Y1210D02*
X3790Y1210D01*
X2691Y1209D02*
X2726Y1209D01*
X2758Y1209D02*
X2793Y1209D01*
X3688Y1209D02*
X3723Y1209D01*
X3755Y1209D02*
X3790Y1209D01*
X2690Y1208D02*
X2726Y1208D01*
X2759Y1208D02*
X2793Y1208D01*
X3688Y1208D02*
X3723Y1208D01*
X3756Y1208D02*
X3791Y1208D01*
X2690Y1207D02*
X2726Y1207D01*
X2759Y1207D02*
X2793Y1207D01*
X3688Y1207D02*
X3723Y1207D01*
X3756Y1207D02*
X3791Y1207D01*
X2690Y1206D02*
X2726Y1206D01*
X2759Y1206D02*
X2793Y1206D01*
X3688Y1206D02*
X3723Y1206D01*
X3756Y1206D02*
X3791Y1206D01*
X2690Y1205D02*
X2726Y1205D01*
X2759Y1205D02*
X2793Y1205D01*
X3688Y1205D02*
X3722Y1205D01*
X3756Y1205D02*
X3791Y1205D01*
X2690Y1204D02*
X2726Y1204D01*
X2759Y1204D02*
X2793Y1204D01*
X3688Y1204D02*
X3723Y1204D01*
X3756Y1204D02*
X3791Y1204D01*
X2690Y1203D02*
X2726Y1203D01*
X2759Y1203D02*
X2793Y1203D01*
X3688Y1203D02*
X3723Y1203D01*
X3756Y1203D02*
X3791Y1203D01*
X2690Y1202D02*
X2726Y1202D01*
X2759Y1202D02*
X2793Y1202D01*
X3688Y1202D02*
X3723Y1202D01*
X3756Y1202D02*
X3790Y1202D01*
X2691Y1201D02*
X2727Y1201D01*
X2758Y1201D02*
X2793Y1201D01*
X3688Y1201D02*
X3723Y1201D01*
X3755Y1201D02*
X3790Y1201D01*
X2691Y1200D02*
X2727Y1200D01*
X2758Y1200D02*
X2793Y1200D01*
X3688Y1200D02*
X3723Y1200D01*
X3755Y1200D02*
X3790Y1200D01*
X2691Y1199D02*
X2727Y1199D01*
X2758Y1199D02*
X2792Y1199D01*
X3689Y1199D02*
X3724Y1199D01*
X3755Y1199D02*
X3790Y1199D01*
X2691Y1198D02*
X2728Y1198D01*
X2757Y1198D02*
X2792Y1198D01*
X3689Y1198D02*
X3724Y1198D01*
X3754Y1198D02*
X3790Y1198D01*
X2692Y1197D02*
X2728Y1197D01*
X2757Y1197D02*
X2792Y1197D01*
X3689Y1197D02*
X3725Y1197D01*
X3754Y1197D02*
X3789Y1197D01*
X2692Y1196D02*
X2729Y1196D01*
X2756Y1196D02*
X2791Y1196D01*
X3689Y1196D02*
X3725Y1196D01*
X3753Y1196D02*
X3789Y1196D01*
X2692Y1195D02*
X2730Y1195D01*
X2755Y1195D02*
X2791Y1195D01*
X3690Y1195D02*
X3726Y1195D01*
X3752Y1195D02*
X3789Y1195D01*
X2693Y1194D02*
X2731Y1194D01*
X2754Y1194D02*
X2790Y1194D01*
X3690Y1194D02*
X3727Y1194D01*
X3751Y1194D02*
X3788Y1194D01*
X2693Y1193D02*
X2732Y1193D01*
X2753Y1193D02*
X2790Y1193D01*
X3691Y1193D02*
X3728Y1193D01*
X3750Y1193D02*
X3787Y1193D01*
X2694Y1192D02*
X2733Y1192D01*
X2752Y1192D02*
X2789Y1192D01*
X3691Y1192D02*
X3730Y1192D01*
X3749Y1192D02*
X3787Y1192D01*
X2694Y1191D02*
X2735Y1191D01*
X2750Y1191D02*
X2789Y1191D01*
X3692Y1191D02*
X3731Y1191D01*
X3747Y1191D02*
X3786Y1191D01*
X2695Y1190D02*
X2738Y1190D01*
X2747Y1190D02*
X2788Y1190D01*
X3693Y1190D02*
X3734Y1190D01*
X3744Y1190D02*
X3786Y1190D01*
X2696Y1189D02*
X2787Y1189D01*
X3694Y1189D02*
X3785Y1189D01*
X2697Y1188D02*
X2786Y1188D01*
X3694Y1188D02*
X3784Y1188D01*
X2698Y1187D02*
X2786Y1187D01*
X3695Y1187D02*
X3783Y1187D01*
X2699Y1186D02*
X2784Y1186D01*
X3696Y1186D02*
X3782Y1186D01*
X2700Y1185D02*
X2783Y1185D01*
X3698Y1185D02*
X3781Y1185D01*
X2701Y1184D02*
X2782Y1184D01*
X3699Y1184D02*
X3780Y1184D01*
X2703Y1183D02*
X2780Y1183D01*
X3701Y1183D02*
X3778Y1183D01*
X2705Y1182D02*
X2779Y1182D01*
X3702Y1182D02*
X3776Y1182D01*
X2707Y1181D02*
X2776Y1181D01*
X3704Y1181D02*
X3774Y1181D01*
X2710Y1180D02*
X2773Y1180D01*
X3708Y1180D02*
X3771Y1180D01*
X2713Y1131D02*
X2771Y1131D01*
X3710Y1131D02*
X3768Y1131D01*
X2708Y1130D02*
X2775Y1130D01*
X3706Y1130D02*
X3773Y1130D01*
X2706Y1129D02*
X2778Y1129D01*
X3703Y1129D02*
X3775Y1129D01*
X2704Y1128D02*
X2779Y1128D01*
X3701Y1128D02*
X3777Y1128D01*
X2702Y1127D02*
X2781Y1127D01*
X3700Y1127D02*
X3779Y1127D01*
X2701Y1126D02*
X2783Y1126D01*
X3698Y1126D02*
X3780Y1126D01*
X2699Y1125D02*
X2784Y1125D01*
X3697Y1125D02*
X3781Y1125D01*
X2698Y1124D02*
X2785Y1124D01*
X3696Y1124D02*
X3783Y1124D01*
X2697Y1123D02*
X2786Y1123D01*
X3695Y1123D02*
X3784Y1123D01*
X2696Y1122D02*
X2787Y1122D01*
X3694Y1122D02*
X3784Y1122D01*
X2696Y1121D02*
X2739Y1121D01*
X2746Y1121D02*
X2788Y1121D01*
X3693Y1121D02*
X3736Y1121D01*
X3743Y1121D02*
X3785Y1121D01*
X2695Y1120D02*
X2736Y1120D01*
X2749Y1120D02*
X2789Y1120D01*
X3692Y1120D02*
X3732Y1120D01*
X3746Y1120D02*
X3786Y1120D01*
X2694Y1119D02*
X2734Y1119D01*
X2751Y1119D02*
X2789Y1119D01*
X3692Y1119D02*
X3730Y1119D01*
X3748Y1119D02*
X3787Y1119D01*
X2694Y1118D02*
X2732Y1118D01*
X2753Y1118D02*
X2790Y1118D01*
X3691Y1118D02*
X3729Y1118D01*
X3749Y1118D02*
X3787Y1118D01*
X2693Y1117D02*
X2731Y1117D01*
X2754Y1117D02*
X2790Y1117D01*
X3691Y1117D02*
X3728Y1117D01*
X3751Y1117D02*
X3788Y1117D01*
X2693Y1116D02*
X2730Y1116D01*
X2755Y1116D02*
X2791Y1116D01*
X3690Y1116D02*
X3727Y1116D01*
X3752Y1116D02*
X3788Y1116D01*
X2692Y1115D02*
X2729Y1115D01*
X2756Y1115D02*
X2791Y1115D01*
X3690Y1115D02*
X3726Y1115D01*
X3752Y1115D02*
X3789Y1115D01*
X2692Y1114D02*
X2728Y1114D01*
X2756Y1114D02*
X2792Y1114D01*
X3689Y1114D02*
X3725Y1114D01*
X3753Y1114D02*
X3789Y1114D01*
X2691Y1113D02*
X2728Y1113D01*
X2757Y1113D02*
X2792Y1113D01*
X3689Y1113D02*
X3725Y1113D01*
X3754Y1113D02*
X3790Y1113D01*
X2691Y1112D02*
X2727Y1112D01*
X2757Y1112D02*
X2792Y1112D01*
X3689Y1112D02*
X3724Y1112D01*
X3754Y1112D02*
X3790Y1112D01*
X2691Y1111D02*
X2727Y1111D01*
X2758Y1111D02*
X2792Y1111D01*
X3688Y1111D02*
X3724Y1111D01*
X3755Y1111D02*
X3790Y1111D01*
X2691Y1110D02*
X2727Y1110D01*
X2758Y1110D02*
X2793Y1110D01*
X3688Y1110D02*
X3723Y1110D01*
X3755Y1110D02*
X3790Y1110D01*
X2690Y1109D02*
X2726Y1109D01*
X2758Y1109D02*
X2793Y1109D01*
X3688Y1109D02*
X3723Y1109D01*
X3755Y1109D02*
X3790Y1109D01*
X2690Y1108D02*
X2726Y1108D01*
X2759Y1108D02*
X2793Y1108D01*
X3688Y1108D02*
X3723Y1108D01*
X3755Y1108D02*
X3791Y1108D01*
X2690Y1107D02*
X2726Y1107D01*
X2759Y1107D02*
X2793Y1107D01*
X3688Y1107D02*
X3723Y1107D01*
X3756Y1107D02*
X3791Y1107D01*
X2690Y1106D02*
X2726Y1106D01*
X2759Y1106D02*
X2793Y1106D01*
X3688Y1106D02*
X3723Y1106D01*
X3756Y1106D02*
X3791Y1106D01*
X2690Y1105D02*
X2726Y1105D01*
X2759Y1105D02*
X2793Y1105D01*
X3688Y1105D02*
X3723Y1105D01*
X3756Y1105D02*
X3791Y1105D01*
X2690Y1104D02*
X2726Y1104D01*
X2759Y1104D02*
X2793Y1104D01*
X3688Y1104D02*
X3723Y1104D01*
X3756Y1104D02*
X3791Y1104D01*
X2690Y1103D02*
X2726Y1103D01*
X2759Y1103D02*
X2793Y1103D01*
X3688Y1103D02*
X3723Y1103D01*
X3756Y1103D02*
X3791Y1103D01*
X2690Y1102D02*
X2726Y1102D01*
X2759Y1102D02*
X2793Y1102D01*
X3688Y1102D02*
X3723Y1102D01*
X3755Y1102D02*
X3790Y1102D01*
X2691Y1101D02*
X2726Y1101D01*
X2758Y1101D02*
X2793Y1101D01*
X3688Y1101D02*
X3723Y1101D01*
X3755Y1101D02*
X3790Y1101D01*
X2691Y1100D02*
X2727Y1100D01*
X2758Y1100D02*
X2793Y1100D01*
X3688Y1100D02*
X3724Y1100D01*
X3755Y1100D02*
X3790Y1100D01*
X2691Y1099D02*
X2727Y1099D01*
X2758Y1099D02*
X2792Y1099D01*
X3689Y1099D02*
X3724Y1099D01*
X3754Y1099D02*
X3790Y1099D01*
X2691Y1098D02*
X2728Y1098D01*
X2757Y1098D02*
X2792Y1098D01*
X3689Y1098D02*
X3724Y1098D01*
X3754Y1098D02*
X3790Y1098D01*
X2692Y1097D02*
X2728Y1097D01*
X2757Y1097D02*
X2792Y1097D01*
X3689Y1097D02*
X3725Y1097D01*
X3753Y1097D02*
X3789Y1097D01*
X2692Y1096D02*
X2729Y1096D01*
X2756Y1096D02*
X2791Y1096D01*
X3689Y1096D02*
X3726Y1096D01*
X3753Y1096D02*
X3789Y1096D01*
X2692Y1095D02*
X2730Y1095D01*
X2755Y1095D02*
X2791Y1095D01*
X3690Y1095D02*
X3726Y1095D01*
X3752Y1095D02*
X3789Y1095D01*
X2693Y1094D02*
X2731Y1094D01*
X2754Y1094D02*
X2790Y1094D01*
X3690Y1094D02*
X3727Y1094D01*
X3751Y1094D02*
X3788Y1094D01*
X2693Y1093D02*
X2732Y1093D01*
X2753Y1093D02*
X2790Y1093D01*
X3691Y1093D02*
X3729Y1093D01*
X3750Y1093D02*
X3787Y1093D01*
X2694Y1092D02*
X2733Y1092D01*
X2752Y1092D02*
X2789Y1092D01*
X3691Y1092D02*
X3730Y1092D01*
X3749Y1092D02*
X3787Y1092D01*
X2694Y1091D02*
X2735Y1091D01*
X2750Y1091D02*
X2789Y1091D01*
X3692Y1091D02*
X3732Y1091D01*
X3747Y1091D02*
X3786Y1091D01*
X2695Y1090D02*
X2737Y1090D01*
X2747Y1090D02*
X2788Y1090D01*
X3693Y1090D02*
X3734Y1090D01*
X3744Y1090D02*
X3786Y1090D01*
X2696Y1089D02*
X2787Y1089D01*
X3694Y1089D02*
X3785Y1089D01*
X2697Y1088D02*
X2786Y1088D01*
X3694Y1088D02*
X3784Y1088D01*
X2698Y1087D02*
X2786Y1087D01*
X3695Y1087D02*
X3783Y1087D01*
X2699Y1086D02*
X2784Y1086D01*
X3696Y1086D02*
X3782Y1086D01*
X2700Y1085D02*
X2783Y1085D01*
X3698Y1085D02*
X3781Y1085D01*
X2701Y1084D02*
X2782Y1084D01*
X3699Y1084D02*
X3780Y1084D01*
X2703Y1083D02*
X2780Y1083D01*
X3701Y1083D02*
X3778Y1083D01*
X2705Y1082D02*
X2779Y1082D01*
X3702Y1082D02*
X3776Y1082D01*
X2707Y1081D02*
X2776Y1081D01*
X3705Y1081D02*
X3774Y1081D01*
X2710Y1080D02*
X2773Y1080D01*
X3708Y1080D02*
X3771Y1080D01*
X2713Y1031D02*
X2771Y1031D01*
X3710Y1031D02*
X3768Y1031D01*
X2708Y1030D02*
X2775Y1030D01*
X3706Y1030D02*
X3773Y1030D01*
X2706Y1029D02*
X2778Y1029D01*
X3703Y1029D02*
X3775Y1029D01*
X2704Y1028D02*
X2780Y1028D01*
X3701Y1028D02*
X3777Y1028D01*
X2702Y1027D02*
X2781Y1027D01*
X3700Y1027D02*
X3779Y1027D01*
X2701Y1026D02*
X2783Y1026D01*
X3698Y1026D02*
X3780Y1026D01*
X2699Y1025D02*
X2784Y1025D01*
X3697Y1025D02*
X3781Y1025D01*
X2698Y1024D02*
X2785Y1024D01*
X3696Y1024D02*
X3783Y1024D01*
X2697Y1023D02*
X2786Y1023D01*
X3695Y1023D02*
X3784Y1023D01*
X2696Y1022D02*
X2787Y1022D01*
X3694Y1022D02*
X3784Y1022D01*
X2696Y1021D02*
X2739Y1021D01*
X2746Y1021D02*
X2788Y1021D01*
X3693Y1021D02*
X3736Y1021D01*
X3743Y1021D02*
X3785Y1021D01*
X2695Y1020D02*
X2736Y1020D01*
X2749Y1020D02*
X2789Y1020D01*
X3692Y1020D02*
X3732Y1020D01*
X3746Y1020D02*
X3786Y1020D01*
X2694Y1019D02*
X2734Y1019D01*
X2751Y1019D02*
X2789Y1019D01*
X3692Y1019D02*
X3731Y1019D01*
X3748Y1019D02*
X3787Y1019D01*
X2694Y1018D02*
X2732Y1018D01*
X2753Y1018D02*
X2790Y1018D01*
X3691Y1018D02*
X3729Y1018D01*
X3749Y1018D02*
X3787Y1018D01*
X2693Y1017D02*
X2731Y1017D01*
X2754Y1017D02*
X2790Y1017D01*
X3691Y1017D02*
X3728Y1017D01*
X3751Y1017D02*
X3788Y1017D01*
X2693Y1016D02*
X2730Y1016D01*
X2755Y1016D02*
X2791Y1016D01*
X3690Y1016D02*
X3727Y1016D01*
X3752Y1016D02*
X3788Y1016D01*
X2692Y1015D02*
X2729Y1015D01*
X2756Y1015D02*
X2791Y1015D01*
X3690Y1015D02*
X3726Y1015D01*
X3752Y1015D02*
X3789Y1015D01*
X2692Y1014D02*
X2729Y1014D01*
X2756Y1014D02*
X2792Y1014D01*
X3689Y1014D02*
X3725Y1014D01*
X3753Y1014D02*
X3789Y1014D01*
X2691Y1013D02*
X2728Y1013D01*
X2757Y1013D02*
X2792Y1013D01*
X3689Y1013D02*
X3725Y1013D01*
X3754Y1013D02*
X3790Y1013D01*
X2691Y1012D02*
X2727Y1012D01*
X2757Y1012D02*
X2792Y1012D01*
X3689Y1012D02*
X3724Y1012D01*
X3754Y1012D02*
X3790Y1012D01*
X2691Y1011D02*
X2727Y1011D01*
X2758Y1011D02*
X2792Y1011D01*
X3688Y1011D02*
X3724Y1011D01*
X3755Y1011D02*
X3790Y1011D01*
X2691Y1010D02*
X2727Y1010D01*
X2758Y1010D02*
X2793Y1010D01*
X3688Y1010D02*
X3723Y1010D01*
X3755Y1010D02*
X3790Y1010D01*
X2691Y1009D02*
X2726Y1009D01*
X2758Y1009D02*
X2793Y1009D01*
X3688Y1009D02*
X3723Y1009D01*
X3755Y1009D02*
X3790Y1009D01*
X2690Y1008D02*
X2726Y1008D01*
X2759Y1008D02*
X2793Y1008D01*
X3688Y1008D02*
X3723Y1008D01*
X3755Y1008D02*
X3791Y1008D01*
X2690Y1007D02*
X2726Y1007D01*
X2759Y1007D02*
X2793Y1007D01*
X3688Y1007D02*
X3723Y1007D01*
X3756Y1007D02*
X3791Y1007D01*
X2690Y1006D02*
X2726Y1006D01*
X2759Y1006D02*
X2793Y1006D01*
X3688Y1006D02*
X3723Y1006D01*
X3756Y1006D02*
X3791Y1006D01*
X2690Y1005D02*
X2726Y1005D01*
X2759Y1005D02*
X2793Y1005D01*
X3688Y1005D02*
X3723Y1005D01*
X3756Y1005D02*
X3791Y1005D01*
X2690Y1004D02*
X2726Y1004D01*
X2759Y1004D02*
X2793Y1004D01*
X3688Y1004D02*
X3723Y1004D01*
X3756Y1004D02*
X3791Y1004D01*
X2690Y1003D02*
X2726Y1003D01*
X2759Y1003D02*
X2793Y1003D01*
X3688Y1003D02*
X3723Y1003D01*
X3755Y1003D02*
X3791Y1003D01*
X2690Y1002D02*
X2726Y1002D01*
X2759Y1002D02*
X2793Y1002D01*
X3688Y1002D02*
X3723Y1002D01*
X3755Y1002D02*
X3790Y1002D01*
X2691Y1001D02*
X2727Y1001D01*
X2758Y1001D02*
X2793Y1001D01*
X3688Y1001D02*
X3723Y1001D01*
X3755Y1001D02*
X3790Y1001D01*
X2691Y1000D02*
X2727Y1000D01*
X2758Y1000D02*
X2793Y1000D01*
X3688Y1000D02*
X3724Y1000D01*
X3755Y1000D02*
X3790Y1000D01*
X2691Y999D02*
X2727Y999D01*
X2758Y999D02*
X2792Y999D01*
X3689Y999D02*
X3724Y999D01*
X3754Y999D02*
X3790Y999D01*
X2691Y998D02*
X2728Y998D01*
X2757Y998D02*
X2792Y998D01*
X3689Y998D02*
X3725Y998D01*
X3754Y998D02*
X3790Y998D01*
X2692Y997D02*
X2728Y997D01*
X2757Y997D02*
X2792Y997D01*
X3689Y997D02*
X3725Y997D01*
X3753Y997D02*
X3789Y997D01*
X2692Y996D02*
X2729Y996D01*
X2756Y996D02*
X2791Y996D01*
X3689Y996D02*
X3726Y996D01*
X3753Y996D02*
X3789Y996D01*
X2692Y995D02*
X2730Y995D01*
X2755Y995D02*
X2791Y995D01*
X3690Y995D02*
X3727Y995D01*
X3752Y995D02*
X3789Y995D01*
X2693Y994D02*
X2731Y994D01*
X2754Y994D02*
X2790Y994D01*
X3690Y994D02*
X3727Y994D01*
X3751Y994D02*
X3788Y994D01*
X2693Y993D02*
X2732Y993D01*
X2753Y993D02*
X2790Y993D01*
X3691Y993D02*
X3729Y993D01*
X3750Y993D02*
X3787Y993D01*
X2694Y992D02*
X2733Y992D01*
X2752Y992D02*
X2789Y992D01*
X3691Y992D02*
X3730Y992D01*
X3748Y992D02*
X3787Y992D01*
X2695Y991D02*
X2735Y991D01*
X2750Y991D02*
X2789Y991D01*
X3692Y991D02*
X3732Y991D01*
X3747Y991D02*
X3786Y991D01*
X2695Y990D02*
X2738Y990D01*
X2747Y990D02*
X2788Y990D01*
X3693Y990D02*
X3734Y990D01*
X3744Y990D02*
X3786Y990D01*
X2696Y989D02*
X2787Y989D01*
X3694Y989D02*
X3785Y989D01*
X2697Y988D02*
X2786Y988D01*
X3694Y988D02*
X3784Y988D01*
X2698Y987D02*
X2786Y987D01*
X3695Y987D02*
X3783Y987D01*
X2699Y986D02*
X2784Y986D01*
X3696Y986D02*
X3782Y986D01*
X2700Y985D02*
X2783Y985D01*
X3698Y985D02*
X3781Y985D01*
X2701Y984D02*
X2782Y984D01*
X3699Y984D02*
X3780Y984D01*
X2703Y983D02*
X2780Y983D01*
X3701Y983D02*
X3778Y983D01*
X2705Y982D02*
X2779Y982D01*
X3702Y982D02*
X3776Y982D01*
X2707Y981D02*
X2776Y981D01*
X3705Y981D02*
X3774Y981D01*
X2710Y980D02*
X2773Y980D01*
X3708Y980D02*
X3771Y980D01*
X2713Y931D02*
X2771Y931D01*
X3710Y931D02*
X3768Y931D01*
X2708Y930D02*
X2775Y930D01*
X3706Y930D02*
X3773Y930D01*
X2706Y929D02*
X2778Y929D01*
X3703Y929D02*
X3775Y929D01*
X2704Y928D02*
X2780Y928D01*
X3701Y928D02*
X3777Y928D01*
X2702Y927D02*
X2781Y927D01*
X3700Y927D02*
X3779Y927D01*
X2701Y926D02*
X2783Y926D01*
X3698Y926D02*
X3780Y926D01*
X2699Y925D02*
X2784Y925D01*
X3697Y925D02*
X3781Y925D01*
X2698Y924D02*
X2785Y924D01*
X3696Y924D02*
X3783Y924D01*
X2697Y923D02*
X2786Y923D01*
X3695Y923D02*
X3784Y923D01*
X2696Y922D02*
X2787Y922D01*
X3694Y922D02*
X3784Y922D01*
X2696Y921D02*
X2739Y921D01*
X2746Y921D02*
X2788Y921D01*
X3693Y921D02*
X3736Y921D01*
X3743Y921D02*
X3785Y921D01*
X2695Y920D02*
X2736Y920D01*
X2749Y920D02*
X2789Y920D01*
X3692Y920D02*
X3732Y920D01*
X3746Y920D02*
X3786Y920D01*
X2694Y919D02*
X2734Y919D01*
X2751Y919D02*
X2789Y919D01*
X3692Y919D02*
X3731Y919D01*
X3748Y919D02*
X3787Y919D01*
X2694Y918D02*
X2732Y918D01*
X2753Y918D02*
X2790Y918D01*
X3691Y918D02*
X3729Y918D01*
X3749Y918D02*
X3787Y918D01*
X2693Y917D02*
X2731Y917D01*
X2754Y917D02*
X2790Y917D01*
X3691Y917D02*
X3728Y917D01*
X3751Y917D02*
X3788Y917D01*
X2693Y916D02*
X2730Y916D01*
X2755Y916D02*
X2791Y916D01*
X3690Y916D02*
X3727Y916D01*
X3752Y916D02*
X3788Y916D01*
X2692Y915D02*
X2729Y915D01*
X2756Y915D02*
X2791Y915D01*
X3690Y915D02*
X3726Y915D01*
X3752Y915D02*
X3789Y915D01*
X2692Y914D02*
X2729Y914D01*
X2756Y914D02*
X2792Y914D01*
X3689Y914D02*
X3725Y914D01*
X3753Y914D02*
X3789Y914D01*
X2691Y913D02*
X2728Y913D01*
X2757Y913D02*
X2792Y913D01*
X3689Y913D02*
X3725Y913D01*
X3754Y913D02*
X3790Y913D01*
X2691Y912D02*
X2727Y912D01*
X2757Y912D02*
X2792Y912D01*
X3689Y912D02*
X3724Y912D01*
X3754Y912D02*
X3790Y912D01*
X2691Y911D02*
X2727Y911D01*
X2758Y911D02*
X2792Y911D01*
X3688Y911D02*
X3724Y911D01*
X3755Y911D02*
X3790Y911D01*
X2691Y910D02*
X2727Y910D01*
X2758Y910D02*
X2793Y910D01*
X3688Y910D02*
X3723Y910D01*
X3755Y910D02*
X3790Y910D01*
X2691Y909D02*
X2726Y909D01*
X2758Y909D02*
X2793Y909D01*
X3688Y909D02*
X3723Y909D01*
X3755Y909D02*
X3790Y909D01*
X2690Y908D02*
X2726Y908D01*
X2759Y908D02*
X2793Y908D01*
X3688Y908D02*
X3723Y908D01*
X3755Y908D02*
X3791Y908D01*
X2690Y907D02*
X2726Y907D01*
X2759Y907D02*
X2793Y907D01*
X3688Y907D02*
X3723Y907D01*
X3756Y907D02*
X3791Y907D01*
X2690Y906D02*
X2726Y906D01*
X2759Y906D02*
X2793Y906D01*
X3688Y906D02*
X3723Y906D01*
X3756Y906D02*
X3791Y906D01*
X2690Y905D02*
X2726Y905D01*
X2759Y905D02*
X2793Y905D01*
X3688Y905D02*
X3723Y905D01*
X3756Y905D02*
X3791Y905D01*
X2690Y904D02*
X2726Y904D01*
X2759Y904D02*
X2793Y904D01*
X3688Y904D02*
X3723Y904D01*
X3756Y904D02*
X3791Y904D01*
X2690Y903D02*
X2726Y903D01*
X2759Y903D02*
X2793Y903D01*
X3688Y903D02*
X3723Y903D01*
X3755Y903D02*
X3791Y903D01*
X2690Y902D02*
X2726Y902D01*
X2759Y902D02*
X2793Y902D01*
X3688Y902D02*
X3723Y902D01*
X3755Y902D02*
X3790Y902D01*
X2691Y901D02*
X2727Y901D01*
X2758Y901D02*
X2793Y901D01*
X3688Y901D02*
X3723Y901D01*
X3755Y901D02*
X3790Y901D01*
X2691Y900D02*
X2727Y900D01*
X2758Y900D02*
X2793Y900D01*
X3688Y900D02*
X3724Y900D01*
X3755Y900D02*
X3790Y900D01*
X2691Y899D02*
X2727Y899D01*
X2758Y899D02*
X2792Y899D01*
X3689Y899D02*
X3724Y899D01*
X3754Y899D02*
X3790Y899D01*
X2691Y898D02*
X2728Y898D01*
X2757Y898D02*
X2792Y898D01*
X3689Y898D02*
X3725Y898D01*
X3754Y898D02*
X3790Y898D01*
X2692Y897D02*
X2728Y897D01*
X2757Y897D02*
X2792Y897D01*
X3689Y897D02*
X3725Y897D01*
X3753Y897D02*
X3789Y897D01*
X2692Y896D02*
X2729Y896D01*
X2756Y896D02*
X2791Y896D01*
X3689Y896D02*
X3726Y896D01*
X3753Y896D02*
X3789Y896D01*
X2692Y895D02*
X2730Y895D01*
X2755Y895D02*
X2791Y895D01*
X3690Y895D02*
X3727Y895D01*
X3752Y895D02*
X3789Y895D01*
X2693Y894D02*
X2731Y894D01*
X2754Y894D02*
X2790Y894D01*
X3690Y894D02*
X3727Y894D01*
X3751Y894D02*
X3788Y894D01*
X2693Y893D02*
X2732Y893D01*
X2753Y893D02*
X2790Y893D01*
X3691Y893D02*
X3729Y893D01*
X3750Y893D02*
X3787Y893D01*
X2694Y892D02*
X2733Y892D01*
X2752Y892D02*
X2789Y892D01*
X3691Y892D02*
X3730Y892D01*
X3748Y892D02*
X3787Y892D01*
X2695Y891D02*
X2735Y891D01*
X2750Y891D02*
X2789Y891D01*
X3692Y891D02*
X3732Y891D01*
X3747Y891D02*
X3786Y891D01*
X2695Y890D02*
X2738Y890D01*
X2747Y890D02*
X2788Y890D01*
X3693Y890D02*
X3734Y890D01*
X3744Y890D02*
X3786Y890D01*
X2696Y889D02*
X2787Y889D01*
X3694Y889D02*
X3785Y889D01*
X2697Y888D02*
X2786Y888D01*
X3694Y888D02*
X3784Y888D01*
X2698Y887D02*
X2786Y887D01*
X3695Y887D02*
X3783Y887D01*
X2699Y886D02*
X2784Y886D01*
X3696Y886D02*
X3782Y886D01*
X2700Y885D02*
X2783Y885D01*
X3698Y885D02*
X3781Y885D01*
X2701Y884D02*
X2782Y884D01*
X3699Y884D02*
X3780Y884D01*
X2703Y883D02*
X2780Y883D01*
X3701Y883D02*
X3778Y883D01*
X2705Y882D02*
X2779Y882D01*
X3702Y882D02*
X3776Y882D01*
X2707Y881D02*
X2776Y881D01*
X3705Y881D02*
X3774Y881D01*
X2710Y880D02*
X2773Y880D01*
X3708Y880D02*
X3771Y880D01*
X2713Y831D02*
X2771Y831D01*
X3711Y831D02*
X3769Y831D01*
X2708Y830D02*
X2775Y830D01*
X3707Y830D02*
X3774Y830D01*
X2706Y829D02*
X2778Y829D01*
X3704Y829D02*
X3776Y829D01*
X2704Y828D02*
X2780Y828D01*
X3702Y828D02*
X3778Y828D01*
X2702Y827D02*
X2781Y827D01*
X3701Y827D02*
X3780Y827D01*
X2701Y826D02*
X2783Y826D01*
X3699Y826D02*
X3781Y826D01*
X2699Y825D02*
X2784Y825D01*
X3698Y825D02*
X3782Y825D01*
X2698Y824D02*
X2785Y824D01*
X3697Y824D02*
X3784Y824D01*
X2697Y823D02*
X2786Y823D01*
X3696Y823D02*
X3785Y823D01*
X2696Y822D02*
X2787Y822D01*
X3695Y822D02*
X3785Y822D01*
X2696Y821D02*
X2739Y821D01*
X2746Y821D02*
X2788Y821D01*
X3694Y821D02*
X3737Y821D01*
X3744Y821D02*
X3786Y821D01*
X2695Y820D02*
X2736Y820D01*
X2749Y820D02*
X2789Y820D01*
X3693Y820D02*
X3733Y820D01*
X3747Y820D02*
X3787Y820D01*
X2694Y819D02*
X2734Y819D01*
X2751Y819D02*
X2789Y819D01*
X3693Y819D02*
X3732Y819D01*
X3749Y819D02*
X3788Y819D01*
X2694Y818D02*
X2732Y818D01*
X2753Y818D02*
X2790Y818D01*
X3692Y818D02*
X3730Y818D01*
X3750Y818D02*
X3788Y818D01*
X2693Y817D02*
X2731Y817D01*
X2754Y817D02*
X2790Y817D01*
X3692Y817D02*
X3729Y817D01*
X3752Y817D02*
X3789Y817D01*
X2693Y816D02*
X2730Y816D01*
X2755Y816D02*
X2791Y816D01*
X3691Y816D02*
X3728Y816D01*
X3753Y816D02*
X3789Y816D01*
X2692Y815D02*
X2729Y815D01*
X2756Y815D02*
X2791Y815D01*
X3691Y815D02*
X3727Y815D01*
X3753Y815D02*
X3790Y815D01*
X2692Y814D02*
X2729Y814D01*
X2756Y814D02*
X2792Y814D01*
X3690Y814D02*
X3726Y814D01*
X3754Y814D02*
X3790Y814D01*
X2691Y813D02*
X2728Y813D01*
X2757Y813D02*
X2792Y813D01*
X3690Y813D02*
X3726Y813D01*
X3755Y813D02*
X3791Y813D01*
X2691Y812D02*
X2727Y812D01*
X2757Y812D02*
X2792Y812D01*
X3690Y812D02*
X3725Y812D01*
X3755Y812D02*
X3791Y812D01*
X2691Y811D02*
X2727Y811D01*
X2758Y811D02*
X2792Y811D01*
X3689Y811D02*
X3725Y811D01*
X3756Y811D02*
X3791Y811D01*
X2691Y810D02*
X2727Y810D01*
X2758Y810D02*
X2793Y810D01*
X3689Y810D02*
X3725Y810D01*
X3756Y810D02*
X3791Y810D01*
X2691Y809D02*
X2726Y809D01*
X2758Y809D02*
X2793Y809D01*
X3689Y809D02*
X3724Y809D01*
X3756Y809D02*
X3791Y809D01*
X2690Y808D02*
X2726Y808D01*
X2759Y808D02*
X2793Y808D01*
X3689Y808D02*
X3724Y808D01*
X3756Y808D02*
X3792Y808D01*
X2690Y807D02*
X2726Y807D01*
X2759Y807D02*
X2793Y807D01*
X3689Y807D02*
X3724Y807D01*
X3757Y807D02*
X3792Y807D01*
X2690Y806D02*
X2726Y806D01*
X2759Y806D02*
X2793Y806D01*
X3689Y806D02*
X3724Y806D01*
X3757Y806D02*
X3792Y806D01*
X2690Y805D02*
X2726Y805D01*
X2759Y805D02*
X2793Y805D01*
X3689Y805D02*
X3724Y805D01*
X3757Y805D02*
X3792Y805D01*
X2690Y804D02*
X2726Y804D01*
X2759Y804D02*
X2793Y804D01*
X3689Y804D02*
X3724Y804D01*
X3757Y804D02*
X3792Y804D01*
X2690Y803D02*
X2726Y803D01*
X2759Y803D02*
X2793Y803D01*
X3689Y803D02*
X3724Y803D01*
X3756Y803D02*
X3792Y803D01*
X2690Y802D02*
X2726Y802D01*
X2759Y802D02*
X2793Y802D01*
X3689Y802D02*
X3724Y802D01*
X3756Y802D02*
X3791Y802D01*
X2691Y801D02*
X2727Y801D01*
X2758Y801D02*
X2793Y801D01*
X3689Y801D02*
X3724Y801D01*
X3756Y801D02*
X3791Y801D01*
X2691Y800D02*
X2727Y800D01*
X2758Y800D02*
X2793Y800D01*
X3689Y800D02*
X3725Y800D01*
X3756Y800D02*
X3791Y800D01*
X2691Y799D02*
X2727Y799D01*
X2758Y799D02*
X2792Y799D01*
X3690Y799D02*
X3725Y799D01*
X3755Y799D02*
X3791Y799D01*
X2691Y798D02*
X2728Y798D01*
X2757Y798D02*
X2792Y798D01*
X3690Y798D02*
X3726Y798D01*
X3755Y798D02*
X3791Y798D01*
X2692Y797D02*
X2728Y797D01*
X2757Y797D02*
X2792Y797D01*
X3690Y797D02*
X3726Y797D01*
X3754Y797D02*
X3790Y797D01*
X2692Y796D02*
X2729Y796D01*
X2756Y796D02*
X2791Y796D01*
X3690Y796D02*
X3727Y796D01*
X3754Y796D02*
X3790Y796D01*
X2692Y795D02*
X2730Y795D01*
X2755Y795D02*
X2791Y795D01*
X3691Y795D02*
X3728Y795D01*
X3753Y795D02*
X3790Y795D01*
X2693Y794D02*
X2731Y794D01*
X2754Y794D02*
X2790Y794D01*
X3691Y794D02*
X3728Y794D01*
X3752Y794D02*
X3789Y794D01*
X2693Y793D02*
X2732Y793D01*
X2753Y793D02*
X2790Y793D01*
X3692Y793D02*
X3730Y793D01*
X3751Y793D02*
X3789Y793D01*
X2694Y792D02*
X2733Y792D01*
X2752Y792D02*
X2789Y792D01*
X3693Y792D02*
X3731Y792D01*
X3749Y792D02*
X3788Y792D01*
X2695Y791D02*
X2735Y791D01*
X2750Y791D02*
X2789Y791D01*
X3693Y791D02*
X3733Y791D01*
X3748Y791D02*
X3787Y791D01*
X2695Y790D02*
X2738Y790D01*
X2747Y790D02*
X2788Y790D01*
X3694Y790D02*
X3735Y790D01*
X3745Y790D02*
X3787Y790D01*
X2696Y789D02*
X2787Y789D01*
X3695Y789D02*
X3786Y789D01*
X2697Y788D02*
X2786Y788D01*
X3695Y788D02*
X3785Y788D01*
X2698Y787D02*
X2786Y787D01*
X3696Y787D02*
X3784Y787D01*
X2699Y786D02*
X2784Y786D01*
X3697Y786D02*
X3783Y786D01*
X2700Y785D02*
X2783Y785D01*
X3699Y785D02*
X3782Y785D01*
X2701Y784D02*
X2782Y784D01*
X3700Y784D02*
X3781Y784D01*
X2703Y783D02*
X2780Y783D01*
X3702Y783D02*
X3779Y783D01*
X2705Y782D02*
X2779Y782D01*
X3703Y782D02*
X3777Y782D01*
X2707Y781D02*
X2776Y781D01*
X3706Y781D02*
X3775Y781D01*
X2710Y780D02*
X2773Y780D01*
X3709Y780D02*
X3772Y780D01*
X2713Y731D02*
X2771Y731D01*
X3710Y731D02*
X3768Y731D01*
X2708Y730D02*
X2775Y730D01*
X3706Y730D02*
X3773Y730D01*
X2706Y729D02*
X2778Y729D01*
X3703Y729D02*
X3775Y729D01*
X2704Y728D02*
X2780Y728D01*
X3701Y728D02*
X3777Y728D01*
X2702Y727D02*
X2781Y727D01*
X3700Y727D02*
X3779Y727D01*
X2701Y726D02*
X2783Y726D01*
X3698Y726D02*
X3780Y726D01*
X2699Y725D02*
X2784Y725D01*
X3697Y725D02*
X3781Y725D01*
X2698Y724D02*
X2785Y724D01*
X3696Y724D02*
X3783Y724D01*
X2697Y723D02*
X2786Y723D01*
X3695Y723D02*
X3784Y723D01*
X2696Y722D02*
X2787Y722D01*
X3694Y722D02*
X3784Y722D01*
X2696Y721D02*
X2739Y721D01*
X2746Y721D02*
X2788Y721D01*
X3693Y721D02*
X3735Y721D01*
X3743Y721D02*
X3785Y721D01*
X2695Y720D02*
X2735Y720D01*
X2750Y720D02*
X2789Y720D01*
X3692Y720D02*
X3732Y720D01*
X3746Y720D02*
X3786Y720D01*
X2694Y719D02*
X2733Y719D01*
X2751Y719D02*
X2789Y719D01*
X3692Y719D02*
X3730Y719D01*
X3748Y719D02*
X3787Y719D01*
X2694Y718D02*
X2732Y718D01*
X2753Y718D02*
X2790Y718D01*
X3691Y718D02*
X3729Y718D01*
X3750Y718D02*
X3787Y718D01*
X2693Y717D02*
X2731Y717D01*
X2754Y717D02*
X2790Y717D01*
X3691Y717D02*
X3727Y717D01*
X3751Y717D02*
X3788Y717D01*
X2693Y716D02*
X2730Y716D01*
X2755Y716D02*
X2791Y716D01*
X3690Y716D02*
X3727Y716D01*
X3752Y716D02*
X3788Y716D01*
X2692Y715D02*
X2729Y715D01*
X2756Y715D02*
X2791Y715D01*
X3690Y715D02*
X3726Y715D01*
X3753Y715D02*
X3789Y715D01*
X2692Y714D02*
X2728Y714D01*
X2757Y714D02*
X2792Y714D01*
X3689Y714D02*
X3725Y714D01*
X3753Y714D02*
X3789Y714D01*
X2691Y713D02*
X2728Y713D01*
X2757Y713D02*
X2792Y713D01*
X3689Y713D02*
X3724Y713D01*
X3754Y713D02*
X3790Y713D01*
X2691Y712D02*
X2727Y712D01*
X2758Y712D02*
X2792Y712D01*
X3689Y712D02*
X3724Y712D01*
X3755Y712D02*
X3790Y712D01*
X2691Y711D02*
X2727Y711D01*
X2758Y711D02*
X2792Y711D01*
X3688Y711D02*
X3723Y711D01*
X3755Y711D02*
X3790Y711D01*
X2691Y710D02*
X2726Y710D01*
X2758Y710D02*
X2793Y710D01*
X3688Y710D02*
X3723Y710D01*
X3755Y710D02*
X3790Y710D01*
X2690Y709D02*
X2726Y709D01*
X2759Y709D02*
X2793Y709D01*
X3688Y709D02*
X3723Y709D01*
X3756Y709D02*
X3790Y709D01*
X2690Y708D02*
X2726Y708D01*
X2759Y708D02*
X2793Y708D01*
X3688Y708D02*
X3723Y708D01*
X3756Y708D02*
X3791Y708D01*
X2690Y707D02*
X2726Y707D01*
X2759Y707D02*
X2793Y707D01*
X3688Y707D02*
X3722Y707D01*
X3756Y707D02*
X3791Y707D01*
X2690Y706D02*
X2726Y706D01*
X2759Y706D02*
X2793Y706D01*
X3688Y706D02*
X3722Y706D01*
X3756Y706D02*
X3791Y706D01*
X2690Y705D02*
X2726Y705D01*
X2759Y705D02*
X2793Y705D01*
X3688Y705D02*
X3722Y705D01*
X3756Y705D02*
X3791Y705D01*
X2690Y704D02*
X2726Y704D01*
X2759Y704D02*
X2793Y704D01*
X3688Y704D02*
X3722Y704D01*
X3756Y704D02*
X3791Y704D01*
X2690Y703D02*
X2726Y703D01*
X2759Y703D02*
X2793Y703D01*
X3688Y703D02*
X3723Y703D01*
X3756Y703D02*
X3791Y703D01*
X2690Y702D02*
X2726Y702D01*
X2759Y702D02*
X2793Y702D01*
X3688Y702D02*
X3723Y702D01*
X3756Y702D02*
X3790Y702D01*
X2691Y701D02*
X2726Y701D01*
X2759Y701D02*
X2793Y701D01*
X3688Y701D02*
X3723Y701D01*
X3755Y701D02*
X3790Y701D01*
X2691Y700D02*
X2727Y700D01*
X2758Y700D02*
X2793Y700D01*
X3688Y700D02*
X3723Y700D01*
X3755Y700D02*
X3790Y700D01*
X2691Y699D02*
X2727Y699D01*
X2758Y699D02*
X2792Y699D01*
X3689Y699D02*
X3724Y699D01*
X3755Y699D02*
X3790Y699D01*
X2691Y698D02*
X2727Y698D01*
X2757Y698D02*
X2792Y698D01*
X3689Y698D02*
X3724Y698D01*
X3754Y698D02*
X3790Y698D01*
X2692Y697D02*
X2728Y697D01*
X2757Y697D02*
X2792Y697D01*
X3689Y697D02*
X3725Y697D01*
X3754Y697D02*
X3789Y697D01*
X2692Y696D02*
X2729Y696D01*
X2756Y696D02*
X2791Y696D01*
X3689Y696D02*
X3725Y696D01*
X3753Y696D02*
X3789Y696D01*
X2692Y695D02*
X2729Y695D01*
X2755Y695D02*
X2791Y695D01*
X3690Y695D02*
X3726Y695D01*
X3752Y695D02*
X3789Y695D01*
X2693Y694D02*
X2730Y694D01*
X2754Y694D02*
X2790Y694D01*
X3690Y694D02*
X3727Y694D01*
X3751Y694D02*
X3788Y694D01*
X2693Y693D02*
X2731Y693D01*
X2753Y693D02*
X2790Y693D01*
X3691Y693D02*
X3728Y693D01*
X3750Y693D02*
X3787Y693D01*
X2694Y692D02*
X2733Y692D01*
X2752Y692D02*
X2789Y692D01*
X3691Y692D02*
X3730Y692D01*
X3749Y692D02*
X3787Y692D01*
X2694Y691D02*
X2735Y691D01*
X2750Y691D02*
X2789Y691D01*
X3692Y691D02*
X3731Y691D01*
X3747Y691D02*
X3786Y691D01*
X2695Y690D02*
X2737Y690D01*
X2748Y690D02*
X2788Y690D01*
X3693Y690D02*
X3734Y690D01*
X3744Y690D02*
X3786Y690D01*
X2696Y689D02*
X2787Y689D01*
X3694Y689D02*
X3785Y689D01*
X2697Y688D02*
X2786Y688D01*
X3694Y688D02*
X3784Y688D01*
X2698Y687D02*
X2786Y687D01*
X3695Y687D02*
X3783Y687D01*
X2699Y686D02*
X2784Y686D01*
X3696Y686D02*
X3782Y686D01*
X2700Y685D02*
X2783Y685D01*
X3698Y685D02*
X3781Y685D01*
X2701Y684D02*
X2782Y684D01*
X3699Y684D02*
X3780Y684D01*
X2703Y683D02*
X2780Y683D01*
X3701Y683D02*
X3778Y683D01*
X2705Y682D02*
X2779Y682D01*
X3702Y682D02*
X3776Y682D01*
X2707Y681D02*
X2776Y681D01*
X3705Y681D02*
X3774Y681D01*
X2710Y680D02*
X2773Y680D01*
X3708Y680D02*
X3771Y680D01*
X2713Y631D02*
X2771Y631D01*
X3710Y631D02*
X3768Y631D01*
X2708Y630D02*
X2775Y630D01*
X3706Y630D02*
X3773Y630D01*
X2706Y629D02*
X2778Y629D01*
X3703Y629D02*
X3775Y629D01*
X2704Y628D02*
X2780Y628D01*
X3701Y628D02*
X3777Y628D01*
X2702Y627D02*
X2781Y627D01*
X3700Y627D02*
X3779Y627D01*
X2701Y626D02*
X2783Y626D01*
X3698Y626D02*
X3780Y626D01*
X2699Y625D02*
X2784Y625D01*
X3697Y625D02*
X3781Y625D01*
X2698Y624D02*
X2785Y624D01*
X3696Y624D02*
X3783Y624D01*
X2697Y623D02*
X2786Y623D01*
X3695Y623D02*
X3784Y623D01*
X2696Y622D02*
X2787Y622D01*
X3694Y622D02*
X3784Y622D01*
X2696Y621D02*
X2739Y621D01*
X2746Y621D02*
X2788Y621D01*
X3693Y621D02*
X3735Y621D01*
X3743Y621D02*
X3785Y621D01*
X2695Y620D02*
X2735Y620D01*
X2749Y620D02*
X2789Y620D01*
X3692Y620D02*
X3732Y620D01*
X3746Y620D02*
X3786Y620D01*
X2694Y619D02*
X2734Y619D01*
X2751Y619D02*
X2789Y619D01*
X3692Y619D02*
X3730Y619D01*
X3748Y619D02*
X3787Y619D01*
X2694Y618D02*
X2732Y618D01*
X2753Y618D02*
X2790Y618D01*
X3691Y618D02*
X3729Y618D01*
X3750Y618D02*
X3787Y618D01*
X2693Y617D02*
X2731Y617D01*
X2754Y617D02*
X2790Y617D01*
X3691Y617D02*
X3728Y617D01*
X3751Y617D02*
X3788Y617D01*
X2693Y616D02*
X2730Y616D01*
X2755Y616D02*
X2791Y616D01*
X3690Y616D02*
X3727Y616D01*
X3752Y616D02*
X3788Y616D01*
X2692Y615D02*
X2729Y615D01*
X2756Y615D02*
X2791Y615D01*
X3690Y615D02*
X3726Y615D01*
X3753Y615D02*
X3789Y615D01*
X2692Y614D02*
X2728Y614D01*
X2757Y614D02*
X2792Y614D01*
X3689Y614D02*
X3725Y614D01*
X3753Y614D02*
X3789Y614D01*
X2691Y613D02*
X2728Y613D01*
X2757Y613D02*
X2792Y613D01*
X3689Y613D02*
X3725Y613D01*
X3754Y613D02*
X3790Y613D01*
X2691Y612D02*
X2727Y612D01*
X2758Y612D02*
X2792Y612D01*
X3689Y612D02*
X3724Y612D01*
X3754Y612D02*
X3790Y612D01*
X2691Y611D02*
X2727Y611D01*
X2758Y611D02*
X2793Y611D01*
X3688Y611D02*
X3724Y611D01*
X3755Y611D02*
X3790Y611D01*
X2691Y610D02*
X2726Y610D01*
X2758Y610D02*
X2793Y610D01*
X3688Y610D02*
X3723Y610D01*
X3755Y610D02*
X3790Y610D01*
X2690Y609D02*
X2726Y609D01*
X2759Y609D02*
X2793Y609D01*
X3688Y609D02*
X3723Y609D01*
X3755Y609D02*
X3790Y609D01*
X2690Y608D02*
X2726Y608D01*
X2759Y608D02*
X2793Y608D01*
X3688Y608D02*
X3723Y608D01*
X3756Y608D02*
X3791Y608D01*
X2690Y607D02*
X2726Y607D01*
X2759Y607D02*
X2793Y607D01*
X3688Y607D02*
X3723Y607D01*
X3756Y607D02*
X3791Y607D01*
X2690Y606D02*
X2726Y606D01*
X2759Y606D02*
X2793Y606D01*
X3688Y606D02*
X3723Y606D01*
X3756Y606D02*
X3791Y606D01*
X2690Y605D02*
X2726Y605D01*
X2759Y605D02*
X2793Y605D01*
X3688Y605D02*
X3723Y605D01*
X3756Y605D02*
X3791Y605D01*
X2690Y604D02*
X2726Y604D01*
X2759Y604D02*
X2793Y604D01*
X3688Y604D02*
X3723Y604D01*
X3756Y604D02*
X3791Y604D01*
X2690Y603D02*
X2726Y603D01*
X2759Y603D02*
X2793Y603D01*
X3688Y603D02*
X3723Y603D01*
X3756Y603D02*
X3791Y603D01*
X2690Y602D02*
X2726Y602D01*
X2759Y602D02*
X2793Y602D01*
X3688Y602D02*
X3723Y602D01*
X3755Y602D02*
X3790Y602D01*
X2691Y601D02*
X2726Y601D01*
X2759Y601D02*
X2793Y601D01*
X3688Y601D02*
X3723Y601D01*
X3755Y601D02*
X3790Y601D01*
X2691Y600D02*
X2727Y600D01*
X2758Y600D02*
X2793Y600D01*
X3688Y600D02*
X3723Y600D01*
X3755Y600D02*
X3790Y600D01*
X2691Y599D02*
X2727Y599D01*
X2758Y599D02*
X2792Y599D01*
X3689Y599D02*
X3724Y599D01*
X3755Y599D02*
X3790Y599D01*
X2691Y598D02*
X2728Y598D01*
X2757Y598D02*
X2792Y598D01*
X3689Y598D02*
X3724Y598D01*
X3754Y598D02*
X3790Y598D01*
X2692Y597D02*
X2728Y597D01*
X2757Y597D02*
X2792Y597D01*
X3689Y597D02*
X3725Y597D01*
X3754Y597D02*
X3789Y597D01*
X2692Y596D02*
X2729Y596D01*
X2756Y596D02*
X2791Y596D01*
X3689Y596D02*
X3726Y596D01*
X3753Y596D02*
X3789Y596D01*
X2692Y595D02*
X2730Y595D01*
X2755Y595D02*
X2791Y595D01*
X3690Y595D02*
X3726Y595D01*
X3752Y595D02*
X3789Y595D01*
X2693Y594D02*
X2730Y594D01*
X2754Y594D02*
X2790Y594D01*
X3690Y594D02*
X3727Y594D01*
X3751Y594D02*
X3788Y594D01*
X2693Y593D02*
X2732Y593D01*
X2753Y593D02*
X2790Y593D01*
X3691Y593D02*
X3728Y593D01*
X3750Y593D02*
X3787Y593D01*
X2694Y592D02*
X2733Y592D01*
X2752Y592D02*
X2789Y592D01*
X3692Y592D02*
X3730Y592D01*
X3749Y592D02*
X3787Y592D01*
X2695Y591D02*
X2735Y591D01*
X2750Y591D02*
X2789Y591D01*
X3692Y591D02*
X3732Y591D01*
X3747Y591D02*
X3786Y591D01*
X2695Y590D02*
X2737Y590D01*
X2748Y590D02*
X2788Y590D01*
X3693Y590D02*
X3734Y590D01*
X3744Y590D02*
X3786Y590D01*
X2696Y589D02*
X2787Y589D01*
X3694Y589D02*
X3785Y589D01*
X2697Y588D02*
X2786Y588D01*
X3694Y588D02*
X3784Y588D01*
X2698Y587D02*
X2786Y587D01*
X3695Y587D02*
X3783Y587D01*
X2699Y586D02*
X2784Y586D01*
X3696Y586D02*
X3782Y586D01*
X2700Y585D02*
X2783Y585D01*
X3698Y585D02*
X3781Y585D01*
X2701Y584D02*
X2782Y584D01*
X3699Y584D02*
X3780Y584D01*
X2703Y583D02*
X2780Y583D01*
X3701Y583D02*
X3778Y583D01*
X2705Y582D02*
X2779Y582D01*
X3702Y582D02*
X3776Y582D01*
X2707Y581D02*
X2776Y581D01*
X3705Y581D02*
X3774Y581D01*
X2710Y580D02*
X2773Y580D01*
X3708Y580D02*
X3771Y580D01*
X2713Y531D02*
X2771Y531D01*
X3710Y531D02*
X3768Y531D01*
X2708Y530D02*
X2775Y530D01*
X3706Y530D02*
X3773Y530D01*
X2706Y529D02*
X2778Y529D01*
X3703Y529D02*
X3775Y529D01*
X2704Y528D02*
X2780Y528D01*
X3701Y528D02*
X3777Y528D01*
X2702Y527D02*
X2781Y527D01*
X3700Y527D02*
X3779Y527D01*
X2701Y526D02*
X2783Y526D01*
X3698Y526D02*
X3780Y526D01*
X2699Y525D02*
X2784Y525D01*
X3697Y525D02*
X3781Y525D01*
X2698Y524D02*
X2785Y524D01*
X3696Y524D02*
X3783Y524D01*
X2697Y523D02*
X2786Y523D01*
X3695Y523D02*
X3784Y523D01*
X2696Y522D02*
X2787Y522D01*
X3694Y522D02*
X3784Y522D01*
X2696Y521D02*
X2739Y521D01*
X2746Y521D02*
X2788Y521D01*
X3693Y521D02*
X3735Y521D01*
X3743Y521D02*
X3785Y521D01*
X2695Y520D02*
X2735Y520D01*
X2749Y520D02*
X2789Y520D01*
X3692Y520D02*
X3732Y520D01*
X3746Y520D02*
X3786Y520D01*
X2694Y519D02*
X2733Y519D01*
X2751Y519D02*
X2789Y519D01*
X3692Y519D02*
X3730Y519D01*
X3748Y519D02*
X3787Y519D01*
X2694Y518D02*
X2732Y518D01*
X2753Y518D02*
X2790Y518D01*
X3691Y518D02*
X3729Y518D01*
X3750Y518D02*
X3787Y518D01*
X2693Y517D02*
X2731Y517D01*
X2754Y517D02*
X2790Y517D01*
X3691Y517D02*
X3728Y517D01*
X3751Y517D02*
X3788Y517D01*
X2693Y516D02*
X2730Y516D01*
X2755Y516D02*
X2791Y516D01*
X3690Y516D02*
X3727Y516D01*
X3752Y516D02*
X3788Y516D01*
X2692Y515D02*
X2729Y515D01*
X2756Y515D02*
X2791Y515D01*
X3690Y515D02*
X3726Y515D01*
X3753Y515D02*
X3789Y515D01*
X2692Y514D02*
X2728Y514D01*
X2757Y514D02*
X2792Y514D01*
X3689Y514D02*
X3725Y514D01*
X3753Y514D02*
X3789Y514D01*
X2691Y513D02*
X2728Y513D01*
X2757Y513D02*
X2792Y513D01*
X3689Y513D02*
X3724Y513D01*
X3754Y513D02*
X3790Y513D01*
X2691Y512D02*
X2727Y512D01*
X2758Y512D02*
X2792Y512D01*
X3689Y512D02*
X3724Y512D01*
X3754Y512D02*
X3790Y512D01*
X2691Y511D02*
X2727Y511D01*
X2758Y511D02*
X2792Y511D01*
X3688Y511D02*
X3724Y511D01*
X3755Y511D02*
X3790Y511D01*
X2691Y510D02*
X2726Y510D01*
X2758Y510D02*
X2793Y510D01*
X3688Y510D02*
X3723Y510D01*
X3755Y510D02*
X3790Y510D01*
X2690Y509D02*
X2726Y509D01*
X2759Y509D02*
X2793Y509D01*
X3688Y509D02*
X3723Y509D01*
X3755Y509D02*
X3790Y509D01*
X2690Y508D02*
X2726Y508D01*
X2759Y508D02*
X2793Y508D01*
X3688Y508D02*
X3723Y508D01*
X3756Y508D02*
X3791Y508D01*
X2690Y507D02*
X2726Y507D01*
X2759Y507D02*
X2793Y507D01*
X3688Y507D02*
X3723Y507D01*
X3756Y507D02*
X3791Y507D01*
X2690Y506D02*
X2726Y506D01*
X2759Y506D02*
X2793Y506D01*
X3688Y506D02*
X3723Y506D01*
X3756Y506D02*
X3791Y506D01*
X2690Y505D02*
X2726Y505D01*
X2759Y505D02*
X2793Y505D01*
X3688Y505D02*
X3723Y505D01*
X3756Y505D02*
X3791Y505D01*
X2690Y504D02*
X2726Y504D01*
X2759Y504D02*
X2793Y504D01*
X3688Y504D02*
X3723Y504D01*
X3756Y504D02*
X3791Y504D01*
X2690Y503D02*
X2726Y503D01*
X2759Y503D02*
X2793Y503D01*
X3688Y503D02*
X3723Y503D01*
X3756Y503D02*
X3791Y503D01*
X2690Y502D02*
X2726Y502D01*
X2759Y502D02*
X2793Y502D01*
X3688Y502D02*
X3723Y502D01*
X3755Y502D02*
X3790Y502D01*
X2691Y501D02*
X2726Y501D01*
X2758Y501D02*
X2793Y501D01*
X3688Y501D02*
X3723Y501D01*
X3755Y501D02*
X3790Y501D01*
X2691Y500D02*
X2727Y500D01*
X2758Y500D02*
X2793Y500D01*
X3688Y500D02*
X3723Y500D01*
X3755Y500D02*
X3790Y500D01*
X2691Y499D02*
X2727Y499D01*
X2758Y499D02*
X2792Y499D01*
X3689Y499D02*
X3724Y499D01*
X3755Y499D02*
X3790Y499D01*
X2691Y498D02*
X2728Y498D01*
X2757Y498D02*
X2792Y498D01*
X3689Y498D02*
X3724Y498D01*
X3754Y498D02*
X3790Y498D01*
X2692Y497D02*
X2728Y497D01*
X2757Y497D02*
X2792Y497D01*
X3689Y497D02*
X3725Y497D01*
X3754Y497D02*
X3789Y497D01*
X2692Y496D02*
X2729Y496D01*
X2756Y496D02*
X2791Y496D01*
X3689Y496D02*
X3726Y496D01*
X3753Y496D02*
X3789Y496D01*
X2692Y495D02*
X2730Y495D01*
X2755Y495D02*
X2791Y495D01*
X3690Y495D02*
X3726Y495D01*
X3752Y495D02*
X3789Y495D01*
X2693Y494D02*
X2730Y494D01*
X2754Y494D02*
X2790Y494D01*
X3690Y494D02*
X3727Y494D01*
X3751Y494D02*
X3788Y494D01*
X2693Y493D02*
X2732Y493D01*
X2753Y493D02*
X2790Y493D01*
X3691Y493D02*
X3728Y493D01*
X3750Y493D02*
X3787Y493D01*
X2694Y492D02*
X2733Y492D01*
X2752Y492D02*
X2789Y492D01*
X3692Y492D02*
X3730Y492D01*
X3749Y492D02*
X3787Y492D01*
X2694Y491D02*
X2735Y491D01*
X2750Y491D02*
X2789Y491D01*
X3692Y491D02*
X3732Y491D01*
X3747Y491D02*
X3786Y491D01*
X2695Y490D02*
X2737Y490D01*
X2748Y490D02*
X2788Y490D01*
X3693Y490D02*
X3734Y490D01*
X3744Y490D02*
X3786Y490D01*
X2696Y489D02*
X2787Y489D01*
X3694Y489D02*
X3785Y489D01*
X2697Y488D02*
X2786Y488D01*
X3694Y488D02*
X3784Y488D01*
X2698Y487D02*
X2786Y487D01*
X3695Y487D02*
X3783Y487D01*
X2699Y486D02*
X2784Y486D01*
X3696Y486D02*
X3782Y486D01*
X2700Y485D02*
X2783Y485D01*
X3698Y485D02*
X3781Y485D01*
X2701Y484D02*
X2782Y484D01*
X3699Y484D02*
X3780Y484D01*
X2703Y483D02*
X2780Y483D01*
X3701Y483D02*
X3778Y483D01*
X2705Y482D02*
X2779Y482D01*
X3702Y482D02*
X3776Y482D01*
X2707Y481D02*
X2776Y481D01*
X3705Y481D02*
X3774Y481D01*
X2710Y480D02*
X2773Y480D01*
X3708Y480D02*
X3771Y480D01*
X2713Y431D02*
X2771Y431D01*
X3710Y431D02*
X3768Y431D01*
X2708Y430D02*
X2775Y430D01*
X3706Y430D02*
X3773Y430D01*
X2706Y429D02*
X2778Y429D01*
X3703Y429D02*
X3775Y429D01*
X2704Y428D02*
X2780Y428D01*
X3701Y428D02*
X3777Y428D01*
X2702Y427D02*
X2781Y427D01*
X3700Y427D02*
X3779Y427D01*
X2701Y426D02*
X2783Y426D01*
X3698Y426D02*
X3780Y426D01*
X2699Y425D02*
X2784Y425D01*
X3697Y425D02*
X3781Y425D01*
X2698Y424D02*
X2785Y424D01*
X3696Y424D02*
X3783Y424D01*
X2697Y423D02*
X2786Y423D01*
X3695Y423D02*
X3784Y423D01*
X2696Y422D02*
X2787Y422D01*
X3694Y422D02*
X3784Y422D01*
X2696Y421D02*
X2739Y421D01*
X2746Y421D02*
X2788Y421D01*
X3693Y421D02*
X3735Y421D01*
X3743Y421D02*
X3785Y421D01*
X2695Y420D02*
X2735Y420D01*
X2749Y420D02*
X2789Y420D01*
X3692Y420D02*
X3732Y420D01*
X3746Y420D02*
X3786Y420D01*
X2694Y419D02*
X2733Y419D01*
X2751Y419D02*
X2789Y419D01*
X3692Y419D02*
X3730Y419D01*
X3748Y419D02*
X3787Y419D01*
X2694Y418D02*
X2732Y418D01*
X2753Y418D02*
X2790Y418D01*
X3691Y418D02*
X3729Y418D01*
X3750Y418D02*
X3787Y418D01*
X2693Y417D02*
X2731Y417D01*
X2754Y417D02*
X2790Y417D01*
X3691Y417D02*
X3728Y417D01*
X3751Y417D02*
X3788Y417D01*
X2693Y416D02*
X2730Y416D01*
X2755Y416D02*
X2791Y416D01*
X3690Y416D02*
X3727Y416D01*
X3752Y416D02*
X3788Y416D01*
X2692Y415D02*
X2729Y415D01*
X2756Y415D02*
X2791Y415D01*
X3690Y415D02*
X3726Y415D01*
X3753Y415D02*
X3789Y415D01*
X2692Y414D02*
X2728Y414D01*
X2757Y414D02*
X2792Y414D01*
X3689Y414D02*
X3725Y414D01*
X3753Y414D02*
X3789Y414D01*
X2691Y413D02*
X2728Y413D01*
X2757Y413D02*
X2792Y413D01*
X3689Y413D02*
X3724Y413D01*
X3754Y413D02*
X3790Y413D01*
X2691Y412D02*
X2727Y412D01*
X2758Y412D02*
X2792Y412D01*
X3689Y412D02*
X3724Y412D01*
X3754Y412D02*
X3790Y412D01*
X2691Y411D02*
X2727Y411D01*
X2758Y411D02*
X2793Y411D01*
X3688Y411D02*
X3724Y411D01*
X3755Y411D02*
X3790Y411D01*
X2691Y410D02*
X2726Y410D01*
X2758Y410D02*
X2793Y410D01*
X3688Y410D02*
X3723Y410D01*
X3755Y410D02*
X3790Y410D01*
X2690Y409D02*
X2726Y409D01*
X2759Y409D02*
X2793Y409D01*
X3688Y409D02*
X3723Y409D01*
X3755Y409D02*
X3790Y409D01*
X2690Y408D02*
X2726Y408D01*
X2759Y408D02*
X2793Y408D01*
X3688Y408D02*
X3723Y408D01*
X3756Y408D02*
X3791Y408D01*
X2690Y407D02*
X2726Y407D01*
X2759Y407D02*
X2793Y407D01*
X3688Y407D02*
X3723Y407D01*
X3756Y407D02*
X3791Y407D01*
X2690Y406D02*
X2726Y406D01*
X2759Y406D02*
X2793Y406D01*
X3688Y406D02*
X3723Y406D01*
X3756Y406D02*
X3791Y406D01*
X2690Y405D02*
X2726Y405D01*
X2759Y405D02*
X2793Y405D01*
X3688Y405D02*
X3723Y405D01*
X3756Y405D02*
X3791Y405D01*
X2690Y404D02*
X2726Y404D01*
X2759Y404D02*
X2793Y404D01*
X3688Y404D02*
X3723Y404D01*
X3756Y404D02*
X3791Y404D01*
X2690Y403D02*
X2726Y403D01*
X2759Y403D02*
X2793Y403D01*
X3688Y403D02*
X3723Y403D01*
X3756Y403D02*
X3791Y403D01*
X2690Y402D02*
X2726Y402D01*
X2759Y402D02*
X2793Y402D01*
X3688Y402D02*
X3723Y402D01*
X3755Y402D02*
X3790Y402D01*
X2691Y401D02*
X2726Y401D01*
X2758Y401D02*
X2793Y401D01*
X3688Y401D02*
X3723Y401D01*
X3755Y401D02*
X3790Y401D01*
X2691Y400D02*
X2727Y400D01*
X2758Y400D02*
X2793Y400D01*
X3688Y400D02*
X3723Y400D01*
X3755Y400D02*
X3790Y400D01*
X2691Y399D02*
X2727Y399D01*
X2758Y399D02*
X2792Y399D01*
X3689Y399D02*
X3724Y399D01*
X3755Y399D02*
X3790Y399D01*
X2691Y398D02*
X2728Y398D01*
X2757Y398D02*
X2792Y398D01*
X3689Y398D02*
X3724Y398D01*
X3754Y398D02*
X3790Y398D01*
X2692Y397D02*
X2728Y397D01*
X2757Y397D02*
X2792Y397D01*
X3689Y397D02*
X3725Y397D01*
X3753Y397D02*
X3789Y397D01*
X2692Y396D02*
X2729Y396D01*
X2756Y396D02*
X2791Y396D01*
X3689Y396D02*
X3726Y396D01*
X3753Y396D02*
X3789Y396D01*
X2692Y395D02*
X2730Y395D01*
X2755Y395D02*
X2791Y395D01*
X3690Y395D02*
X3726Y395D01*
X3752Y395D02*
X3789Y395D01*
X2693Y394D02*
X2731Y394D01*
X2754Y394D02*
X2790Y394D01*
X3690Y394D02*
X3727Y394D01*
X3751Y394D02*
X3788Y394D01*
X2693Y393D02*
X2732Y393D01*
X2753Y393D02*
X2790Y393D01*
X3691Y393D02*
X3728Y393D01*
X3750Y393D02*
X3787Y393D01*
X2694Y392D02*
X2733Y392D01*
X2752Y392D02*
X2789Y392D01*
X3692Y392D02*
X3730Y392D01*
X3749Y392D02*
X3787Y392D01*
X2695Y391D02*
X2735Y391D01*
X2750Y391D02*
X2789Y391D01*
X3692Y391D02*
X3732Y391D01*
X3747Y391D02*
X3786Y391D01*
X2695Y390D02*
X2737Y390D01*
X2748Y390D02*
X2788Y390D01*
X3693Y390D02*
X3734Y390D01*
X3744Y390D02*
X3786Y390D01*
X2696Y389D02*
X2787Y389D01*
X3694Y389D02*
X3785Y389D01*
X2697Y388D02*
X2786Y388D01*
X3694Y388D02*
X3784Y388D01*
X2698Y387D02*
X2786Y387D01*
X3695Y387D02*
X3783Y387D01*
X2699Y386D02*
X2784Y386D01*
X3696Y386D02*
X3782Y386D01*
X2700Y385D02*
X2783Y385D01*
X3698Y385D02*
X3781Y385D01*
X2701Y384D02*
X2782Y384D01*
X3699Y384D02*
X3780Y384D01*
X2703Y383D02*
X2780Y383D01*
X3701Y383D02*
X3778Y383D01*
X2705Y382D02*
X2779Y382D01*
X3702Y382D02*
X3776Y382D01*
X2707Y381D02*
X2776Y381D01*
X3705Y381D02*
X3774Y381D01*
X2710Y380D02*
X2773Y380D01*
X3708Y380D02*
X3771Y380D01*
D02*
G04 End of Copper0*
M02*