G04 MADE WITH FRITZING*
G04 WWW.FRITZING.ORG*
G04 SINGLE SIDED*
G04 HOLES NOT PLATED*
G04 CONTOUR ON CENTER OF CONTOUR VECTOR*
%ASAXBY*%
%FSLAX23Y23*%
%MOIN*%
%OFA0B0*%
%SFA1.0B1.0*%
%ADD10C,0.085000*%
%ADD11C,0.062000*%
%ADD12C,0.077194*%
%ADD13C,0.104488*%
%ADD14C,0.089370*%
%ADD15C,0.088000*%
%ADD16C,0.055000*%
%ADD17C,0.135984*%
%ADD18R,0.085000X0.085000*%
%ADD19R,0.089370X0.089370*%
%ADD20R,0.001000X0.001000*%
%LNMASK0*%
G90*
G70*
G54D10*
X2441Y2105D03*
X2441Y1905D03*
G54D11*
X2741Y1805D03*
X2741Y1705D03*
X2741Y1605D03*
X2741Y1505D03*
X2741Y1405D03*
X2741Y1305D03*
X2741Y1205D03*
X2741Y1105D03*
X2741Y1005D03*
X2741Y905D03*
X2741Y805D03*
X2741Y705D03*
X2741Y605D03*
X2741Y505D03*
X2741Y405D03*
X3741Y405D03*
X3741Y505D03*
X3741Y605D03*
X3741Y705D03*
X3741Y805D03*
X3741Y905D03*
X3741Y1005D03*
X3741Y1105D03*
X3741Y1205D03*
X3741Y1305D03*
X3741Y1405D03*
X3741Y1505D03*
X3741Y1605D03*
X3741Y1705D03*
X3741Y1805D03*
G54D12*
X2341Y805D03*
X2341Y705D03*
X2341Y605D03*
X2341Y505D03*
G54D13*
X191Y1855D03*
X891Y1855D03*
X891Y255D03*
X191Y255D03*
X191Y1855D03*
X891Y1855D03*
X891Y255D03*
X191Y255D03*
G54D14*
X438Y2205D03*
X241Y2205D03*
G54D15*
X2491Y505D03*
X2591Y505D03*
X2491Y505D03*
X2591Y505D03*
X2491Y605D03*
X2591Y605D03*
X2491Y605D03*
X2591Y605D03*
G54D10*
X2539Y1405D03*
X2439Y1405D03*
X2339Y1405D03*
G54D16*
X1240Y1806D03*
X1239Y1706D03*
X1239Y1606D03*
X1239Y1504D03*
X1239Y1404D03*
X1239Y1304D03*
X2091Y1907D03*
X2091Y1806D03*
X2091Y1707D03*
X2090Y1606D03*
X2090Y1505D03*
X2091Y1405D03*
G54D17*
X3841Y2455D03*
X91Y105D03*
X3841Y105D03*
X91Y2455D03*
G54D18*
X2441Y2105D03*
G54D19*
X438Y2205D03*
G54D18*
X2539Y1405D03*
G54D20*
X123Y1923D02*
X258Y1923D01*
X123Y1922D02*
X258Y1922D01*
X123Y1921D02*
X258Y1921D01*
X123Y1920D02*
X258Y1920D01*
X123Y1919D02*
X258Y1919D01*
X123Y1918D02*
X258Y1918D01*
X123Y1917D02*
X258Y1917D01*
X123Y1916D02*
X258Y1916D01*
X123Y1915D02*
X258Y1915D01*
X123Y1914D02*
X258Y1914D01*
X123Y1913D02*
X258Y1913D01*
X123Y1912D02*
X258Y1912D01*
X123Y1911D02*
X258Y1911D01*
X123Y1910D02*
X258Y1910D01*
X123Y1909D02*
X258Y1909D01*
X123Y1908D02*
X258Y1908D01*
X123Y1907D02*
X258Y1907D01*
X123Y1906D02*
X258Y1906D01*
X123Y1905D02*
X258Y1905D01*
X123Y1904D02*
X258Y1904D01*
X123Y1903D02*
X258Y1903D01*
X123Y1902D02*
X258Y1902D01*
X123Y1901D02*
X258Y1901D01*
X123Y1900D02*
X258Y1900D01*
X123Y1899D02*
X258Y1899D01*
X123Y1898D02*
X258Y1898D01*
X123Y1897D02*
X258Y1897D01*
X123Y1896D02*
X258Y1896D01*
X123Y1895D02*
X258Y1895D01*
X123Y1894D02*
X258Y1894D01*
X123Y1893D02*
X258Y1893D01*
X123Y1892D02*
X258Y1892D01*
X123Y1891D02*
X258Y1891D01*
X123Y1890D02*
X258Y1890D01*
X123Y1889D02*
X258Y1889D01*
X123Y1888D02*
X258Y1888D01*
X123Y1887D02*
X258Y1887D01*
X123Y1886D02*
X258Y1886D01*
X123Y1885D02*
X258Y1885D01*
X123Y1884D02*
X258Y1884D01*
X123Y1883D02*
X258Y1883D01*
X123Y1882D02*
X258Y1882D01*
X123Y1881D02*
X258Y1881D01*
X123Y1880D02*
X258Y1880D01*
X123Y1879D02*
X258Y1879D01*
X123Y1878D02*
X258Y1878D01*
X123Y1877D02*
X258Y1877D01*
X123Y1876D02*
X258Y1876D01*
X123Y1875D02*
X258Y1875D01*
X123Y1874D02*
X258Y1874D01*
X123Y1873D02*
X258Y1873D01*
X123Y1872D02*
X258Y1872D01*
X123Y1871D02*
X258Y1871D01*
X123Y1870D02*
X258Y1870D01*
X123Y1869D02*
X258Y1869D01*
X123Y1868D02*
X258Y1868D01*
X123Y1867D02*
X258Y1867D01*
X123Y1866D02*
X258Y1866D01*
X123Y1865D02*
X258Y1865D01*
X123Y1864D02*
X258Y1864D01*
X123Y1863D02*
X258Y1863D01*
X123Y1862D02*
X258Y1862D01*
X123Y1861D02*
X258Y1861D01*
X123Y1860D02*
X258Y1860D01*
X123Y1859D02*
X258Y1859D01*
X123Y1858D02*
X258Y1858D01*
X123Y1857D02*
X258Y1857D01*
X123Y1856D02*
X190Y1856D01*
X192Y1856D02*
X258Y1856D01*
X123Y1855D02*
X189Y1855D01*
X192Y1855D02*
X258Y1855D01*
X123Y1854D02*
X258Y1854D01*
X123Y1853D02*
X258Y1853D01*
X123Y1852D02*
X258Y1852D01*
X123Y1851D02*
X258Y1851D01*
X123Y1850D02*
X258Y1850D01*
X123Y1849D02*
X258Y1849D01*
X123Y1848D02*
X258Y1848D01*
X123Y1847D02*
X258Y1847D01*
X123Y1846D02*
X258Y1846D01*
X123Y1845D02*
X258Y1845D01*
X123Y1844D02*
X258Y1844D01*
X123Y1843D02*
X258Y1843D01*
X123Y1842D02*
X258Y1842D01*
X123Y1841D02*
X258Y1841D01*
X2713Y1841D02*
X2771Y1841D01*
X3710Y1841D02*
X3768Y1841D01*
X123Y1840D02*
X258Y1840D01*
X2708Y1840D02*
X2776Y1840D01*
X3705Y1840D02*
X3773Y1840D01*
X123Y1839D02*
X258Y1839D01*
X2704Y1839D02*
X2779Y1839D01*
X3702Y1839D02*
X3777Y1839D01*
X123Y1838D02*
X258Y1838D01*
X2702Y1838D02*
X2782Y1838D01*
X3699Y1838D02*
X3779Y1838D01*
X123Y1837D02*
X258Y1837D01*
X2700Y1837D02*
X2784Y1837D01*
X3697Y1837D02*
X3781Y1837D01*
X123Y1836D02*
X258Y1836D01*
X2698Y1836D02*
X2786Y1836D01*
X3695Y1836D02*
X3783Y1836D01*
X123Y1835D02*
X258Y1835D01*
X2696Y1835D02*
X2787Y1835D01*
X3694Y1835D02*
X3785Y1835D01*
X123Y1834D02*
X258Y1834D01*
X2695Y1834D02*
X2789Y1834D01*
X3692Y1834D02*
X3786Y1834D01*
X123Y1833D02*
X258Y1833D01*
X2693Y1833D02*
X2790Y1833D01*
X3691Y1833D02*
X3788Y1833D01*
X123Y1832D02*
X258Y1832D01*
X2692Y1832D02*
X2791Y1832D01*
X3690Y1832D02*
X3789Y1832D01*
X123Y1831D02*
X258Y1831D01*
X2691Y1831D02*
X2792Y1831D01*
X3689Y1831D02*
X3790Y1831D01*
X123Y1830D02*
X258Y1830D01*
X2690Y1830D02*
X2793Y1830D01*
X3688Y1830D02*
X3791Y1830D01*
X123Y1829D02*
X258Y1829D01*
X2689Y1829D02*
X2794Y1829D01*
X3687Y1829D02*
X3792Y1829D01*
X123Y1828D02*
X258Y1828D01*
X2688Y1828D02*
X2795Y1828D01*
X3686Y1828D02*
X3793Y1828D01*
X123Y1827D02*
X258Y1827D01*
X2688Y1827D02*
X2796Y1827D01*
X3685Y1827D02*
X3793Y1827D01*
X123Y1826D02*
X258Y1826D01*
X2687Y1826D02*
X2797Y1826D01*
X3684Y1826D02*
X3794Y1826D01*
X123Y1825D02*
X258Y1825D01*
X2686Y1825D02*
X2797Y1825D01*
X3684Y1825D02*
X3795Y1825D01*
X123Y1824D02*
X258Y1824D01*
X2686Y1824D02*
X2798Y1824D01*
X3683Y1824D02*
X3795Y1824D01*
X123Y1823D02*
X258Y1823D01*
X2685Y1823D02*
X2798Y1823D01*
X3683Y1823D02*
X3796Y1823D01*
X123Y1822D02*
X258Y1822D01*
X2685Y1822D02*
X2799Y1822D01*
X3682Y1822D02*
X3796Y1822D01*
X123Y1821D02*
X258Y1821D01*
X2684Y1821D02*
X2799Y1821D01*
X3682Y1821D02*
X3797Y1821D01*
X123Y1820D02*
X258Y1820D01*
X2684Y1820D02*
X2800Y1820D01*
X3681Y1820D02*
X3797Y1820D01*
X123Y1819D02*
X258Y1819D01*
X2683Y1819D02*
X2800Y1819D01*
X3681Y1819D02*
X3798Y1819D01*
X123Y1818D02*
X258Y1818D01*
X2683Y1818D02*
X2801Y1818D01*
X3680Y1818D02*
X3798Y1818D01*
X123Y1817D02*
X258Y1817D01*
X2682Y1817D02*
X2801Y1817D01*
X3680Y1817D02*
X3799Y1817D01*
X123Y1816D02*
X258Y1816D01*
X2682Y1816D02*
X2801Y1816D01*
X3680Y1816D02*
X3799Y1816D01*
X123Y1815D02*
X258Y1815D01*
X2682Y1815D02*
X2802Y1815D01*
X3678Y1815D02*
X3799Y1815D01*
X123Y1814D02*
X258Y1814D01*
X2682Y1814D02*
X2802Y1814D01*
X3678Y1814D02*
X3799Y1814D01*
X123Y1813D02*
X258Y1813D01*
X2681Y1813D02*
X2802Y1813D01*
X3678Y1813D02*
X3800Y1813D01*
X123Y1812D02*
X258Y1812D01*
X2681Y1812D02*
X2802Y1812D01*
X3678Y1812D02*
X3800Y1812D01*
X123Y1811D02*
X258Y1811D01*
X2681Y1811D02*
X2740Y1811D01*
X2745Y1811D02*
X2803Y1811D01*
X3678Y1811D02*
X3736Y1811D01*
X3742Y1811D02*
X3800Y1811D01*
X123Y1810D02*
X258Y1810D01*
X2681Y1810D02*
X2738Y1810D01*
X2747Y1810D02*
X2803Y1810D01*
X3678Y1810D02*
X3735Y1810D01*
X3743Y1810D02*
X3800Y1810D01*
X123Y1809D02*
X258Y1809D01*
X2681Y1809D02*
X2737Y1809D01*
X2748Y1809D02*
X2803Y1809D01*
X3678Y1809D02*
X3734Y1809D01*
X3744Y1809D02*
X3800Y1809D01*
X123Y1808D02*
X258Y1808D01*
X2680Y1808D02*
X2737Y1808D01*
X2748Y1808D02*
X2803Y1808D01*
X3678Y1808D02*
X3733Y1808D01*
X3745Y1808D02*
X3801Y1808D01*
X123Y1807D02*
X258Y1807D01*
X2680Y1807D02*
X2736Y1807D01*
X2749Y1807D02*
X2803Y1807D01*
X3678Y1807D02*
X3733Y1807D01*
X3746Y1807D02*
X3801Y1807D01*
X123Y1806D02*
X258Y1806D01*
X2680Y1806D02*
X2736Y1806D01*
X2749Y1806D02*
X2803Y1806D01*
X3678Y1806D02*
X3733Y1806D01*
X3746Y1806D02*
X3801Y1806D01*
X123Y1805D02*
X258Y1805D01*
X2680Y1805D02*
X2736Y1805D01*
X2749Y1805D02*
X2803Y1805D01*
X3678Y1805D02*
X3733Y1805D01*
X3746Y1805D02*
X3801Y1805D01*
X123Y1804D02*
X258Y1804D01*
X2680Y1804D02*
X2736Y1804D01*
X2749Y1804D02*
X2803Y1804D01*
X3678Y1804D02*
X3733Y1804D01*
X3746Y1804D02*
X3801Y1804D01*
X123Y1803D02*
X258Y1803D01*
X2680Y1803D02*
X2736Y1803D01*
X2749Y1803D02*
X2803Y1803D01*
X3678Y1803D02*
X3733Y1803D01*
X3745Y1803D02*
X3801Y1803D01*
X123Y1802D02*
X258Y1802D01*
X2680Y1802D02*
X2737Y1802D01*
X2748Y1802D02*
X2803Y1802D01*
X3678Y1802D02*
X3734Y1802D01*
X3745Y1802D02*
X3801Y1802D01*
X123Y1801D02*
X258Y1801D01*
X2681Y1801D02*
X2738Y1801D01*
X2747Y1801D02*
X2803Y1801D01*
X3678Y1801D02*
X3735Y1801D01*
X3744Y1801D02*
X3800Y1801D01*
X123Y1800D02*
X258Y1800D01*
X2681Y1800D02*
X2739Y1800D01*
X2746Y1800D02*
X2803Y1800D01*
X3678Y1800D02*
X3736Y1800D01*
X3743Y1800D02*
X3800Y1800D01*
X123Y1799D02*
X258Y1799D01*
X2681Y1799D02*
X2803Y1799D01*
X3678Y1799D02*
X3800Y1799D01*
X123Y1798D02*
X258Y1798D01*
X2681Y1798D02*
X2802Y1798D01*
X3679Y1798D02*
X3800Y1798D01*
X123Y1797D02*
X258Y1797D01*
X2681Y1797D02*
X2802Y1797D01*
X3679Y1797D02*
X3800Y1797D01*
X123Y1796D02*
X258Y1796D01*
X2682Y1796D02*
X2802Y1796D01*
X3679Y1796D02*
X3799Y1796D01*
X123Y1795D02*
X258Y1795D01*
X2682Y1795D02*
X2802Y1795D01*
X3679Y1795D02*
X3799Y1795D01*
X123Y1794D02*
X258Y1794D01*
X2682Y1794D02*
X2801Y1794D01*
X3680Y1794D02*
X3799Y1794D01*
X123Y1793D02*
X258Y1793D01*
X2683Y1793D02*
X2801Y1793D01*
X3680Y1793D02*
X3798Y1793D01*
X123Y1792D02*
X258Y1792D01*
X2683Y1792D02*
X2800Y1792D01*
X3681Y1792D02*
X3798Y1792D01*
X123Y1791D02*
X258Y1791D01*
X2683Y1791D02*
X2800Y1791D01*
X3681Y1791D02*
X3798Y1791D01*
X123Y1790D02*
X258Y1790D01*
X2684Y1790D02*
X2800Y1790D01*
X3681Y1790D02*
X3797Y1790D01*
X123Y1789D02*
X258Y1789D01*
X2684Y1789D02*
X2799Y1789D01*
X3682Y1789D02*
X3797Y1789D01*
X123Y1788D02*
X258Y1788D01*
X2685Y1788D02*
X2799Y1788D01*
X3682Y1788D02*
X3796Y1788D01*
X2685Y1787D02*
X2798Y1787D01*
X3683Y1787D02*
X3796Y1787D01*
X2686Y1786D02*
X2797Y1786D01*
X3684Y1786D02*
X3795Y1786D01*
X2687Y1785D02*
X2797Y1785D01*
X3684Y1785D02*
X3794Y1785D01*
X2687Y1784D02*
X2796Y1784D01*
X3685Y1784D02*
X3794Y1784D01*
X2688Y1783D02*
X2795Y1783D01*
X3686Y1783D02*
X3793Y1783D01*
X2689Y1782D02*
X2795Y1782D01*
X3686Y1782D02*
X3792Y1782D01*
X2690Y1781D02*
X2794Y1781D01*
X3687Y1781D02*
X3791Y1781D01*
X2691Y1780D02*
X2793Y1780D01*
X3688Y1780D02*
X3790Y1780D01*
X2692Y1779D02*
X2792Y1779D01*
X3689Y1779D02*
X3789Y1779D01*
X2693Y1778D02*
X2791Y1778D01*
X3690Y1778D02*
X3788Y1778D01*
X2694Y1777D02*
X2789Y1777D01*
X3692Y1777D02*
X3787Y1777D01*
X2696Y1776D02*
X2788Y1776D01*
X3693Y1776D02*
X3785Y1776D01*
X2697Y1775D02*
X2786Y1775D01*
X3695Y1775D02*
X3784Y1775D01*
X2699Y1774D02*
X2785Y1774D01*
X3696Y1774D02*
X3782Y1774D01*
X2701Y1773D02*
X2783Y1773D01*
X3698Y1773D02*
X3780Y1773D01*
X2703Y1772D02*
X2780Y1772D01*
X3701Y1772D02*
X3778Y1772D01*
X2706Y1771D02*
X2778Y1771D01*
X3703Y1771D02*
X3775Y1771D01*
X2710Y1770D02*
X2774Y1770D01*
X3707Y1770D02*
X3771Y1770D01*
X2712Y1741D02*
X2771Y1741D01*
X3710Y1741D02*
X3768Y1741D01*
X2708Y1740D02*
X2776Y1740D01*
X3705Y1740D02*
X3773Y1740D01*
X2704Y1739D02*
X2779Y1739D01*
X3702Y1739D02*
X3777Y1739D01*
X2702Y1738D02*
X2782Y1738D01*
X3699Y1738D02*
X3779Y1738D01*
X2700Y1737D02*
X2784Y1737D01*
X3697Y1737D02*
X3781Y1737D01*
X2698Y1736D02*
X2786Y1736D01*
X3695Y1736D02*
X3783Y1736D01*
X2696Y1735D02*
X2787Y1735D01*
X3694Y1735D02*
X3785Y1735D01*
X2695Y1734D02*
X2789Y1734D01*
X3692Y1734D02*
X3786Y1734D01*
X2693Y1733D02*
X2790Y1733D01*
X3691Y1733D02*
X3788Y1733D01*
X2692Y1732D02*
X2791Y1732D01*
X3690Y1732D02*
X3789Y1732D01*
X2691Y1731D02*
X2792Y1731D01*
X3689Y1731D02*
X3790Y1731D01*
X2690Y1730D02*
X2793Y1730D01*
X3688Y1730D02*
X3791Y1730D01*
X2689Y1729D02*
X2794Y1729D01*
X3687Y1729D02*
X3792Y1729D01*
X2688Y1728D02*
X2795Y1728D01*
X3686Y1728D02*
X3793Y1728D01*
X2688Y1727D02*
X2796Y1727D01*
X3685Y1727D02*
X3793Y1727D01*
X2687Y1726D02*
X2796Y1726D01*
X3684Y1726D02*
X3794Y1726D01*
X2686Y1725D02*
X2797Y1725D01*
X3684Y1725D02*
X3795Y1725D01*
X2686Y1724D02*
X2798Y1724D01*
X3683Y1724D02*
X3795Y1724D01*
X2685Y1723D02*
X2798Y1723D01*
X3683Y1723D02*
X3796Y1723D01*
X2685Y1722D02*
X2799Y1722D01*
X3682Y1722D02*
X3796Y1722D01*
X2684Y1721D02*
X2799Y1721D01*
X3682Y1721D02*
X3797Y1721D01*
X2684Y1720D02*
X2800Y1720D01*
X3681Y1720D02*
X3797Y1720D01*
X2683Y1719D02*
X2800Y1719D01*
X3681Y1719D02*
X3798Y1719D01*
X2683Y1718D02*
X2801Y1718D01*
X3680Y1718D02*
X3798Y1718D01*
X2682Y1717D02*
X2801Y1717D01*
X3680Y1717D02*
X3799Y1717D01*
X2682Y1716D02*
X2801Y1716D01*
X3680Y1716D02*
X3799Y1716D01*
X2682Y1715D02*
X2802Y1715D01*
X3678Y1715D02*
X3799Y1715D01*
X2681Y1714D02*
X2802Y1714D01*
X3678Y1714D02*
X3799Y1714D01*
X2681Y1713D02*
X2802Y1713D01*
X3678Y1713D02*
X3800Y1713D01*
X2681Y1712D02*
X2802Y1712D01*
X3678Y1712D02*
X3800Y1712D01*
X2681Y1711D02*
X2740Y1711D01*
X2745Y1711D02*
X2803Y1711D01*
X3678Y1711D02*
X3737Y1711D01*
X3742Y1711D02*
X3800Y1711D01*
X2681Y1710D02*
X2738Y1710D01*
X2747Y1710D02*
X2803Y1710D01*
X3678Y1710D02*
X3735Y1710D01*
X3744Y1710D02*
X3800Y1710D01*
X2680Y1709D02*
X2737Y1709D01*
X2748Y1709D02*
X2803Y1709D01*
X3678Y1709D02*
X3734Y1709D01*
X3745Y1709D02*
X3800Y1709D01*
X2680Y1708D02*
X2736Y1708D01*
X2748Y1708D02*
X2803Y1708D01*
X3678Y1708D02*
X3733Y1708D01*
X3745Y1708D02*
X3801Y1708D01*
X2680Y1707D02*
X2736Y1707D01*
X2749Y1707D02*
X2803Y1707D01*
X3678Y1707D02*
X3733Y1707D01*
X3746Y1707D02*
X3801Y1707D01*
X2680Y1706D02*
X2736Y1706D01*
X2749Y1706D02*
X2803Y1706D01*
X3678Y1706D02*
X3733Y1706D01*
X3746Y1706D02*
X3801Y1706D01*
X2680Y1705D02*
X2736Y1705D01*
X2749Y1705D02*
X2803Y1705D01*
X3678Y1705D02*
X3733Y1705D01*
X3746Y1705D02*
X3801Y1705D01*
X2680Y1704D02*
X2736Y1704D01*
X2749Y1704D02*
X2803Y1704D01*
X3678Y1704D02*
X3733Y1704D01*
X3746Y1704D02*
X3801Y1704D01*
X2680Y1703D02*
X2736Y1703D01*
X2749Y1703D02*
X2803Y1703D01*
X3678Y1703D02*
X3733Y1703D01*
X3745Y1703D02*
X3801Y1703D01*
X2680Y1702D02*
X2737Y1702D01*
X2748Y1702D02*
X2803Y1702D01*
X3678Y1702D02*
X3734Y1702D01*
X3745Y1702D02*
X3801Y1702D01*
X2681Y1701D02*
X2738Y1701D01*
X2747Y1701D02*
X2803Y1701D01*
X3678Y1701D02*
X3734Y1701D01*
X3744Y1701D02*
X3800Y1701D01*
X2681Y1700D02*
X2739Y1700D01*
X2746Y1700D02*
X2803Y1700D01*
X3678Y1700D02*
X3736Y1700D01*
X3743Y1700D02*
X3800Y1700D01*
X2681Y1699D02*
X2802Y1699D01*
X3678Y1699D02*
X3800Y1699D01*
X2681Y1698D02*
X2802Y1698D01*
X3679Y1698D02*
X3800Y1698D01*
X2681Y1697D02*
X2802Y1697D01*
X3679Y1697D02*
X3800Y1697D01*
X2682Y1696D02*
X2802Y1696D01*
X3679Y1696D02*
X3799Y1696D01*
X2682Y1695D02*
X2801Y1695D01*
X3679Y1695D02*
X3799Y1695D01*
X2682Y1694D02*
X2801Y1694D01*
X3680Y1694D02*
X3799Y1694D01*
X2683Y1693D02*
X2801Y1693D01*
X3680Y1693D02*
X3798Y1693D01*
X2683Y1692D02*
X2800Y1692D01*
X3681Y1692D02*
X3798Y1692D01*
X2683Y1691D02*
X2800Y1691D01*
X3681Y1691D02*
X3798Y1691D01*
X2684Y1690D02*
X2800Y1690D01*
X3681Y1690D02*
X3797Y1690D01*
X2684Y1689D02*
X2799Y1689D01*
X3682Y1689D02*
X3797Y1689D01*
X2685Y1688D02*
X2799Y1688D01*
X3682Y1688D02*
X3796Y1688D01*
X2685Y1687D02*
X2798Y1687D01*
X3683Y1687D02*
X3796Y1687D01*
X2686Y1686D02*
X2797Y1686D01*
X3684Y1686D02*
X3795Y1686D01*
X2687Y1685D02*
X2797Y1685D01*
X3684Y1685D02*
X3794Y1685D01*
X2687Y1684D02*
X2796Y1684D01*
X3685Y1684D02*
X3794Y1684D01*
X2688Y1683D02*
X2795Y1683D01*
X3686Y1683D02*
X3793Y1683D01*
X2689Y1682D02*
X2795Y1682D01*
X3686Y1682D02*
X3792Y1682D01*
X2690Y1681D02*
X2794Y1681D01*
X3687Y1681D02*
X3791Y1681D01*
X2691Y1680D02*
X2793Y1680D01*
X3688Y1680D02*
X3790Y1680D01*
X2692Y1679D02*
X2792Y1679D01*
X3689Y1679D02*
X3789Y1679D01*
X2693Y1678D02*
X2791Y1678D01*
X3690Y1678D02*
X3788Y1678D01*
X2694Y1677D02*
X2789Y1677D01*
X3692Y1677D02*
X3787Y1677D01*
X2695Y1676D02*
X2788Y1676D01*
X3693Y1676D02*
X3785Y1676D01*
X2697Y1675D02*
X2786Y1675D01*
X3695Y1675D02*
X3784Y1675D01*
X2699Y1674D02*
X2785Y1674D01*
X3696Y1674D02*
X3782Y1674D01*
X2701Y1673D02*
X2783Y1673D01*
X3698Y1673D02*
X3780Y1673D01*
X2703Y1672D02*
X2780Y1672D01*
X3701Y1672D02*
X3778Y1672D01*
X2706Y1671D02*
X2778Y1671D01*
X3703Y1671D02*
X3775Y1671D01*
X2709Y1670D02*
X2774Y1670D01*
X3707Y1670D02*
X3771Y1670D01*
X2712Y1641D02*
X2771Y1641D01*
X3710Y1641D02*
X3768Y1641D01*
X2707Y1640D02*
X2776Y1640D01*
X3705Y1640D02*
X3773Y1640D01*
X2704Y1639D02*
X2779Y1639D01*
X3702Y1639D02*
X3777Y1639D01*
X2702Y1638D02*
X2782Y1638D01*
X3699Y1638D02*
X3779Y1638D01*
X2700Y1637D02*
X2784Y1637D01*
X3697Y1637D02*
X3781Y1637D01*
X2698Y1636D02*
X2785Y1636D01*
X3695Y1636D02*
X3783Y1636D01*
X2696Y1635D02*
X2787Y1635D01*
X3694Y1635D02*
X3785Y1635D01*
X2695Y1634D02*
X2789Y1634D01*
X3692Y1634D02*
X3786Y1634D01*
X2693Y1633D02*
X2790Y1633D01*
X3691Y1633D02*
X3788Y1633D01*
X2692Y1632D02*
X2791Y1632D01*
X3690Y1632D02*
X3789Y1632D01*
X2691Y1631D02*
X2792Y1631D01*
X3689Y1631D02*
X3790Y1631D01*
X2690Y1630D02*
X2793Y1630D01*
X3688Y1630D02*
X3791Y1630D01*
X2689Y1629D02*
X2794Y1629D01*
X3687Y1629D02*
X3792Y1629D01*
X2688Y1628D02*
X2795Y1628D01*
X3686Y1628D02*
X3793Y1628D01*
X2688Y1627D02*
X2796Y1627D01*
X3685Y1627D02*
X3793Y1627D01*
X2687Y1626D02*
X2796Y1626D01*
X3684Y1626D02*
X3794Y1626D01*
X2686Y1625D02*
X2797Y1625D01*
X3684Y1625D02*
X3795Y1625D01*
X2686Y1624D02*
X2798Y1624D01*
X3683Y1624D02*
X3795Y1624D01*
X2685Y1623D02*
X2798Y1623D01*
X3683Y1623D02*
X3796Y1623D01*
X2684Y1622D02*
X2799Y1622D01*
X3682Y1622D02*
X3796Y1622D01*
X2684Y1621D02*
X2799Y1621D01*
X3682Y1621D02*
X3797Y1621D01*
X2684Y1620D02*
X2800Y1620D01*
X3681Y1620D02*
X3797Y1620D01*
X2683Y1619D02*
X2800Y1619D01*
X3681Y1619D02*
X3798Y1619D01*
X2683Y1618D02*
X2801Y1618D01*
X3680Y1618D02*
X3798Y1618D01*
X2682Y1617D02*
X2801Y1617D01*
X3680Y1617D02*
X3799Y1617D01*
X2682Y1616D02*
X2801Y1616D01*
X3680Y1616D02*
X3799Y1616D01*
X2682Y1615D02*
X2802Y1615D01*
X3678Y1615D02*
X3799Y1615D01*
X2681Y1614D02*
X2802Y1614D01*
X3678Y1614D02*
X3799Y1614D01*
X2681Y1613D02*
X2802Y1613D01*
X3678Y1613D02*
X3800Y1613D01*
X2681Y1612D02*
X2802Y1612D01*
X3678Y1612D02*
X3800Y1612D01*
X2681Y1611D02*
X2740Y1611D01*
X2745Y1611D02*
X2803Y1611D01*
X3678Y1611D02*
X3737Y1611D01*
X3742Y1611D02*
X3800Y1611D01*
X2681Y1610D02*
X2738Y1610D01*
X2747Y1610D02*
X2803Y1610D01*
X3678Y1610D02*
X3735Y1610D01*
X3744Y1610D02*
X3800Y1610D01*
X2680Y1609D02*
X2737Y1609D01*
X2748Y1609D02*
X2803Y1609D01*
X3678Y1609D02*
X3734Y1609D01*
X3745Y1609D02*
X3800Y1609D01*
X2680Y1608D02*
X2736Y1608D01*
X2748Y1608D02*
X2803Y1608D01*
X3678Y1608D02*
X3733Y1608D01*
X3745Y1608D02*
X3801Y1608D01*
X2680Y1607D02*
X2736Y1607D01*
X2749Y1607D02*
X2803Y1607D01*
X3678Y1607D02*
X3733Y1607D01*
X3746Y1607D02*
X3801Y1607D01*
X2680Y1606D02*
X2736Y1606D01*
X2749Y1606D02*
X2803Y1606D01*
X3678Y1606D02*
X3733Y1606D01*
X3746Y1606D02*
X3801Y1606D01*
X2680Y1605D02*
X2736Y1605D01*
X2749Y1605D02*
X2803Y1605D01*
X3678Y1605D02*
X3733Y1605D01*
X3746Y1605D02*
X3801Y1605D01*
X2680Y1604D02*
X2736Y1604D01*
X2749Y1604D02*
X2803Y1604D01*
X3678Y1604D02*
X3733Y1604D01*
X3746Y1604D02*
X3801Y1604D01*
X2680Y1603D02*
X2736Y1603D01*
X2749Y1603D02*
X2803Y1603D01*
X3678Y1603D02*
X3733Y1603D01*
X3745Y1603D02*
X3801Y1603D01*
X2680Y1602D02*
X2737Y1602D01*
X2748Y1602D02*
X2803Y1602D01*
X3678Y1602D02*
X3734Y1602D01*
X3745Y1602D02*
X3801Y1602D01*
X2680Y1601D02*
X2738Y1601D01*
X2747Y1601D02*
X2803Y1601D01*
X3678Y1601D02*
X3734Y1601D01*
X3744Y1601D02*
X3800Y1601D01*
X2681Y1600D02*
X2739Y1600D01*
X2746Y1600D02*
X2803Y1600D01*
X3678Y1600D02*
X3736Y1600D01*
X3743Y1600D02*
X3800Y1600D01*
X2681Y1599D02*
X2802Y1599D01*
X3678Y1599D02*
X3800Y1599D01*
X2681Y1598D02*
X2802Y1598D01*
X3679Y1598D02*
X3800Y1598D01*
X2681Y1597D02*
X2802Y1597D01*
X3679Y1597D02*
X3800Y1597D01*
X2682Y1596D02*
X2802Y1596D01*
X3679Y1596D02*
X3799Y1596D01*
X2682Y1595D02*
X2801Y1595D01*
X3679Y1595D02*
X3799Y1595D01*
X2682Y1594D02*
X2801Y1594D01*
X3680Y1594D02*
X3799Y1594D01*
X2683Y1593D02*
X2801Y1593D01*
X3680Y1593D02*
X3798Y1593D01*
X2683Y1592D02*
X2800Y1592D01*
X3681Y1592D02*
X3798Y1592D01*
X2683Y1591D02*
X2800Y1591D01*
X3681Y1591D02*
X3798Y1591D01*
X2684Y1590D02*
X2800Y1590D01*
X3681Y1590D02*
X3797Y1590D01*
X2684Y1589D02*
X2799Y1589D01*
X3682Y1589D02*
X3797Y1589D01*
X2685Y1588D02*
X2799Y1588D01*
X3682Y1588D02*
X3796Y1588D01*
X2685Y1587D02*
X2798Y1587D01*
X3683Y1587D02*
X3796Y1587D01*
X2686Y1586D02*
X2797Y1586D01*
X3684Y1586D02*
X3795Y1586D01*
X2687Y1585D02*
X2797Y1585D01*
X3684Y1585D02*
X3794Y1585D01*
X2687Y1584D02*
X2796Y1584D01*
X3685Y1584D02*
X3794Y1584D01*
X2688Y1583D02*
X2795Y1583D01*
X3686Y1583D02*
X3793Y1583D01*
X2689Y1582D02*
X2795Y1582D01*
X3686Y1582D02*
X3792Y1582D01*
X2690Y1581D02*
X2794Y1581D01*
X3687Y1581D02*
X3791Y1581D01*
X2691Y1580D02*
X2793Y1580D01*
X3688Y1580D02*
X3790Y1580D01*
X2692Y1579D02*
X2792Y1579D01*
X3689Y1579D02*
X3789Y1579D01*
X2693Y1578D02*
X2791Y1578D01*
X3690Y1578D02*
X3788Y1578D01*
X2694Y1577D02*
X2789Y1577D01*
X3692Y1577D02*
X3787Y1577D01*
X2695Y1576D02*
X2788Y1576D01*
X3693Y1576D02*
X3785Y1576D01*
X2697Y1575D02*
X2786Y1575D01*
X3695Y1575D02*
X3784Y1575D01*
X2699Y1574D02*
X2785Y1574D01*
X3696Y1574D02*
X3782Y1574D01*
X2701Y1573D02*
X2783Y1573D01*
X3698Y1573D02*
X3780Y1573D01*
X2703Y1572D02*
X2780Y1572D01*
X3701Y1572D02*
X3778Y1572D01*
X2706Y1571D02*
X2778Y1571D01*
X3703Y1571D02*
X3775Y1571D01*
X2710Y1570D02*
X2774Y1570D01*
X3707Y1570D02*
X3771Y1570D01*
X2712Y1541D02*
X2771Y1541D01*
X3710Y1541D02*
X3768Y1541D01*
X2708Y1540D02*
X2776Y1540D01*
X3705Y1540D02*
X3773Y1540D01*
X2704Y1539D02*
X2779Y1539D01*
X3702Y1539D02*
X3777Y1539D01*
X2702Y1538D02*
X2782Y1538D01*
X3699Y1538D02*
X3779Y1538D01*
X2700Y1537D02*
X2784Y1537D01*
X3697Y1537D02*
X3781Y1537D01*
X2698Y1536D02*
X2786Y1536D01*
X3695Y1536D02*
X3783Y1536D01*
X2696Y1535D02*
X2787Y1535D01*
X3694Y1535D02*
X3785Y1535D01*
X2695Y1534D02*
X2789Y1534D01*
X3692Y1534D02*
X3786Y1534D01*
X2693Y1533D02*
X2790Y1533D01*
X3691Y1533D02*
X3788Y1533D01*
X2692Y1532D02*
X2791Y1532D01*
X3690Y1532D02*
X3789Y1532D01*
X2691Y1531D02*
X2792Y1531D01*
X3689Y1531D02*
X3790Y1531D01*
X2690Y1530D02*
X2793Y1530D01*
X3688Y1530D02*
X3791Y1530D01*
X2689Y1529D02*
X2794Y1529D01*
X3687Y1529D02*
X3792Y1529D01*
X2688Y1528D02*
X2795Y1528D01*
X3686Y1528D02*
X3793Y1528D01*
X2688Y1527D02*
X2796Y1527D01*
X3685Y1527D02*
X3793Y1527D01*
X2687Y1526D02*
X2796Y1526D01*
X3684Y1526D02*
X3794Y1526D01*
X2686Y1525D02*
X2797Y1525D01*
X3684Y1525D02*
X3795Y1525D01*
X2686Y1524D02*
X2798Y1524D01*
X3683Y1524D02*
X3795Y1524D01*
X2685Y1523D02*
X2798Y1523D01*
X3683Y1523D02*
X3796Y1523D01*
X2685Y1522D02*
X2799Y1522D01*
X3682Y1522D02*
X3796Y1522D01*
X2684Y1521D02*
X2799Y1521D01*
X3682Y1521D02*
X3797Y1521D01*
X2684Y1520D02*
X2800Y1520D01*
X3681Y1520D02*
X3797Y1520D01*
X2683Y1519D02*
X2800Y1519D01*
X3681Y1519D02*
X3798Y1519D01*
X2683Y1518D02*
X2801Y1518D01*
X3680Y1518D02*
X3798Y1518D01*
X2682Y1517D02*
X2801Y1517D01*
X3680Y1517D02*
X3799Y1517D01*
X2682Y1516D02*
X2801Y1516D01*
X3680Y1516D02*
X3799Y1516D01*
X2682Y1515D02*
X2802Y1515D01*
X3678Y1515D02*
X3799Y1515D01*
X2681Y1514D02*
X2802Y1514D01*
X3678Y1514D02*
X3799Y1514D01*
X2681Y1513D02*
X2802Y1513D01*
X3678Y1513D02*
X3800Y1513D01*
X2681Y1512D02*
X2802Y1512D01*
X3678Y1512D02*
X3800Y1512D01*
X2681Y1511D02*
X2740Y1511D01*
X2745Y1511D02*
X2803Y1511D01*
X3678Y1511D02*
X3737Y1511D01*
X3742Y1511D02*
X3800Y1511D01*
X2681Y1510D02*
X2738Y1510D01*
X2747Y1510D02*
X2803Y1510D01*
X3678Y1510D02*
X3735Y1510D01*
X3744Y1510D02*
X3800Y1510D01*
X2680Y1509D02*
X2737Y1509D01*
X2748Y1509D02*
X2803Y1509D01*
X3678Y1509D02*
X3734Y1509D01*
X3745Y1509D02*
X3800Y1509D01*
X2680Y1508D02*
X2736Y1508D01*
X2748Y1508D02*
X2803Y1508D01*
X3678Y1508D02*
X3733Y1508D01*
X3745Y1508D02*
X3801Y1508D01*
X2680Y1507D02*
X2736Y1507D01*
X2749Y1507D02*
X2803Y1507D01*
X3678Y1507D02*
X3733Y1507D01*
X3746Y1507D02*
X3801Y1507D01*
X2680Y1506D02*
X2736Y1506D01*
X2749Y1506D02*
X2803Y1506D01*
X3678Y1506D02*
X3733Y1506D01*
X3746Y1506D02*
X3801Y1506D01*
X2680Y1505D02*
X2736Y1505D01*
X2749Y1505D02*
X2803Y1505D01*
X3678Y1505D02*
X3733Y1505D01*
X3746Y1505D02*
X3801Y1505D01*
X2680Y1504D02*
X2736Y1504D01*
X2749Y1504D02*
X2803Y1504D01*
X3678Y1504D02*
X3733Y1504D01*
X3746Y1504D02*
X3801Y1504D01*
X2680Y1503D02*
X2736Y1503D01*
X2749Y1503D02*
X2803Y1503D01*
X3678Y1503D02*
X3733Y1503D01*
X3745Y1503D02*
X3801Y1503D01*
X2680Y1502D02*
X2737Y1502D01*
X2748Y1502D02*
X2803Y1502D01*
X3678Y1502D02*
X3734Y1502D01*
X3745Y1502D02*
X3801Y1502D01*
X2681Y1501D02*
X2738Y1501D01*
X2747Y1501D02*
X2803Y1501D01*
X3678Y1501D02*
X3734Y1501D01*
X3744Y1501D02*
X3800Y1501D01*
X2681Y1500D02*
X2739Y1500D01*
X2746Y1500D02*
X2803Y1500D01*
X3678Y1500D02*
X3736Y1500D01*
X3743Y1500D02*
X3800Y1500D01*
X2681Y1499D02*
X2802Y1499D01*
X3678Y1499D02*
X3800Y1499D01*
X2681Y1498D02*
X2802Y1498D01*
X3679Y1498D02*
X3800Y1498D01*
X2681Y1497D02*
X2802Y1497D01*
X3679Y1497D02*
X3800Y1497D01*
X2682Y1496D02*
X2802Y1496D01*
X3679Y1496D02*
X3799Y1496D01*
X2682Y1495D02*
X2801Y1495D01*
X3679Y1495D02*
X3799Y1495D01*
X2682Y1494D02*
X2801Y1494D01*
X3680Y1494D02*
X3799Y1494D01*
X2683Y1493D02*
X2801Y1493D01*
X3680Y1493D02*
X3798Y1493D01*
X2683Y1492D02*
X2800Y1492D01*
X3681Y1492D02*
X3798Y1492D01*
X2683Y1491D02*
X2800Y1491D01*
X3681Y1491D02*
X3798Y1491D01*
X2684Y1490D02*
X2800Y1490D01*
X3681Y1490D02*
X3797Y1490D01*
X2684Y1489D02*
X2799Y1489D01*
X3682Y1489D02*
X3797Y1489D01*
X2685Y1488D02*
X2799Y1488D01*
X3682Y1488D02*
X3796Y1488D01*
X2685Y1487D02*
X2798Y1487D01*
X3683Y1487D02*
X3796Y1487D01*
X2686Y1486D02*
X2797Y1486D01*
X3684Y1486D02*
X3795Y1486D01*
X2687Y1485D02*
X2797Y1485D01*
X3684Y1485D02*
X3794Y1485D01*
X2687Y1484D02*
X2796Y1484D01*
X3685Y1484D02*
X3794Y1484D01*
X2688Y1483D02*
X2795Y1483D01*
X3686Y1483D02*
X3793Y1483D01*
X2689Y1482D02*
X2795Y1482D01*
X3686Y1482D02*
X3792Y1482D01*
X2690Y1481D02*
X2794Y1481D01*
X3687Y1481D02*
X3791Y1481D01*
X2691Y1480D02*
X2793Y1480D01*
X3688Y1480D02*
X3790Y1480D01*
X2692Y1479D02*
X2792Y1479D01*
X3689Y1479D02*
X3789Y1479D01*
X2693Y1478D02*
X2791Y1478D01*
X3690Y1478D02*
X3788Y1478D01*
X2694Y1477D02*
X2789Y1477D01*
X3692Y1477D02*
X3787Y1477D01*
X2695Y1476D02*
X2788Y1476D01*
X3693Y1476D02*
X3785Y1476D01*
X2697Y1475D02*
X2786Y1475D01*
X3695Y1475D02*
X3784Y1475D01*
X2699Y1474D02*
X2785Y1474D01*
X3696Y1474D02*
X3782Y1474D01*
X2701Y1473D02*
X2783Y1473D01*
X3698Y1473D02*
X3780Y1473D01*
X2703Y1472D02*
X2780Y1472D01*
X3701Y1472D02*
X3778Y1472D01*
X2706Y1471D02*
X2778Y1471D01*
X3703Y1471D02*
X3775Y1471D01*
X2710Y1470D02*
X2774Y1470D01*
X3707Y1470D02*
X3771Y1470D01*
X2712Y1441D02*
X2771Y1441D01*
X3710Y1441D02*
X3768Y1441D01*
X2707Y1440D02*
X2776Y1440D01*
X3705Y1440D02*
X3773Y1440D01*
X2704Y1439D02*
X2779Y1439D01*
X3702Y1439D02*
X3777Y1439D01*
X2702Y1438D02*
X2782Y1438D01*
X3699Y1438D02*
X3779Y1438D01*
X2700Y1437D02*
X2784Y1437D01*
X3697Y1437D02*
X3781Y1437D01*
X2698Y1436D02*
X2786Y1436D01*
X3695Y1436D02*
X3783Y1436D01*
X2696Y1435D02*
X2787Y1435D01*
X3694Y1435D02*
X3785Y1435D01*
X2695Y1434D02*
X2789Y1434D01*
X3692Y1434D02*
X3786Y1434D01*
X2693Y1433D02*
X2790Y1433D01*
X3691Y1433D02*
X3788Y1433D01*
X2692Y1432D02*
X2791Y1432D01*
X3690Y1432D02*
X3789Y1432D01*
X2691Y1431D02*
X2792Y1431D01*
X3689Y1431D02*
X3790Y1431D01*
X2690Y1430D02*
X2793Y1430D01*
X3688Y1430D02*
X3791Y1430D01*
X2689Y1429D02*
X2794Y1429D01*
X3687Y1429D02*
X3792Y1429D01*
X2688Y1428D02*
X2795Y1428D01*
X3686Y1428D02*
X3793Y1428D01*
X2688Y1427D02*
X2796Y1427D01*
X3685Y1427D02*
X3793Y1427D01*
X2687Y1426D02*
X2796Y1426D01*
X3684Y1426D02*
X3794Y1426D01*
X2686Y1425D02*
X2797Y1425D01*
X3684Y1425D02*
X3795Y1425D01*
X2686Y1424D02*
X2798Y1424D01*
X3683Y1424D02*
X3795Y1424D01*
X2685Y1423D02*
X2798Y1423D01*
X3683Y1423D02*
X3796Y1423D01*
X2684Y1422D02*
X2799Y1422D01*
X3682Y1422D02*
X3796Y1422D01*
X2684Y1421D02*
X2799Y1421D01*
X3682Y1421D02*
X3797Y1421D01*
X2684Y1420D02*
X2800Y1420D01*
X3681Y1420D02*
X3797Y1420D01*
X2683Y1419D02*
X2800Y1419D01*
X3681Y1419D02*
X3798Y1419D01*
X2683Y1418D02*
X2801Y1418D01*
X3680Y1418D02*
X3798Y1418D01*
X2682Y1417D02*
X2801Y1417D01*
X3680Y1417D02*
X3799Y1417D01*
X2682Y1416D02*
X2801Y1416D01*
X3680Y1416D02*
X3799Y1416D01*
X2682Y1415D02*
X2802Y1415D01*
X3678Y1415D02*
X3799Y1415D01*
X2681Y1414D02*
X2802Y1414D01*
X3678Y1414D02*
X3799Y1414D01*
X2681Y1413D02*
X2802Y1413D01*
X3678Y1413D02*
X3800Y1413D01*
X2681Y1412D02*
X2802Y1412D01*
X3678Y1412D02*
X3800Y1412D01*
X2681Y1411D02*
X2740Y1411D01*
X2745Y1411D02*
X2803Y1411D01*
X3678Y1411D02*
X3736Y1411D01*
X3742Y1411D02*
X3800Y1411D01*
X2681Y1410D02*
X2738Y1410D01*
X2747Y1410D02*
X2803Y1410D01*
X3678Y1410D02*
X3735Y1410D01*
X3743Y1410D02*
X3800Y1410D01*
X2680Y1409D02*
X2737Y1409D01*
X2748Y1409D02*
X2803Y1409D01*
X3678Y1409D02*
X3734Y1409D01*
X3744Y1409D02*
X3800Y1409D01*
X2680Y1408D02*
X2736Y1408D01*
X2748Y1408D02*
X2803Y1408D01*
X3678Y1408D02*
X3733Y1408D01*
X3745Y1408D02*
X3801Y1408D01*
X2680Y1407D02*
X2736Y1407D01*
X2749Y1407D02*
X2803Y1407D01*
X3678Y1407D02*
X3733Y1407D01*
X3746Y1407D02*
X3801Y1407D01*
X2680Y1406D02*
X2736Y1406D01*
X2749Y1406D02*
X2803Y1406D01*
X3678Y1406D02*
X3733Y1406D01*
X3746Y1406D02*
X3801Y1406D01*
X2680Y1405D02*
X2736Y1405D01*
X2749Y1405D02*
X2803Y1405D01*
X3678Y1405D02*
X3733Y1405D01*
X3746Y1405D02*
X3801Y1405D01*
X2680Y1404D02*
X2736Y1404D01*
X2749Y1404D02*
X2803Y1404D01*
X3678Y1404D02*
X3733Y1404D01*
X3746Y1404D02*
X3801Y1404D01*
X2680Y1403D02*
X2736Y1403D01*
X2749Y1403D02*
X2803Y1403D01*
X3678Y1403D02*
X3733Y1403D01*
X3745Y1403D02*
X3801Y1403D01*
X2680Y1402D02*
X2737Y1402D01*
X2748Y1402D02*
X2803Y1402D01*
X3678Y1402D02*
X3734Y1402D01*
X3745Y1402D02*
X3801Y1402D01*
X2680Y1401D02*
X2738Y1401D01*
X2747Y1401D02*
X2803Y1401D01*
X3678Y1401D02*
X3735Y1401D01*
X3744Y1401D02*
X3800Y1401D01*
X2681Y1400D02*
X2739Y1400D01*
X2746Y1400D02*
X2803Y1400D01*
X3678Y1400D02*
X3736Y1400D01*
X3743Y1400D02*
X3800Y1400D01*
X2681Y1399D02*
X2802Y1399D01*
X3678Y1399D02*
X3800Y1399D01*
X2681Y1398D02*
X2802Y1398D01*
X3679Y1398D02*
X3800Y1398D01*
X2681Y1397D02*
X2802Y1397D01*
X3679Y1397D02*
X3800Y1397D01*
X2682Y1396D02*
X2802Y1396D01*
X3679Y1396D02*
X3799Y1396D01*
X2682Y1395D02*
X2801Y1395D01*
X3679Y1395D02*
X3799Y1395D01*
X2682Y1394D02*
X2801Y1394D01*
X3680Y1394D02*
X3799Y1394D01*
X2683Y1393D02*
X2801Y1393D01*
X3680Y1393D02*
X3798Y1393D01*
X2683Y1392D02*
X2800Y1392D01*
X3681Y1392D02*
X3798Y1392D01*
X2683Y1391D02*
X2800Y1391D01*
X3681Y1391D02*
X3798Y1391D01*
X2684Y1390D02*
X2800Y1390D01*
X3681Y1390D02*
X3797Y1390D01*
X2684Y1389D02*
X2799Y1389D01*
X3682Y1389D02*
X3797Y1389D01*
X2685Y1388D02*
X2799Y1388D01*
X3682Y1388D02*
X3796Y1388D01*
X2685Y1387D02*
X2798Y1387D01*
X3683Y1387D02*
X3796Y1387D01*
X2686Y1386D02*
X2797Y1386D01*
X3684Y1386D02*
X3795Y1386D01*
X2687Y1385D02*
X2797Y1385D01*
X3684Y1385D02*
X3794Y1385D01*
X2687Y1384D02*
X2796Y1384D01*
X3685Y1384D02*
X3794Y1384D01*
X2688Y1383D02*
X2795Y1383D01*
X3686Y1383D02*
X3793Y1383D01*
X2689Y1382D02*
X2795Y1382D01*
X3686Y1382D02*
X3792Y1382D01*
X2690Y1381D02*
X2794Y1381D01*
X3687Y1381D02*
X3791Y1381D01*
X2691Y1380D02*
X2793Y1380D01*
X3688Y1380D02*
X3790Y1380D01*
X2692Y1379D02*
X2792Y1379D01*
X3689Y1379D02*
X3789Y1379D01*
X2693Y1378D02*
X2791Y1378D01*
X3690Y1378D02*
X3788Y1378D01*
X2694Y1377D02*
X2789Y1377D01*
X3692Y1377D02*
X3787Y1377D01*
X2695Y1376D02*
X2788Y1376D01*
X3693Y1376D02*
X3785Y1376D01*
X2697Y1375D02*
X2786Y1375D01*
X3695Y1375D02*
X3784Y1375D01*
X2699Y1374D02*
X2785Y1374D01*
X3696Y1374D02*
X3782Y1374D01*
X2701Y1373D02*
X2783Y1373D01*
X3698Y1373D02*
X3780Y1373D01*
X2703Y1372D02*
X2780Y1372D01*
X3701Y1372D02*
X3778Y1372D01*
X2706Y1371D02*
X2778Y1371D01*
X3703Y1371D02*
X3775Y1371D01*
X2710Y1370D02*
X2774Y1370D01*
X3707Y1370D02*
X3771Y1370D01*
X2712Y1341D02*
X2771Y1341D01*
X3710Y1341D02*
X3769Y1341D01*
X2708Y1340D02*
X2776Y1340D01*
X3705Y1340D02*
X3773Y1340D01*
X2704Y1339D02*
X2779Y1339D01*
X3702Y1339D02*
X3777Y1339D01*
X2702Y1338D02*
X2782Y1338D01*
X3699Y1338D02*
X3779Y1338D01*
X2700Y1337D02*
X2784Y1337D01*
X3697Y1337D02*
X3781Y1337D01*
X2698Y1336D02*
X2786Y1336D01*
X3695Y1336D02*
X3783Y1336D01*
X2696Y1335D02*
X2787Y1335D01*
X3694Y1335D02*
X3785Y1335D01*
X2695Y1334D02*
X2789Y1334D01*
X3692Y1334D02*
X3786Y1334D01*
X2693Y1333D02*
X2790Y1333D01*
X3691Y1333D02*
X3788Y1333D01*
X2692Y1332D02*
X2791Y1332D01*
X3690Y1332D02*
X3789Y1332D01*
X2691Y1331D02*
X2792Y1331D01*
X3689Y1331D02*
X3790Y1331D01*
X2690Y1330D02*
X2793Y1330D01*
X3688Y1330D02*
X3791Y1330D01*
X2689Y1329D02*
X2794Y1329D01*
X3687Y1329D02*
X3792Y1329D01*
X2688Y1328D02*
X2795Y1328D01*
X3686Y1328D02*
X3793Y1328D01*
X2688Y1327D02*
X2796Y1327D01*
X3685Y1327D02*
X3793Y1327D01*
X2687Y1326D02*
X2796Y1326D01*
X3684Y1326D02*
X3794Y1326D01*
X2686Y1325D02*
X2797Y1325D01*
X3684Y1325D02*
X3795Y1325D01*
X2686Y1324D02*
X2798Y1324D01*
X3683Y1324D02*
X3795Y1324D01*
X2685Y1323D02*
X2798Y1323D01*
X3683Y1323D02*
X3796Y1323D01*
X2685Y1322D02*
X2799Y1322D01*
X3682Y1322D02*
X3796Y1322D01*
X2684Y1321D02*
X2799Y1321D01*
X3682Y1321D02*
X3797Y1321D01*
X2684Y1320D02*
X2800Y1320D01*
X3681Y1320D02*
X3797Y1320D01*
X2683Y1319D02*
X2800Y1319D01*
X3681Y1319D02*
X3798Y1319D01*
X2683Y1318D02*
X2801Y1318D01*
X3680Y1318D02*
X3798Y1318D01*
X2682Y1317D02*
X2801Y1317D01*
X3680Y1317D02*
X3799Y1317D01*
X2682Y1316D02*
X2801Y1316D01*
X3680Y1316D02*
X3799Y1316D01*
X2682Y1315D02*
X2802Y1315D01*
X3678Y1315D02*
X3799Y1315D01*
X2681Y1314D02*
X2802Y1314D01*
X3678Y1314D02*
X3799Y1314D01*
X2681Y1313D02*
X2802Y1313D01*
X3678Y1313D02*
X3800Y1313D01*
X2681Y1312D02*
X2802Y1312D01*
X3678Y1312D02*
X3800Y1312D01*
X2681Y1311D02*
X2740Y1311D01*
X2745Y1311D02*
X2803Y1311D01*
X3678Y1311D02*
X3736Y1311D01*
X3742Y1311D02*
X3800Y1311D01*
X2681Y1310D02*
X2738Y1310D01*
X2747Y1310D02*
X2803Y1310D01*
X3678Y1310D02*
X3735Y1310D01*
X3743Y1310D02*
X3800Y1310D01*
X2680Y1309D02*
X2737Y1309D01*
X2748Y1309D02*
X2803Y1309D01*
X3678Y1309D02*
X3734Y1309D01*
X3744Y1309D02*
X3800Y1309D01*
X2680Y1308D02*
X2736Y1308D01*
X2748Y1308D02*
X2803Y1308D01*
X3678Y1308D02*
X3733Y1308D01*
X3745Y1308D02*
X3801Y1308D01*
X2680Y1307D02*
X2736Y1307D01*
X2749Y1307D02*
X2803Y1307D01*
X3678Y1307D02*
X3733Y1307D01*
X3746Y1307D02*
X3801Y1307D01*
X2680Y1306D02*
X2736Y1306D01*
X2749Y1306D02*
X2803Y1306D01*
X3678Y1306D02*
X3733Y1306D01*
X3746Y1306D02*
X3801Y1306D01*
X2680Y1305D02*
X2736Y1305D01*
X2749Y1305D02*
X2803Y1305D01*
X3678Y1305D02*
X3733Y1305D01*
X3746Y1305D02*
X3801Y1305D01*
X2680Y1304D02*
X2736Y1304D01*
X2749Y1304D02*
X2803Y1304D01*
X3678Y1304D02*
X3733Y1304D01*
X3746Y1304D02*
X3801Y1304D01*
X2680Y1303D02*
X2736Y1303D01*
X2749Y1303D02*
X2803Y1303D01*
X3678Y1303D02*
X3733Y1303D01*
X3745Y1303D02*
X3801Y1303D01*
X2680Y1302D02*
X2737Y1302D01*
X2748Y1302D02*
X2803Y1302D01*
X3678Y1302D02*
X3734Y1302D01*
X3745Y1302D02*
X3801Y1302D01*
X2681Y1301D02*
X2738Y1301D01*
X2747Y1301D02*
X2803Y1301D01*
X3678Y1301D02*
X3735Y1301D01*
X3744Y1301D02*
X3800Y1301D01*
X2681Y1300D02*
X2739Y1300D01*
X2746Y1300D02*
X2803Y1300D01*
X3678Y1300D02*
X3736Y1300D01*
X3743Y1300D02*
X3800Y1300D01*
X2681Y1299D02*
X2802Y1299D01*
X3678Y1299D02*
X3800Y1299D01*
X2681Y1298D02*
X2802Y1298D01*
X3679Y1298D02*
X3800Y1298D01*
X2681Y1297D02*
X2802Y1297D01*
X3679Y1297D02*
X3800Y1297D01*
X2682Y1296D02*
X2802Y1296D01*
X3679Y1296D02*
X3799Y1296D01*
X2682Y1295D02*
X2801Y1295D01*
X3679Y1295D02*
X3799Y1295D01*
X2682Y1294D02*
X2801Y1294D01*
X3680Y1294D02*
X3799Y1294D01*
X2683Y1293D02*
X2801Y1293D01*
X3680Y1293D02*
X3798Y1293D01*
X2683Y1292D02*
X2800Y1292D01*
X3681Y1292D02*
X3798Y1292D01*
X2683Y1291D02*
X2800Y1291D01*
X3681Y1291D02*
X3798Y1291D01*
X2684Y1290D02*
X2800Y1290D01*
X3681Y1290D02*
X3797Y1290D01*
X2684Y1289D02*
X2799Y1289D01*
X3682Y1289D02*
X3797Y1289D01*
X2685Y1288D02*
X2799Y1288D01*
X3682Y1288D02*
X3796Y1288D01*
X2685Y1287D02*
X2798Y1287D01*
X3683Y1287D02*
X3796Y1287D01*
X2686Y1286D02*
X2797Y1286D01*
X3684Y1286D02*
X3795Y1286D01*
X2687Y1285D02*
X2797Y1285D01*
X3684Y1285D02*
X3794Y1285D01*
X2687Y1284D02*
X2796Y1284D01*
X3685Y1284D02*
X3794Y1284D01*
X2688Y1283D02*
X2795Y1283D01*
X3686Y1283D02*
X3793Y1283D01*
X2689Y1282D02*
X2795Y1282D01*
X3686Y1282D02*
X3792Y1282D01*
X2690Y1281D02*
X2794Y1281D01*
X3687Y1281D02*
X3791Y1281D01*
X2691Y1280D02*
X2793Y1280D01*
X3688Y1280D02*
X3790Y1280D01*
X2692Y1279D02*
X2792Y1279D01*
X3689Y1279D02*
X3789Y1279D01*
X2693Y1278D02*
X2791Y1278D01*
X3690Y1278D02*
X3788Y1278D01*
X2694Y1277D02*
X2789Y1277D01*
X3692Y1277D02*
X3787Y1277D01*
X2695Y1276D02*
X2788Y1276D01*
X3693Y1276D02*
X3785Y1276D01*
X2697Y1275D02*
X2786Y1275D01*
X3695Y1275D02*
X3784Y1275D01*
X2699Y1274D02*
X2785Y1274D01*
X3696Y1274D02*
X3782Y1274D01*
X2701Y1273D02*
X2783Y1273D01*
X3698Y1273D02*
X3780Y1273D01*
X2703Y1272D02*
X2780Y1272D01*
X3701Y1272D02*
X3778Y1272D01*
X2706Y1271D02*
X2778Y1271D01*
X3703Y1271D02*
X3775Y1271D01*
X2710Y1270D02*
X2774Y1270D01*
X3707Y1270D02*
X3771Y1270D01*
X2712Y1241D02*
X2771Y1241D01*
X3710Y1241D02*
X3769Y1241D01*
X2707Y1240D02*
X2776Y1240D01*
X3705Y1240D02*
X3773Y1240D01*
X2704Y1239D02*
X2779Y1239D01*
X3702Y1239D02*
X3777Y1239D01*
X2702Y1238D02*
X2782Y1238D01*
X3699Y1238D02*
X3779Y1238D01*
X2700Y1237D02*
X2784Y1237D01*
X3697Y1237D02*
X3781Y1237D01*
X2698Y1236D02*
X2786Y1236D01*
X3695Y1236D02*
X3783Y1236D01*
X2696Y1235D02*
X2787Y1235D01*
X3694Y1235D02*
X3785Y1235D01*
X2695Y1234D02*
X2789Y1234D01*
X3692Y1234D02*
X3786Y1234D01*
X2693Y1233D02*
X2790Y1233D01*
X3691Y1233D02*
X3788Y1233D01*
X2692Y1232D02*
X2791Y1232D01*
X3690Y1232D02*
X3789Y1232D01*
X2691Y1231D02*
X2792Y1231D01*
X3689Y1231D02*
X3790Y1231D01*
X2690Y1230D02*
X2793Y1230D01*
X3688Y1230D02*
X3791Y1230D01*
X2689Y1229D02*
X2794Y1229D01*
X3687Y1229D02*
X3792Y1229D01*
X2688Y1228D02*
X2795Y1228D01*
X3686Y1228D02*
X3793Y1228D01*
X2688Y1227D02*
X2796Y1227D01*
X3685Y1227D02*
X3793Y1227D01*
X2687Y1226D02*
X2796Y1226D01*
X3684Y1226D02*
X3794Y1226D01*
X2686Y1225D02*
X2797Y1225D01*
X3684Y1225D02*
X3795Y1225D01*
X2686Y1224D02*
X2798Y1224D01*
X3683Y1224D02*
X3795Y1224D01*
X2685Y1223D02*
X2798Y1223D01*
X3683Y1223D02*
X3796Y1223D01*
X2685Y1222D02*
X2799Y1222D01*
X3682Y1222D02*
X3796Y1222D01*
X2684Y1221D02*
X2799Y1221D01*
X3682Y1221D02*
X3797Y1221D01*
X2684Y1220D02*
X2800Y1220D01*
X3681Y1220D02*
X3797Y1220D01*
X2683Y1219D02*
X2800Y1219D01*
X3681Y1219D02*
X3798Y1219D01*
X2683Y1218D02*
X2801Y1218D01*
X3680Y1218D02*
X3798Y1218D01*
X2682Y1217D02*
X2801Y1217D01*
X3680Y1217D02*
X3799Y1217D01*
X2682Y1216D02*
X2801Y1216D01*
X3680Y1216D02*
X3799Y1216D01*
X2682Y1215D02*
X2802Y1215D01*
X3679Y1215D02*
X3799Y1215D01*
X2681Y1214D02*
X2802Y1214D01*
X3679Y1214D02*
X3799Y1214D01*
X2681Y1213D02*
X2802Y1213D01*
X3679Y1213D02*
X3800Y1213D01*
X2681Y1212D02*
X2802Y1212D01*
X3679Y1212D02*
X3800Y1212D01*
X2681Y1211D02*
X2740Y1211D01*
X2745Y1211D02*
X2803Y1211D01*
X3678Y1211D02*
X3736Y1211D01*
X3742Y1211D02*
X3800Y1211D01*
X2681Y1210D02*
X2738Y1210D01*
X2747Y1210D02*
X2803Y1210D01*
X3678Y1210D02*
X3735Y1210D01*
X3744Y1210D02*
X3800Y1210D01*
X2680Y1209D02*
X2737Y1209D01*
X2748Y1209D02*
X2803Y1209D01*
X3678Y1209D02*
X3734Y1209D01*
X3745Y1209D02*
X3800Y1209D01*
X2680Y1208D02*
X2736Y1208D01*
X2748Y1208D02*
X2803Y1208D01*
X3678Y1208D02*
X3733Y1208D01*
X3745Y1208D02*
X3801Y1208D01*
X2680Y1207D02*
X2736Y1207D01*
X2749Y1207D02*
X2803Y1207D01*
X3678Y1207D02*
X3733Y1207D01*
X3746Y1207D02*
X3801Y1207D01*
X2680Y1206D02*
X2736Y1206D01*
X2749Y1206D02*
X2803Y1206D01*
X3678Y1206D02*
X3733Y1206D01*
X3746Y1206D02*
X3801Y1206D01*
X2680Y1205D02*
X2736Y1205D01*
X2749Y1205D02*
X2803Y1205D01*
X3678Y1205D02*
X3732Y1205D01*
X3746Y1205D02*
X3801Y1205D01*
X2680Y1204D02*
X2736Y1204D01*
X2749Y1204D02*
X2803Y1204D01*
X3678Y1204D02*
X3733Y1204D01*
X3746Y1204D02*
X3801Y1204D01*
X2680Y1203D02*
X2736Y1203D01*
X2749Y1203D02*
X2803Y1203D01*
X3678Y1203D02*
X3733Y1203D01*
X3745Y1203D02*
X3801Y1203D01*
X2680Y1202D02*
X2737Y1202D01*
X2748Y1202D02*
X2803Y1202D01*
X3678Y1202D02*
X3733Y1202D01*
X3745Y1202D02*
X3801Y1202D01*
X2681Y1201D02*
X2738Y1201D01*
X2747Y1201D02*
X2803Y1201D01*
X3678Y1201D02*
X3734Y1201D01*
X3744Y1201D02*
X3800Y1201D01*
X2681Y1200D02*
X2739Y1200D01*
X2746Y1200D02*
X2803Y1200D01*
X3678Y1200D02*
X3736Y1200D01*
X3743Y1200D02*
X3800Y1200D01*
X2681Y1199D02*
X2802Y1199D01*
X3678Y1199D02*
X3800Y1199D01*
X2681Y1198D02*
X2802Y1198D01*
X3679Y1198D02*
X3800Y1198D01*
X2681Y1197D02*
X2802Y1197D01*
X3679Y1197D02*
X3800Y1197D01*
X2682Y1196D02*
X2802Y1196D01*
X3679Y1196D02*
X3799Y1196D01*
X2682Y1195D02*
X2801Y1195D01*
X3679Y1195D02*
X3799Y1195D01*
X2682Y1194D02*
X2801Y1194D01*
X3680Y1194D02*
X3799Y1194D01*
X2683Y1193D02*
X2801Y1193D01*
X3680Y1193D02*
X3798Y1193D01*
X2683Y1192D02*
X2800Y1192D01*
X3681Y1192D02*
X3798Y1192D01*
X2683Y1191D02*
X2800Y1191D01*
X3681Y1191D02*
X3798Y1191D01*
X2684Y1190D02*
X2800Y1190D01*
X3681Y1190D02*
X3797Y1190D01*
X2684Y1189D02*
X2799Y1189D01*
X3682Y1189D02*
X3797Y1189D01*
X2685Y1188D02*
X2799Y1188D01*
X3682Y1188D02*
X3796Y1188D01*
X2685Y1187D02*
X2798Y1187D01*
X3683Y1187D02*
X3796Y1187D01*
X2686Y1186D02*
X2797Y1186D01*
X3684Y1186D02*
X3795Y1186D01*
X2687Y1185D02*
X2797Y1185D01*
X3684Y1185D02*
X3794Y1185D01*
X2687Y1184D02*
X2796Y1184D01*
X3685Y1184D02*
X3794Y1184D01*
X2688Y1183D02*
X2795Y1183D01*
X3686Y1183D02*
X3793Y1183D01*
X2689Y1182D02*
X2795Y1182D01*
X3686Y1182D02*
X3792Y1182D01*
X2690Y1181D02*
X2794Y1181D01*
X3687Y1181D02*
X3791Y1181D01*
X2691Y1180D02*
X2793Y1180D01*
X3688Y1180D02*
X3790Y1180D01*
X2692Y1179D02*
X2792Y1179D01*
X3689Y1179D02*
X3789Y1179D01*
X2693Y1178D02*
X2791Y1178D01*
X3690Y1178D02*
X3788Y1178D01*
X2694Y1177D02*
X2789Y1177D01*
X3692Y1177D02*
X3787Y1177D01*
X2695Y1176D02*
X2788Y1176D01*
X3693Y1176D02*
X3785Y1176D01*
X2697Y1175D02*
X2786Y1175D01*
X3695Y1175D02*
X3784Y1175D01*
X2699Y1174D02*
X2785Y1174D01*
X3696Y1174D02*
X3782Y1174D01*
X2701Y1173D02*
X2783Y1173D01*
X3698Y1173D02*
X3780Y1173D01*
X2703Y1172D02*
X2780Y1172D01*
X3701Y1172D02*
X3778Y1172D01*
X2706Y1171D02*
X2778Y1171D01*
X3703Y1171D02*
X3775Y1171D01*
X2710Y1170D02*
X2774Y1170D01*
X3707Y1170D02*
X3771Y1170D01*
X2712Y1141D02*
X2771Y1141D01*
X3710Y1141D02*
X3769Y1141D01*
X2707Y1140D02*
X2776Y1140D01*
X3705Y1140D02*
X3773Y1140D01*
X2704Y1139D02*
X2779Y1139D01*
X3702Y1139D02*
X3777Y1139D01*
X2702Y1138D02*
X2782Y1138D01*
X3699Y1138D02*
X3779Y1138D01*
X2700Y1137D02*
X2784Y1137D01*
X3697Y1137D02*
X3781Y1137D01*
X2698Y1136D02*
X2786Y1136D01*
X3695Y1136D02*
X3783Y1136D01*
X2696Y1135D02*
X2787Y1135D01*
X3694Y1135D02*
X3785Y1135D01*
X2695Y1134D02*
X2789Y1134D01*
X3692Y1134D02*
X3786Y1134D01*
X2693Y1133D02*
X2790Y1133D01*
X3691Y1133D02*
X3788Y1133D01*
X2692Y1132D02*
X2791Y1132D01*
X3690Y1132D02*
X3789Y1132D01*
X2691Y1131D02*
X2792Y1131D01*
X3689Y1131D02*
X3790Y1131D01*
X2690Y1130D02*
X2793Y1130D01*
X3688Y1130D02*
X3791Y1130D01*
X2689Y1129D02*
X2794Y1129D01*
X3687Y1129D02*
X3792Y1129D01*
X2688Y1128D02*
X2795Y1128D01*
X3686Y1128D02*
X3793Y1128D01*
X2688Y1127D02*
X2796Y1127D01*
X3685Y1127D02*
X3793Y1127D01*
X2687Y1126D02*
X2796Y1126D01*
X3684Y1126D02*
X3794Y1126D01*
X2686Y1125D02*
X2797Y1125D01*
X3684Y1125D02*
X3795Y1125D01*
X2686Y1124D02*
X2798Y1124D01*
X3683Y1124D02*
X3795Y1124D01*
X2685Y1123D02*
X2798Y1123D01*
X3683Y1123D02*
X3796Y1123D01*
X2684Y1122D02*
X2799Y1122D01*
X3682Y1122D02*
X3796Y1122D01*
X2684Y1121D02*
X2799Y1121D01*
X3682Y1121D02*
X3797Y1121D01*
X2684Y1120D02*
X2800Y1120D01*
X3681Y1120D02*
X3797Y1120D01*
X2683Y1119D02*
X2800Y1119D01*
X3681Y1119D02*
X3798Y1119D01*
X2683Y1118D02*
X2801Y1118D01*
X3680Y1118D02*
X3798Y1118D01*
X2682Y1117D02*
X2801Y1117D01*
X3680Y1117D02*
X3799Y1117D01*
X2682Y1116D02*
X2801Y1116D01*
X3680Y1116D02*
X3799Y1116D01*
X2682Y1115D02*
X2802Y1115D01*
X3679Y1115D02*
X3799Y1115D01*
X2681Y1114D02*
X2802Y1114D01*
X3679Y1114D02*
X3799Y1114D01*
X2681Y1113D02*
X2802Y1113D01*
X3679Y1113D02*
X3800Y1113D01*
X2681Y1112D02*
X2802Y1112D01*
X3679Y1112D02*
X3800Y1112D01*
X2681Y1111D02*
X2740Y1111D01*
X2745Y1111D02*
X2803Y1111D01*
X3678Y1111D02*
X3737Y1111D01*
X3742Y1111D02*
X3800Y1111D01*
X2681Y1110D02*
X2738Y1110D01*
X2747Y1110D02*
X2803Y1110D01*
X3678Y1110D02*
X3735Y1110D01*
X3743Y1110D02*
X3800Y1110D01*
X2680Y1109D02*
X2737Y1109D01*
X2748Y1109D02*
X2803Y1109D01*
X3678Y1109D02*
X3734Y1109D01*
X3744Y1109D02*
X3800Y1109D01*
X2680Y1108D02*
X2737Y1108D01*
X2748Y1108D02*
X2803Y1108D01*
X3678Y1108D02*
X3733Y1108D01*
X3745Y1108D02*
X3801Y1108D01*
X2680Y1107D02*
X2736Y1107D01*
X2749Y1107D02*
X2803Y1107D01*
X3678Y1107D02*
X3733Y1107D01*
X3746Y1107D02*
X3801Y1107D01*
X2680Y1106D02*
X2736Y1106D01*
X2749Y1106D02*
X2803Y1106D01*
X3678Y1106D02*
X3733Y1106D01*
X3746Y1106D02*
X3801Y1106D01*
X2680Y1105D02*
X2736Y1105D01*
X2749Y1105D02*
X2803Y1105D01*
X3678Y1105D02*
X3733Y1105D01*
X3746Y1105D02*
X3801Y1105D01*
X2680Y1104D02*
X2736Y1104D01*
X2749Y1104D02*
X2803Y1104D01*
X3678Y1104D02*
X3733Y1104D01*
X3746Y1104D02*
X3801Y1104D01*
X2680Y1103D02*
X2736Y1103D01*
X2748Y1103D02*
X2803Y1103D01*
X3678Y1103D02*
X3733Y1103D01*
X3745Y1103D02*
X3801Y1103D01*
X2680Y1102D02*
X2737Y1102D01*
X2748Y1102D02*
X2803Y1102D01*
X3678Y1102D02*
X3734Y1102D01*
X3745Y1102D02*
X3800Y1102D01*
X2680Y1101D02*
X2738Y1101D01*
X2747Y1101D02*
X2803Y1101D01*
X3678Y1101D02*
X3734Y1101D01*
X3744Y1101D02*
X3800Y1101D01*
X2681Y1100D02*
X2739Y1100D01*
X2746Y1100D02*
X2803Y1100D01*
X3678Y1100D02*
X3736Y1100D01*
X3742Y1100D02*
X3800Y1100D01*
X2681Y1099D02*
X2802Y1099D01*
X3678Y1099D02*
X3800Y1099D01*
X2681Y1098D02*
X2802Y1098D01*
X3679Y1098D02*
X3800Y1098D01*
X2681Y1097D02*
X2802Y1097D01*
X3679Y1097D02*
X3800Y1097D01*
X2682Y1096D02*
X2802Y1096D01*
X3679Y1096D02*
X3799Y1096D01*
X2682Y1095D02*
X2801Y1095D01*
X3679Y1095D02*
X3799Y1095D01*
X2682Y1094D02*
X2801Y1094D01*
X3680Y1094D02*
X3799Y1094D01*
X2683Y1093D02*
X2801Y1093D01*
X3680Y1093D02*
X3798Y1093D01*
X2683Y1092D02*
X2800Y1092D01*
X3680Y1092D02*
X3798Y1092D01*
X2683Y1091D02*
X2800Y1091D01*
X3681Y1091D02*
X3798Y1091D01*
X2684Y1090D02*
X2800Y1090D01*
X3681Y1090D02*
X3797Y1090D01*
X2684Y1089D02*
X2799Y1089D01*
X3682Y1089D02*
X3797Y1089D01*
X2685Y1088D02*
X2799Y1088D01*
X3682Y1088D02*
X3796Y1088D01*
X2685Y1087D02*
X2798Y1087D01*
X3683Y1087D02*
X3796Y1087D01*
X2686Y1086D02*
X2797Y1086D01*
X3684Y1086D02*
X3795Y1086D01*
X2687Y1085D02*
X2797Y1085D01*
X3684Y1085D02*
X3794Y1085D01*
X2687Y1084D02*
X2796Y1084D01*
X3685Y1084D02*
X3794Y1084D01*
X2688Y1083D02*
X2795Y1083D01*
X3686Y1083D02*
X3793Y1083D01*
X2689Y1082D02*
X2795Y1082D01*
X3686Y1082D02*
X3792Y1082D01*
X2690Y1081D02*
X2794Y1081D01*
X3687Y1081D02*
X3791Y1081D01*
X2691Y1080D02*
X2793Y1080D01*
X3688Y1080D02*
X3790Y1080D01*
X2692Y1079D02*
X2792Y1079D01*
X3689Y1079D02*
X3789Y1079D01*
X2693Y1078D02*
X2791Y1078D01*
X3690Y1078D02*
X3788Y1078D01*
X2694Y1077D02*
X2789Y1077D01*
X3692Y1077D02*
X3787Y1077D01*
X2695Y1076D02*
X2788Y1076D01*
X3693Y1076D02*
X3785Y1076D01*
X2697Y1075D02*
X2786Y1075D01*
X3695Y1075D02*
X3784Y1075D01*
X2699Y1074D02*
X2785Y1074D01*
X3696Y1074D02*
X3782Y1074D01*
X2701Y1073D02*
X2783Y1073D01*
X3698Y1073D02*
X3780Y1073D01*
X2703Y1072D02*
X2780Y1072D01*
X3701Y1072D02*
X3778Y1072D01*
X2706Y1071D02*
X2778Y1071D01*
X3703Y1071D02*
X3775Y1071D01*
X2710Y1070D02*
X2774Y1070D01*
X3707Y1070D02*
X3771Y1070D01*
X2712Y1041D02*
X2771Y1041D01*
X3710Y1041D02*
X3769Y1041D01*
X2707Y1040D02*
X2776Y1040D01*
X3705Y1040D02*
X3773Y1040D01*
X2704Y1039D02*
X2779Y1039D01*
X3702Y1039D02*
X3777Y1039D01*
X2702Y1038D02*
X2782Y1038D01*
X3699Y1038D02*
X3779Y1038D01*
X2700Y1037D02*
X2784Y1037D01*
X3697Y1037D02*
X3781Y1037D01*
X2698Y1036D02*
X2786Y1036D01*
X3695Y1036D02*
X3783Y1036D01*
X2696Y1035D02*
X2787Y1035D01*
X3694Y1035D02*
X3785Y1035D01*
X2695Y1034D02*
X2789Y1034D01*
X3692Y1034D02*
X3786Y1034D01*
X2693Y1033D02*
X2790Y1033D01*
X3691Y1033D02*
X3788Y1033D01*
X2692Y1032D02*
X2791Y1032D01*
X3690Y1032D02*
X3789Y1032D01*
X2691Y1031D02*
X2792Y1031D01*
X3689Y1031D02*
X3790Y1031D01*
X2690Y1030D02*
X2793Y1030D01*
X3688Y1030D02*
X3791Y1030D01*
X2689Y1029D02*
X2794Y1029D01*
X3687Y1029D02*
X3792Y1029D01*
X2688Y1028D02*
X2795Y1028D01*
X3686Y1028D02*
X3793Y1028D01*
X2688Y1027D02*
X2796Y1027D01*
X3685Y1027D02*
X3793Y1027D01*
X2687Y1026D02*
X2796Y1026D01*
X3684Y1026D02*
X3794Y1026D01*
X2686Y1025D02*
X2797Y1025D01*
X3684Y1025D02*
X3795Y1025D01*
X2686Y1024D02*
X2798Y1024D01*
X3683Y1024D02*
X3795Y1024D01*
X2685Y1023D02*
X2798Y1023D01*
X3683Y1023D02*
X3796Y1023D01*
X2685Y1022D02*
X2799Y1022D01*
X3682Y1022D02*
X3796Y1022D01*
X2684Y1021D02*
X2799Y1021D01*
X3682Y1021D02*
X3797Y1021D01*
X2684Y1020D02*
X2800Y1020D01*
X3681Y1020D02*
X3797Y1020D01*
X2683Y1019D02*
X2800Y1019D01*
X3681Y1019D02*
X3798Y1019D01*
X2683Y1018D02*
X2801Y1018D01*
X3680Y1018D02*
X3798Y1018D01*
X2682Y1017D02*
X2801Y1017D01*
X3680Y1017D02*
X3799Y1017D01*
X2682Y1016D02*
X2801Y1016D01*
X3680Y1016D02*
X3799Y1016D01*
X2682Y1015D02*
X2802Y1015D01*
X3679Y1015D02*
X3799Y1015D01*
X2681Y1014D02*
X2802Y1014D01*
X3679Y1014D02*
X3799Y1014D01*
X2681Y1013D02*
X2802Y1013D01*
X3679Y1013D02*
X3800Y1013D01*
X2681Y1012D02*
X2802Y1012D01*
X3679Y1012D02*
X3800Y1012D01*
X2681Y1011D02*
X2740Y1011D01*
X2745Y1011D02*
X2803Y1011D01*
X3678Y1011D02*
X3736Y1011D01*
X3742Y1011D02*
X3800Y1011D01*
X2681Y1010D02*
X2738Y1010D01*
X2747Y1010D02*
X2803Y1010D01*
X3678Y1010D02*
X3735Y1010D01*
X3743Y1010D02*
X3800Y1010D01*
X2680Y1009D02*
X2737Y1009D01*
X2748Y1009D02*
X2803Y1009D01*
X3678Y1009D02*
X3734Y1009D01*
X3744Y1009D02*
X3800Y1009D01*
X2680Y1008D02*
X2736Y1008D01*
X2748Y1008D02*
X2803Y1008D01*
X3678Y1008D02*
X3733Y1008D01*
X3745Y1008D02*
X3801Y1008D01*
X2680Y1007D02*
X2736Y1007D01*
X2749Y1007D02*
X2803Y1007D01*
X3678Y1007D02*
X3733Y1007D01*
X3746Y1007D02*
X3801Y1007D01*
X2680Y1006D02*
X2736Y1006D01*
X2749Y1006D02*
X2803Y1006D01*
X3678Y1006D02*
X3733Y1006D01*
X3746Y1006D02*
X3801Y1006D01*
X2680Y1005D02*
X2736Y1005D01*
X2749Y1005D02*
X2803Y1005D01*
X3678Y1005D02*
X3733Y1005D01*
X3746Y1005D02*
X3801Y1005D01*
X2680Y1004D02*
X2736Y1004D01*
X2749Y1004D02*
X2803Y1004D01*
X3678Y1004D02*
X3733Y1004D01*
X3746Y1004D02*
X3801Y1004D01*
X2680Y1003D02*
X2736Y1003D01*
X2749Y1003D02*
X2803Y1003D01*
X3678Y1003D02*
X3733Y1003D01*
X3745Y1003D02*
X3801Y1003D01*
X2680Y1002D02*
X2737Y1002D01*
X2748Y1002D02*
X2803Y1002D01*
X3678Y1002D02*
X3734Y1002D01*
X3745Y1002D02*
X3800Y1002D01*
X2681Y1001D02*
X2738Y1001D01*
X2747Y1001D02*
X2803Y1001D01*
X3678Y1001D02*
X3735Y1001D01*
X3744Y1001D02*
X3800Y1001D01*
X2681Y1000D02*
X2739Y1000D01*
X2746Y1000D02*
X2803Y1000D01*
X3678Y1000D02*
X3736Y1000D01*
X3743Y1000D02*
X3800Y1000D01*
X2681Y999D02*
X2802Y999D01*
X3678Y999D02*
X3800Y999D01*
X2681Y998D02*
X2802Y998D01*
X3679Y998D02*
X3800Y998D01*
X2681Y997D02*
X2802Y997D01*
X3679Y997D02*
X3800Y997D01*
X2682Y996D02*
X2802Y996D01*
X3679Y996D02*
X3799Y996D01*
X2682Y995D02*
X2801Y995D01*
X3679Y995D02*
X3799Y995D01*
X2682Y994D02*
X2801Y994D01*
X3680Y994D02*
X3799Y994D01*
X2683Y993D02*
X2801Y993D01*
X3680Y993D02*
X3798Y993D01*
X2683Y992D02*
X2800Y992D01*
X3681Y992D02*
X3798Y992D01*
X2683Y991D02*
X2800Y991D01*
X3681Y991D02*
X3798Y991D01*
X2684Y990D02*
X2800Y990D01*
X3681Y990D02*
X3797Y990D01*
X2684Y989D02*
X2799Y989D01*
X3682Y989D02*
X3797Y989D01*
X2685Y988D02*
X2799Y988D01*
X3682Y988D02*
X3796Y988D01*
X2685Y987D02*
X2798Y987D01*
X3683Y987D02*
X3795Y987D01*
X2686Y986D02*
X2797Y986D01*
X3684Y986D02*
X3795Y986D01*
X2687Y985D02*
X2797Y985D01*
X3684Y985D02*
X3794Y985D01*
X2687Y984D02*
X2796Y984D01*
X3685Y984D02*
X3794Y984D01*
X2688Y983D02*
X2795Y983D01*
X3686Y983D02*
X3793Y983D01*
X2689Y982D02*
X2795Y982D01*
X3686Y982D02*
X3792Y982D01*
X2690Y981D02*
X2794Y981D01*
X3687Y981D02*
X3791Y981D01*
X2691Y980D02*
X2793Y980D01*
X3688Y980D02*
X3790Y980D01*
X2692Y979D02*
X2792Y979D01*
X3689Y979D02*
X3789Y979D01*
X2693Y978D02*
X2791Y978D01*
X3690Y978D02*
X3788Y978D01*
X2694Y977D02*
X2789Y977D01*
X3692Y977D02*
X3787Y977D01*
X2695Y976D02*
X2788Y976D01*
X3693Y976D02*
X3785Y976D01*
X2697Y975D02*
X2786Y975D01*
X3695Y975D02*
X3784Y975D01*
X2699Y974D02*
X2785Y974D01*
X3696Y974D02*
X3782Y974D01*
X2701Y973D02*
X2783Y973D01*
X3698Y973D02*
X3780Y973D01*
X2703Y972D02*
X2780Y972D01*
X3701Y972D02*
X3778Y972D01*
X2706Y971D02*
X2778Y971D01*
X3703Y971D02*
X3775Y971D01*
X2710Y970D02*
X2774Y970D01*
X3707Y970D02*
X3771Y970D01*
X2712Y941D02*
X2771Y941D01*
X3710Y941D02*
X3769Y941D01*
X2707Y940D02*
X2776Y940D01*
X3705Y940D02*
X3773Y940D01*
X2704Y939D02*
X2779Y939D01*
X3702Y939D02*
X3777Y939D01*
X2702Y938D02*
X2782Y938D01*
X3699Y938D02*
X3779Y938D01*
X2700Y937D02*
X2784Y937D01*
X3697Y937D02*
X3781Y937D01*
X2698Y936D02*
X2786Y936D01*
X3695Y936D02*
X3783Y936D01*
X2696Y935D02*
X2787Y935D01*
X3694Y935D02*
X3785Y935D01*
X2695Y934D02*
X2789Y934D01*
X3692Y934D02*
X3786Y934D01*
X2693Y933D02*
X2790Y933D01*
X3691Y933D02*
X3788Y933D01*
X2692Y932D02*
X2791Y932D01*
X3690Y932D02*
X3789Y932D01*
X2691Y931D02*
X2792Y931D01*
X3689Y931D02*
X3790Y931D01*
X2690Y930D02*
X2793Y930D01*
X3688Y930D02*
X3791Y930D01*
X2689Y929D02*
X2794Y929D01*
X3687Y929D02*
X3792Y929D01*
X2688Y928D02*
X2795Y928D01*
X3686Y928D02*
X3793Y928D01*
X2688Y927D02*
X2796Y927D01*
X3685Y927D02*
X3793Y927D01*
X2687Y926D02*
X2796Y926D01*
X3684Y926D02*
X3794Y926D01*
X2686Y925D02*
X2797Y925D01*
X3684Y925D02*
X3795Y925D01*
X2686Y924D02*
X2798Y924D01*
X3683Y924D02*
X3795Y924D01*
X2685Y923D02*
X2798Y923D01*
X3683Y923D02*
X3796Y923D01*
X2685Y922D02*
X2799Y922D01*
X3682Y922D02*
X3796Y922D01*
X2684Y921D02*
X2799Y921D01*
X3682Y921D02*
X3797Y921D01*
X2684Y920D02*
X2800Y920D01*
X3681Y920D02*
X3797Y920D01*
X2683Y919D02*
X2800Y919D01*
X3681Y919D02*
X3798Y919D01*
X2683Y918D02*
X2801Y918D01*
X3680Y918D02*
X3798Y918D01*
X2682Y917D02*
X2801Y917D01*
X3680Y917D02*
X3799Y917D01*
X2682Y916D02*
X2801Y916D01*
X3680Y916D02*
X3799Y916D01*
X2682Y915D02*
X2802Y915D01*
X3679Y915D02*
X3799Y915D01*
X2681Y914D02*
X2802Y914D01*
X3679Y914D02*
X3799Y914D01*
X2681Y913D02*
X2802Y913D01*
X3679Y913D02*
X3800Y913D01*
X2681Y912D02*
X2802Y912D01*
X3679Y912D02*
X3800Y912D01*
X2681Y911D02*
X2740Y911D01*
X2745Y911D02*
X2803Y911D01*
X3678Y911D02*
X3736Y911D01*
X3742Y911D02*
X3800Y911D01*
X2681Y910D02*
X2738Y910D01*
X2747Y910D02*
X2803Y910D01*
X3678Y910D02*
X3735Y910D01*
X3743Y910D02*
X3800Y910D01*
X2680Y909D02*
X2737Y909D01*
X2748Y909D02*
X2803Y909D01*
X3678Y909D02*
X3734Y909D01*
X3744Y909D02*
X3800Y909D01*
X2680Y908D02*
X2736Y908D01*
X2748Y908D02*
X2803Y908D01*
X3678Y908D02*
X3733Y908D01*
X3745Y908D02*
X3801Y908D01*
X2680Y907D02*
X2736Y907D01*
X2749Y907D02*
X2803Y907D01*
X3678Y907D02*
X3733Y907D01*
X3746Y907D02*
X3801Y907D01*
X2680Y906D02*
X2736Y906D01*
X2749Y906D02*
X2803Y906D01*
X3678Y906D02*
X3733Y906D01*
X3746Y906D02*
X3801Y906D01*
X2680Y905D02*
X2736Y905D01*
X2749Y905D02*
X2803Y905D01*
X3678Y905D02*
X3733Y905D01*
X3746Y905D02*
X3801Y905D01*
X2680Y904D02*
X2736Y904D01*
X2749Y904D02*
X2803Y904D01*
X3678Y904D02*
X3733Y904D01*
X3746Y904D02*
X3801Y904D01*
X2680Y903D02*
X2736Y903D01*
X2749Y903D02*
X2803Y903D01*
X3678Y903D02*
X3733Y903D01*
X3745Y903D02*
X3801Y903D01*
X2680Y902D02*
X2737Y902D01*
X2748Y902D02*
X2803Y902D01*
X3678Y902D02*
X3734Y902D01*
X3745Y902D02*
X3800Y902D01*
X2681Y901D02*
X2738Y901D01*
X2747Y901D02*
X2803Y901D01*
X3678Y901D02*
X3735Y901D01*
X3744Y901D02*
X3800Y901D01*
X2681Y900D02*
X2739Y900D01*
X2746Y900D02*
X2803Y900D01*
X3678Y900D02*
X3736Y900D01*
X3743Y900D02*
X3800Y900D01*
X2681Y899D02*
X2802Y899D01*
X3678Y899D02*
X3800Y899D01*
X2681Y898D02*
X2802Y898D01*
X3679Y898D02*
X3800Y898D01*
X2681Y897D02*
X2802Y897D01*
X3679Y897D02*
X3800Y897D01*
X2682Y896D02*
X2802Y896D01*
X3679Y896D02*
X3799Y896D01*
X2682Y895D02*
X2801Y895D01*
X3679Y895D02*
X3799Y895D01*
X2682Y894D02*
X2801Y894D01*
X3680Y894D02*
X3799Y894D01*
X2683Y893D02*
X2801Y893D01*
X3680Y893D02*
X3798Y893D01*
X2683Y892D02*
X2800Y892D01*
X3680Y892D02*
X3798Y892D01*
X2683Y891D02*
X2800Y891D01*
X3681Y891D02*
X3798Y891D01*
X2684Y890D02*
X2800Y890D01*
X3681Y890D02*
X3797Y890D01*
X2684Y889D02*
X2799Y889D01*
X3682Y889D02*
X3797Y889D01*
X2685Y888D02*
X2799Y888D01*
X3682Y888D02*
X3796Y888D01*
X2685Y887D02*
X2798Y887D01*
X3683Y887D02*
X3796Y887D01*
X2686Y886D02*
X2797Y886D01*
X3684Y886D02*
X3795Y886D01*
X2687Y885D02*
X2797Y885D01*
X3684Y885D02*
X3794Y885D01*
X2687Y884D02*
X2796Y884D01*
X3685Y884D02*
X3794Y884D01*
X2688Y883D02*
X2795Y883D01*
X3686Y883D02*
X3793Y883D01*
X2689Y882D02*
X2795Y882D01*
X3686Y882D02*
X3792Y882D01*
X2690Y881D02*
X2794Y881D01*
X3687Y881D02*
X3791Y881D01*
X2691Y880D02*
X2793Y880D01*
X3688Y880D02*
X3790Y880D01*
X2692Y879D02*
X2792Y879D01*
X3689Y879D02*
X3789Y879D01*
X2693Y878D02*
X2791Y878D01*
X3690Y878D02*
X3788Y878D01*
X2694Y877D02*
X2789Y877D01*
X3692Y877D02*
X3787Y877D01*
X2695Y876D02*
X2788Y876D01*
X3693Y876D02*
X3785Y876D01*
X2697Y875D02*
X2786Y875D01*
X3695Y875D02*
X3784Y875D01*
X2699Y874D02*
X2785Y874D01*
X3696Y874D02*
X3782Y874D01*
X2701Y873D02*
X2783Y873D01*
X3698Y873D02*
X3780Y873D01*
X2703Y872D02*
X2780Y872D01*
X3701Y872D02*
X3778Y872D01*
X2706Y871D02*
X2778Y871D01*
X3703Y871D02*
X3775Y871D01*
X2710Y870D02*
X2774Y870D01*
X3707Y870D02*
X3771Y870D01*
X2712Y841D02*
X2771Y841D01*
X3711Y841D02*
X3770Y841D01*
X2707Y840D02*
X2776Y840D01*
X3706Y840D02*
X3774Y840D01*
X2704Y839D02*
X2779Y839D01*
X3703Y839D02*
X3778Y839D01*
X2702Y838D02*
X2782Y838D01*
X3700Y838D02*
X3780Y838D01*
X2700Y837D02*
X2784Y837D01*
X3698Y837D02*
X3782Y837D01*
X2698Y836D02*
X2786Y836D01*
X3696Y836D02*
X3784Y836D01*
X2696Y835D02*
X2787Y835D01*
X3695Y835D02*
X3786Y835D01*
X2695Y834D02*
X2789Y834D01*
X3693Y834D02*
X3787Y834D01*
X2693Y833D02*
X2790Y833D01*
X3692Y833D02*
X3789Y833D01*
X2692Y832D02*
X2791Y832D01*
X3691Y832D02*
X3790Y832D01*
X2691Y831D02*
X2792Y831D01*
X3690Y831D02*
X3791Y831D01*
X2690Y830D02*
X2793Y830D01*
X3689Y830D02*
X3792Y830D01*
X2689Y829D02*
X2794Y829D01*
X3688Y829D02*
X3793Y829D01*
X2688Y828D02*
X2795Y828D01*
X3687Y828D02*
X3794Y828D01*
X2688Y827D02*
X2796Y827D01*
X3686Y827D02*
X3794Y827D01*
X2687Y826D02*
X2796Y826D01*
X3685Y826D02*
X3795Y826D01*
X2686Y825D02*
X2797Y825D01*
X3685Y825D02*
X3796Y825D01*
X2686Y824D02*
X2798Y824D01*
X3684Y824D02*
X3796Y824D01*
X2685Y823D02*
X2798Y823D01*
X3684Y823D02*
X3797Y823D01*
X2685Y822D02*
X2799Y822D01*
X3683Y822D02*
X3797Y822D01*
X2684Y821D02*
X2799Y821D01*
X3683Y821D02*
X3798Y821D01*
X2684Y820D02*
X2800Y820D01*
X3682Y820D02*
X3798Y820D01*
X2683Y819D02*
X2800Y819D01*
X3682Y819D02*
X3799Y819D01*
X2683Y818D02*
X2801Y818D01*
X3681Y818D02*
X3799Y818D01*
X2682Y817D02*
X2801Y817D01*
X3681Y817D02*
X3800Y817D01*
X2682Y816D02*
X2801Y816D01*
X3681Y816D02*
X3800Y816D01*
X2682Y815D02*
X2802Y815D01*
X3680Y815D02*
X3800Y815D01*
X2681Y814D02*
X2802Y814D01*
X3680Y814D02*
X3800Y814D01*
X2681Y813D02*
X2802Y813D01*
X3680Y813D02*
X3801Y813D01*
X2681Y812D02*
X2802Y812D01*
X3680Y812D02*
X3801Y812D01*
X2681Y811D02*
X2740Y811D01*
X2745Y811D02*
X2803Y811D01*
X3679Y811D02*
X3737Y811D01*
X3743Y811D02*
X3801Y811D01*
X2681Y810D02*
X2738Y810D01*
X2747Y810D02*
X2803Y810D01*
X3679Y810D02*
X3736Y810D01*
X3744Y810D02*
X3801Y810D01*
X2680Y809D02*
X2737Y809D01*
X2748Y809D02*
X2803Y809D01*
X3679Y809D02*
X3735Y809D01*
X3745Y809D02*
X3801Y809D01*
X2680Y808D02*
X2736Y808D01*
X2748Y808D02*
X2803Y808D01*
X3679Y808D02*
X3734Y808D01*
X3746Y808D02*
X3802Y808D01*
X2680Y807D02*
X2736Y807D01*
X2749Y807D02*
X2803Y807D01*
X3679Y807D02*
X3734Y807D01*
X3747Y807D02*
X3802Y807D01*
X2680Y806D02*
X2736Y806D01*
X2749Y806D02*
X2803Y806D01*
X3679Y806D02*
X3734Y806D01*
X3747Y806D02*
X3802Y806D01*
X2680Y805D02*
X2736Y805D01*
X2749Y805D02*
X2803Y805D01*
X3679Y805D02*
X3734Y805D01*
X3747Y805D02*
X3802Y805D01*
X2680Y804D02*
X2736Y804D01*
X2749Y804D02*
X2803Y804D01*
X3679Y804D02*
X3734Y804D01*
X3747Y804D02*
X3802Y804D01*
X2680Y803D02*
X2736Y803D01*
X2749Y803D02*
X2803Y803D01*
X3679Y803D02*
X3734Y803D01*
X3746Y803D02*
X3802Y803D01*
X2680Y802D02*
X2737Y802D01*
X2748Y802D02*
X2803Y802D01*
X3679Y802D02*
X3735Y802D01*
X3746Y802D02*
X3802Y802D01*
X2681Y801D02*
X2738Y801D01*
X2747Y801D02*
X2803Y801D01*
X3679Y801D02*
X3736Y801D01*
X3745Y801D02*
X3801Y801D01*
X2681Y800D02*
X2739Y800D01*
X2746Y800D02*
X2803Y800D01*
X3679Y800D02*
X3737Y800D01*
X3744Y800D02*
X3801Y800D01*
X2681Y799D02*
X2802Y799D01*
X3679Y799D02*
X3801Y799D01*
X2681Y798D02*
X2802Y798D01*
X3680Y798D02*
X3801Y798D01*
X2681Y797D02*
X2802Y797D01*
X3680Y797D02*
X3801Y797D01*
X2682Y796D02*
X2802Y796D01*
X3680Y796D02*
X3800Y796D01*
X2682Y795D02*
X2801Y795D01*
X3680Y795D02*
X3800Y795D01*
X2682Y794D02*
X2801Y794D01*
X3681Y794D02*
X3800Y794D01*
X2683Y793D02*
X2801Y793D01*
X3681Y793D02*
X3799Y793D01*
X2683Y792D02*
X2800Y792D01*
X3682Y792D02*
X3799Y792D01*
X2683Y791D02*
X2800Y791D01*
X3682Y791D02*
X3799Y791D01*
X2684Y790D02*
X2800Y790D01*
X3682Y790D02*
X3798Y790D01*
X2684Y789D02*
X2799Y789D01*
X3683Y789D02*
X3798Y789D01*
X2685Y788D02*
X2799Y788D01*
X3683Y788D02*
X3797Y788D01*
X2685Y787D02*
X2798Y787D01*
X3684Y787D02*
X3797Y787D01*
X2686Y786D02*
X2797Y786D01*
X3685Y786D02*
X3796Y786D01*
X2687Y785D02*
X2797Y785D01*
X3685Y785D02*
X3795Y785D01*
X2687Y784D02*
X2796Y784D01*
X3686Y784D02*
X3795Y784D01*
X2688Y783D02*
X2795Y783D01*
X3687Y783D02*
X3794Y783D01*
X2689Y782D02*
X2795Y782D01*
X3687Y782D02*
X3793Y782D01*
X2690Y781D02*
X2794Y781D01*
X3688Y781D02*
X3792Y781D01*
X2691Y780D02*
X2793Y780D01*
X3689Y780D02*
X3791Y780D01*
X2692Y779D02*
X2792Y779D01*
X3690Y779D02*
X3790Y779D01*
X2693Y778D02*
X2791Y778D01*
X3691Y778D02*
X3789Y778D01*
X2694Y777D02*
X2789Y777D01*
X3693Y777D02*
X3788Y777D01*
X2695Y776D02*
X2788Y776D01*
X3694Y776D02*
X3786Y776D01*
X2697Y775D02*
X2786Y775D01*
X3696Y775D02*
X3785Y775D01*
X2699Y774D02*
X2785Y774D01*
X3697Y774D02*
X3783Y774D01*
X2701Y773D02*
X2783Y773D01*
X3699Y773D02*
X3781Y773D01*
X2703Y772D02*
X2780Y772D01*
X3702Y772D02*
X3779Y772D01*
X2706Y771D02*
X2778Y771D01*
X3704Y771D02*
X3776Y771D01*
X2710Y770D02*
X2774Y770D01*
X3708Y770D02*
X3772Y770D01*
X2712Y741D02*
X2771Y741D01*
X3710Y741D02*
X3769Y741D01*
X2707Y740D02*
X2776Y740D01*
X3705Y740D02*
X3773Y740D01*
X2704Y739D02*
X2779Y739D01*
X3702Y739D02*
X3777Y739D01*
X2702Y738D02*
X2782Y738D01*
X3699Y738D02*
X3779Y738D01*
X2700Y737D02*
X2784Y737D01*
X3697Y737D02*
X3781Y737D01*
X2698Y736D02*
X2786Y736D01*
X3695Y736D02*
X3783Y736D01*
X2696Y735D02*
X2787Y735D01*
X3694Y735D02*
X3785Y735D01*
X2695Y734D02*
X2789Y734D01*
X3692Y734D02*
X3786Y734D01*
X2693Y733D02*
X2790Y733D01*
X3691Y733D02*
X3788Y733D01*
X2692Y732D02*
X2791Y732D01*
X3690Y732D02*
X3789Y732D01*
X2691Y731D02*
X2792Y731D01*
X3689Y731D02*
X3790Y731D01*
X2690Y730D02*
X2793Y730D01*
X3688Y730D02*
X3791Y730D01*
X2689Y729D02*
X2794Y729D01*
X3687Y729D02*
X3792Y729D01*
X2688Y728D02*
X2795Y728D01*
X3686Y728D02*
X3793Y728D01*
X2688Y727D02*
X2796Y727D01*
X3685Y727D02*
X3793Y727D01*
X2687Y726D02*
X2796Y726D01*
X3684Y726D02*
X3794Y726D01*
X2686Y725D02*
X2797Y725D01*
X3684Y725D02*
X3795Y725D01*
X2686Y724D02*
X2798Y724D01*
X3683Y724D02*
X3795Y724D01*
X2685Y723D02*
X2798Y723D01*
X3683Y723D02*
X3796Y723D01*
X2684Y722D02*
X2799Y722D01*
X3682Y722D02*
X3796Y722D01*
X2684Y721D02*
X2799Y721D01*
X3682Y721D02*
X3797Y721D01*
X2684Y720D02*
X2800Y720D01*
X3681Y720D02*
X3797Y720D01*
X2683Y719D02*
X2800Y719D01*
X3681Y719D02*
X3798Y719D01*
X2683Y718D02*
X2801Y718D01*
X3680Y718D02*
X3798Y718D01*
X2682Y717D02*
X2801Y717D01*
X3680Y717D02*
X3799Y717D01*
X2682Y716D02*
X2801Y716D01*
X3680Y716D02*
X3799Y716D01*
X2682Y715D02*
X2802Y715D01*
X3679Y715D02*
X3799Y715D01*
X2681Y714D02*
X2802Y714D01*
X3679Y714D02*
X3799Y714D01*
X2681Y713D02*
X2802Y713D01*
X3679Y713D02*
X3800Y713D01*
X2681Y712D02*
X2802Y712D01*
X3679Y712D02*
X3800Y712D01*
X2681Y711D02*
X2740Y711D01*
X2745Y711D02*
X2803Y711D01*
X3678Y711D02*
X3736Y711D01*
X3742Y711D02*
X3800Y711D01*
X2681Y710D02*
X2738Y710D01*
X2747Y710D02*
X2803Y710D01*
X3678Y710D02*
X3735Y710D01*
X3744Y710D02*
X3800Y710D01*
X2680Y709D02*
X2737Y709D01*
X2748Y709D02*
X2803Y709D01*
X3678Y709D02*
X3734Y709D01*
X3745Y709D02*
X3800Y709D01*
X2680Y708D02*
X2736Y708D01*
X2749Y708D02*
X2803Y708D01*
X3678Y708D02*
X3733Y708D01*
X3745Y708D02*
X3801Y708D01*
X2680Y707D02*
X2736Y707D01*
X2749Y707D02*
X2803Y707D01*
X3678Y707D02*
X3733Y707D01*
X3746Y707D02*
X3801Y707D01*
X2680Y706D02*
X2736Y706D01*
X2749Y706D02*
X2803Y706D01*
X3678Y706D02*
X3732Y706D01*
X3746Y706D02*
X3801Y706D01*
X2680Y705D02*
X2736Y705D01*
X2749Y705D02*
X2803Y705D01*
X3678Y705D02*
X3732Y705D01*
X3746Y705D02*
X3801Y705D01*
X2680Y704D02*
X2736Y704D01*
X2749Y704D02*
X2803Y704D01*
X3678Y704D02*
X3732Y704D01*
X3746Y704D02*
X3801Y704D01*
X2680Y703D02*
X2736Y703D01*
X2749Y703D02*
X2803Y703D01*
X3678Y703D02*
X3733Y703D01*
X3746Y703D02*
X3801Y703D01*
X2680Y702D02*
X2737Y702D01*
X2748Y702D02*
X2803Y702D01*
X3678Y702D02*
X3733Y702D01*
X3745Y702D02*
X3800Y702D01*
X2680Y701D02*
X2737Y701D01*
X2747Y701D02*
X2803Y701D01*
X3678Y701D02*
X3734Y701D01*
X3744Y701D02*
X3800Y701D01*
X2681Y700D02*
X2739Y700D01*
X2746Y700D02*
X2803Y700D01*
X3678Y700D02*
X3736Y700D01*
X3743Y700D02*
X3800Y700D01*
X2681Y699D02*
X2802Y699D01*
X3678Y699D02*
X3800Y699D01*
X2681Y698D02*
X2802Y698D01*
X3679Y698D02*
X3800Y698D01*
X2681Y697D02*
X2802Y697D01*
X3679Y697D02*
X3800Y697D01*
X2682Y696D02*
X2802Y696D01*
X3679Y696D02*
X3799Y696D01*
X2682Y695D02*
X2801Y695D01*
X3679Y695D02*
X3799Y695D01*
X2682Y694D02*
X2801Y694D01*
X3680Y694D02*
X3799Y694D01*
X2683Y693D02*
X2801Y693D01*
X3680Y693D02*
X3798Y693D01*
X2683Y692D02*
X2800Y692D01*
X3681Y692D02*
X3798Y692D01*
X2683Y691D02*
X2800Y691D01*
X3681Y691D02*
X3798Y691D01*
X2684Y690D02*
X2800Y690D01*
X3681Y690D02*
X3797Y690D01*
X2684Y689D02*
X2799Y689D01*
X3682Y689D02*
X3797Y689D01*
X2685Y688D02*
X2799Y688D01*
X3682Y688D02*
X3796Y688D01*
X2685Y687D02*
X2798Y687D01*
X3683Y687D02*
X3796Y687D01*
X2686Y686D02*
X2797Y686D01*
X3684Y686D02*
X3795Y686D01*
X2687Y685D02*
X2797Y685D01*
X3684Y685D02*
X3794Y685D01*
X2687Y684D02*
X2796Y684D01*
X3685Y684D02*
X3794Y684D01*
X2688Y683D02*
X2795Y683D01*
X3686Y683D02*
X3793Y683D01*
X2689Y682D02*
X2795Y682D01*
X3686Y682D02*
X3792Y682D01*
X2690Y681D02*
X2794Y681D01*
X3687Y681D02*
X3791Y681D01*
X2691Y680D02*
X2793Y680D01*
X3688Y680D02*
X3790Y680D01*
X2692Y679D02*
X2792Y679D01*
X3689Y679D02*
X3789Y679D01*
X2693Y678D02*
X2791Y678D01*
X3690Y678D02*
X3788Y678D01*
X2694Y677D02*
X2789Y677D01*
X3692Y677D02*
X3787Y677D01*
X2695Y676D02*
X2788Y676D01*
X3693Y676D02*
X3785Y676D01*
X2697Y675D02*
X2786Y675D01*
X3695Y675D02*
X3784Y675D01*
X2699Y674D02*
X2785Y674D01*
X3696Y674D02*
X3782Y674D01*
X2701Y673D02*
X2783Y673D01*
X3698Y673D02*
X3780Y673D01*
X2703Y672D02*
X2780Y672D01*
X3701Y672D02*
X3778Y672D01*
X2706Y671D02*
X2778Y671D01*
X3703Y671D02*
X3775Y671D01*
X2710Y670D02*
X2774Y670D01*
X3707Y670D02*
X3771Y670D01*
X2712Y641D02*
X2771Y641D01*
X3710Y641D02*
X3769Y641D01*
X2707Y640D02*
X2776Y640D01*
X3705Y640D02*
X3773Y640D01*
X2704Y639D02*
X2779Y639D01*
X3702Y639D02*
X3777Y639D01*
X2702Y638D02*
X2782Y638D01*
X3699Y638D02*
X3779Y638D01*
X2700Y637D02*
X2784Y637D01*
X3697Y637D02*
X3781Y637D01*
X2698Y636D02*
X2786Y636D01*
X3695Y636D02*
X3783Y636D01*
X2696Y635D02*
X2787Y635D01*
X3694Y635D02*
X3785Y635D01*
X2695Y634D02*
X2789Y634D01*
X3692Y634D02*
X3786Y634D01*
X2693Y633D02*
X2790Y633D01*
X3691Y633D02*
X3788Y633D01*
X2692Y632D02*
X2791Y632D01*
X3690Y632D02*
X3789Y632D01*
X2691Y631D02*
X2792Y631D01*
X3689Y631D02*
X3790Y631D01*
X2690Y630D02*
X2793Y630D01*
X3688Y630D02*
X3791Y630D01*
X2689Y629D02*
X2794Y629D01*
X3687Y629D02*
X3792Y629D01*
X2688Y628D02*
X2795Y628D01*
X3686Y628D02*
X3793Y628D01*
X2688Y627D02*
X2796Y627D01*
X3685Y627D02*
X3793Y627D01*
X2687Y626D02*
X2796Y626D01*
X3684Y626D02*
X3794Y626D01*
X2686Y625D02*
X2797Y625D01*
X3684Y625D02*
X3795Y625D01*
X2686Y624D02*
X2798Y624D01*
X3683Y624D02*
X3795Y624D01*
X2685Y623D02*
X2798Y623D01*
X3683Y623D02*
X3796Y623D01*
X2685Y622D02*
X2799Y622D01*
X3682Y622D02*
X3796Y622D01*
X2684Y621D02*
X2799Y621D01*
X3682Y621D02*
X3797Y621D01*
X2684Y620D02*
X2800Y620D01*
X3681Y620D02*
X3797Y620D01*
X2683Y619D02*
X2800Y619D01*
X3681Y619D02*
X3798Y619D01*
X2683Y618D02*
X2801Y618D01*
X3680Y618D02*
X3798Y618D01*
X2682Y617D02*
X2801Y617D01*
X3680Y617D02*
X3799Y617D01*
X2682Y616D02*
X2801Y616D01*
X3680Y616D02*
X3799Y616D01*
X2682Y615D02*
X2802Y615D01*
X3679Y615D02*
X3799Y615D01*
X2681Y614D02*
X2802Y614D01*
X3679Y614D02*
X3799Y614D01*
X2681Y613D02*
X2802Y613D01*
X3679Y613D02*
X3800Y613D01*
X2681Y612D02*
X2802Y612D01*
X3679Y612D02*
X3800Y612D01*
X2681Y611D02*
X2740Y611D01*
X2745Y611D02*
X2803Y611D01*
X3678Y611D02*
X3737Y611D01*
X3742Y611D02*
X3800Y611D01*
X2681Y610D02*
X2738Y610D01*
X2747Y610D02*
X2803Y610D01*
X3678Y610D02*
X3735Y610D01*
X3744Y610D02*
X3800Y610D01*
X2680Y609D02*
X2737Y609D01*
X2748Y609D02*
X2803Y609D01*
X3678Y609D02*
X3734Y609D01*
X3745Y609D02*
X3800Y609D01*
X2680Y608D02*
X2736Y608D01*
X2748Y608D02*
X2803Y608D01*
X3678Y608D02*
X3733Y608D01*
X3745Y608D02*
X3801Y608D01*
X2680Y607D02*
X2736Y607D01*
X2749Y607D02*
X2803Y607D01*
X3678Y607D02*
X3733Y607D01*
X3746Y607D02*
X3801Y607D01*
X2680Y606D02*
X2736Y606D01*
X2749Y606D02*
X2803Y606D01*
X3678Y606D02*
X3733Y606D01*
X3746Y606D02*
X3801Y606D01*
X2680Y605D02*
X2736Y605D01*
X2749Y605D02*
X2803Y605D01*
X3678Y605D02*
X3733Y605D01*
X3746Y605D02*
X3801Y605D01*
X2680Y604D02*
X2736Y604D01*
X2749Y604D02*
X2803Y604D01*
X3678Y604D02*
X3733Y604D01*
X3746Y604D02*
X3801Y604D01*
X2680Y603D02*
X2736Y603D01*
X2749Y603D02*
X2803Y603D01*
X3678Y603D02*
X3733Y603D01*
X3745Y603D02*
X3801Y603D01*
X2680Y602D02*
X2737Y602D01*
X2748Y602D02*
X2803Y602D01*
X3678Y602D02*
X3734Y602D01*
X3745Y602D02*
X3800Y602D01*
X2681Y601D02*
X2738Y601D01*
X2747Y601D02*
X2803Y601D01*
X3678Y601D02*
X3734Y601D01*
X3744Y601D02*
X3800Y601D01*
X2681Y600D02*
X2739Y600D01*
X2746Y600D02*
X2803Y600D01*
X3678Y600D02*
X3736Y600D01*
X3743Y600D02*
X3800Y600D01*
X2681Y599D02*
X2802Y599D01*
X3678Y599D02*
X3800Y599D01*
X2681Y598D02*
X2802Y598D01*
X3679Y598D02*
X3800Y598D01*
X2681Y597D02*
X2802Y597D01*
X3679Y597D02*
X3800Y597D01*
X2682Y596D02*
X2802Y596D01*
X3679Y596D02*
X3799Y596D01*
X2682Y595D02*
X2801Y595D01*
X3679Y595D02*
X3799Y595D01*
X2682Y594D02*
X2801Y594D01*
X3680Y594D02*
X3799Y594D01*
X2683Y593D02*
X2801Y593D01*
X3680Y593D02*
X3798Y593D01*
X2683Y592D02*
X2800Y592D01*
X3681Y592D02*
X3798Y592D01*
X2683Y591D02*
X2800Y591D01*
X3681Y591D02*
X3798Y591D01*
X2684Y590D02*
X2800Y590D01*
X3681Y590D02*
X3797Y590D01*
X2684Y589D02*
X2799Y589D01*
X3682Y589D02*
X3797Y589D01*
X2685Y588D02*
X2799Y588D01*
X3682Y588D02*
X3796Y588D01*
X2685Y587D02*
X2798Y587D01*
X3683Y587D02*
X3796Y587D01*
X2686Y586D02*
X2797Y586D01*
X3684Y586D02*
X3795Y586D01*
X2687Y585D02*
X2797Y585D01*
X3684Y585D02*
X3794Y585D01*
X2687Y584D02*
X2796Y584D01*
X3685Y584D02*
X3794Y584D01*
X2688Y583D02*
X2795Y583D01*
X3686Y583D02*
X3793Y583D01*
X2689Y582D02*
X2795Y582D01*
X3686Y582D02*
X3792Y582D01*
X2690Y581D02*
X2794Y581D01*
X3687Y581D02*
X3791Y581D01*
X2691Y580D02*
X2793Y580D01*
X3688Y580D02*
X3790Y580D01*
X2692Y579D02*
X2792Y579D01*
X3689Y579D02*
X3789Y579D01*
X2693Y578D02*
X2791Y578D01*
X3690Y578D02*
X3788Y578D01*
X2694Y577D02*
X2789Y577D01*
X3692Y577D02*
X3787Y577D01*
X2695Y576D02*
X2788Y576D01*
X3693Y576D02*
X3785Y576D01*
X2697Y575D02*
X2786Y575D01*
X3695Y575D02*
X3784Y575D01*
X2699Y574D02*
X2785Y574D01*
X3696Y574D02*
X3782Y574D01*
X2701Y573D02*
X2783Y573D01*
X3698Y573D02*
X3780Y573D01*
X2703Y572D02*
X2780Y572D01*
X3701Y572D02*
X3778Y572D01*
X2706Y571D02*
X2778Y571D01*
X3703Y571D02*
X3775Y571D01*
X2710Y570D02*
X2774Y570D01*
X3707Y570D02*
X3771Y570D01*
X2712Y541D02*
X2771Y541D01*
X3710Y541D02*
X3769Y541D01*
X2707Y540D02*
X2776Y540D01*
X3705Y540D02*
X3773Y540D01*
X2704Y539D02*
X2779Y539D01*
X3702Y539D02*
X3777Y539D01*
X2702Y538D02*
X2782Y538D01*
X3699Y538D02*
X3779Y538D01*
X2700Y537D02*
X2784Y537D01*
X3697Y537D02*
X3781Y537D01*
X2698Y536D02*
X2786Y536D01*
X3695Y536D02*
X3783Y536D01*
X2696Y535D02*
X2787Y535D01*
X3694Y535D02*
X3785Y535D01*
X2695Y534D02*
X2789Y534D01*
X3692Y534D02*
X3786Y534D01*
X2693Y533D02*
X2790Y533D01*
X3691Y533D02*
X3788Y533D01*
X2692Y532D02*
X2791Y532D01*
X3690Y532D02*
X3789Y532D01*
X2691Y531D02*
X2792Y531D01*
X3689Y531D02*
X3790Y531D01*
X2690Y530D02*
X2793Y530D01*
X3688Y530D02*
X3791Y530D01*
X2689Y529D02*
X2794Y529D01*
X3687Y529D02*
X3792Y529D01*
X2688Y528D02*
X2795Y528D01*
X3686Y528D02*
X3793Y528D01*
X2688Y527D02*
X2796Y527D01*
X3685Y527D02*
X3793Y527D01*
X2687Y526D02*
X2796Y526D01*
X3684Y526D02*
X3794Y526D01*
X2686Y525D02*
X2797Y525D01*
X3684Y525D02*
X3795Y525D01*
X2686Y524D02*
X2798Y524D01*
X3683Y524D02*
X3795Y524D01*
X2685Y523D02*
X2798Y523D01*
X3683Y523D02*
X3796Y523D01*
X2684Y522D02*
X2799Y522D01*
X3682Y522D02*
X3796Y522D01*
X2684Y521D02*
X2799Y521D01*
X3682Y521D02*
X3797Y521D01*
X2684Y520D02*
X2800Y520D01*
X3681Y520D02*
X3797Y520D01*
X2683Y519D02*
X2800Y519D01*
X3681Y519D02*
X3798Y519D01*
X2683Y518D02*
X2801Y518D01*
X3680Y518D02*
X3798Y518D01*
X2682Y517D02*
X2801Y517D01*
X3680Y517D02*
X3799Y517D01*
X2682Y516D02*
X2801Y516D01*
X3680Y516D02*
X3799Y516D01*
X2682Y515D02*
X2802Y515D01*
X3679Y515D02*
X3799Y515D01*
X2681Y514D02*
X2802Y514D01*
X3679Y514D02*
X3799Y514D01*
X2681Y513D02*
X2802Y513D01*
X3679Y513D02*
X3800Y513D01*
X2681Y512D02*
X2802Y512D01*
X3679Y512D02*
X3800Y512D01*
X2681Y511D02*
X2740Y511D01*
X2745Y511D02*
X2803Y511D01*
X3678Y511D02*
X3737Y511D01*
X3742Y511D02*
X3800Y511D01*
X2681Y510D02*
X2738Y510D01*
X2747Y510D02*
X2803Y510D01*
X3678Y510D02*
X3735Y510D01*
X3744Y510D02*
X3800Y510D01*
X2680Y509D02*
X2737Y509D01*
X2748Y509D02*
X2803Y509D01*
X3678Y509D02*
X3734Y509D01*
X3745Y509D02*
X3800Y509D01*
X2680Y508D02*
X2736Y508D01*
X2748Y508D02*
X2803Y508D01*
X3678Y508D02*
X3733Y508D01*
X3745Y508D02*
X3801Y508D01*
X2680Y507D02*
X2736Y507D01*
X2749Y507D02*
X2803Y507D01*
X3678Y507D02*
X3733Y507D01*
X3746Y507D02*
X3801Y507D01*
X2680Y506D02*
X2736Y506D01*
X2749Y506D02*
X2803Y506D01*
X3678Y506D02*
X3733Y506D01*
X3746Y506D02*
X3801Y506D01*
X2680Y505D02*
X2736Y505D01*
X2749Y505D02*
X2803Y505D01*
X3678Y505D02*
X3733Y505D01*
X3746Y505D02*
X3801Y505D01*
X2680Y504D02*
X2736Y504D01*
X2749Y504D02*
X2803Y504D01*
X3678Y504D02*
X3733Y504D01*
X3746Y504D02*
X3801Y504D01*
X2680Y503D02*
X2736Y503D01*
X2749Y503D02*
X2803Y503D01*
X3678Y503D02*
X3733Y503D01*
X3745Y503D02*
X3801Y503D01*
X2680Y502D02*
X2737Y502D01*
X2748Y502D02*
X2803Y502D01*
X3678Y502D02*
X3734Y502D01*
X3745Y502D02*
X3800Y502D01*
X2680Y501D02*
X2738Y501D01*
X2747Y501D02*
X2803Y501D01*
X3678Y501D02*
X3734Y501D01*
X3744Y501D02*
X3800Y501D01*
X2681Y500D02*
X2739Y500D01*
X2746Y500D02*
X2803Y500D01*
X3678Y500D02*
X3736Y500D01*
X3743Y500D02*
X3800Y500D01*
X2681Y499D02*
X2802Y499D01*
X3678Y499D02*
X3800Y499D01*
X2681Y498D02*
X2802Y498D01*
X3679Y498D02*
X3800Y498D01*
X2681Y497D02*
X2802Y497D01*
X3679Y497D02*
X3800Y497D01*
X2682Y496D02*
X2802Y496D01*
X3679Y496D02*
X3799Y496D01*
X2682Y495D02*
X2801Y495D01*
X3679Y495D02*
X3799Y495D01*
X2682Y494D02*
X2801Y494D01*
X3680Y494D02*
X3799Y494D01*
X2683Y493D02*
X2801Y493D01*
X3680Y493D02*
X3798Y493D01*
X2683Y492D02*
X2800Y492D01*
X3681Y492D02*
X3798Y492D01*
X2683Y491D02*
X2800Y491D01*
X3681Y491D02*
X3798Y491D01*
X2684Y490D02*
X2800Y490D01*
X3681Y490D02*
X3797Y490D01*
X2684Y489D02*
X2799Y489D01*
X3682Y489D02*
X3797Y489D01*
X2685Y488D02*
X2799Y488D01*
X3682Y488D02*
X3796Y488D01*
X2685Y487D02*
X2798Y487D01*
X3683Y487D02*
X3796Y487D01*
X2686Y486D02*
X2797Y486D01*
X3684Y486D02*
X3795Y486D01*
X2687Y485D02*
X2797Y485D01*
X3684Y485D02*
X3794Y485D01*
X2687Y484D02*
X2796Y484D01*
X3685Y484D02*
X3794Y484D01*
X2688Y483D02*
X2795Y483D01*
X3686Y483D02*
X3793Y483D01*
X2689Y482D02*
X2795Y482D01*
X3686Y482D02*
X3792Y482D01*
X2690Y481D02*
X2794Y481D01*
X3687Y481D02*
X3791Y481D01*
X2691Y480D02*
X2793Y480D01*
X3688Y480D02*
X3790Y480D01*
X2692Y479D02*
X2792Y479D01*
X3689Y479D02*
X3789Y479D01*
X2693Y478D02*
X2791Y478D01*
X3690Y478D02*
X3788Y478D01*
X2694Y477D02*
X2789Y477D01*
X3692Y477D02*
X3787Y477D01*
X2695Y476D02*
X2788Y476D01*
X3693Y476D02*
X3785Y476D01*
X2697Y475D02*
X2786Y475D01*
X3695Y475D02*
X3784Y475D01*
X2699Y474D02*
X2785Y474D01*
X3696Y474D02*
X3782Y474D01*
X2701Y473D02*
X2783Y473D01*
X3698Y473D02*
X3780Y473D01*
X2703Y472D02*
X2780Y472D01*
X3701Y472D02*
X3778Y472D01*
X2706Y471D02*
X2778Y471D01*
X3703Y471D02*
X3775Y471D01*
X2710Y470D02*
X2774Y470D01*
X3707Y470D02*
X3771Y470D01*
X2712Y441D02*
X2771Y441D01*
X3710Y441D02*
X3769Y441D01*
X2707Y440D02*
X2776Y440D01*
X3705Y440D02*
X3773Y440D01*
X2704Y439D02*
X2779Y439D01*
X3702Y439D02*
X3777Y439D01*
X2702Y438D02*
X2782Y438D01*
X3699Y438D02*
X3779Y438D01*
X2700Y437D02*
X2784Y437D01*
X3697Y437D02*
X3781Y437D01*
X2698Y436D02*
X2786Y436D01*
X3695Y436D02*
X3783Y436D01*
X2696Y435D02*
X2787Y435D01*
X3694Y435D02*
X3785Y435D01*
X2695Y434D02*
X2789Y434D01*
X3692Y434D02*
X3786Y434D01*
X2693Y433D02*
X2790Y433D01*
X3691Y433D02*
X3788Y433D01*
X2692Y432D02*
X2791Y432D01*
X3690Y432D02*
X3789Y432D01*
X2691Y431D02*
X2792Y431D01*
X3689Y431D02*
X3790Y431D01*
X2690Y430D02*
X2793Y430D01*
X3688Y430D02*
X3791Y430D01*
X2689Y429D02*
X2794Y429D01*
X3687Y429D02*
X3792Y429D01*
X2688Y428D02*
X2795Y428D01*
X3686Y428D02*
X3793Y428D01*
X2688Y427D02*
X2796Y427D01*
X3685Y427D02*
X3793Y427D01*
X2687Y426D02*
X2796Y426D01*
X3684Y426D02*
X3794Y426D01*
X2686Y425D02*
X2797Y425D01*
X3684Y425D02*
X3795Y425D01*
X2686Y424D02*
X2798Y424D01*
X3683Y424D02*
X3795Y424D01*
X2685Y423D02*
X2798Y423D01*
X3683Y423D02*
X3796Y423D01*
X2685Y422D02*
X2799Y422D01*
X3682Y422D02*
X3796Y422D01*
X2684Y421D02*
X2799Y421D01*
X3682Y421D02*
X3797Y421D01*
X2684Y420D02*
X2800Y420D01*
X3681Y420D02*
X3797Y420D01*
X2683Y419D02*
X2800Y419D01*
X3681Y419D02*
X3798Y419D01*
X2683Y418D02*
X2801Y418D01*
X3680Y418D02*
X3798Y418D01*
X2682Y417D02*
X2801Y417D01*
X3680Y417D02*
X3799Y417D01*
X2682Y416D02*
X2801Y416D01*
X3680Y416D02*
X3799Y416D01*
X2682Y415D02*
X2802Y415D01*
X3679Y415D02*
X3799Y415D01*
X2681Y414D02*
X2802Y414D01*
X3679Y414D02*
X3799Y414D01*
X2681Y413D02*
X2802Y413D01*
X3679Y413D02*
X3800Y413D01*
X2681Y412D02*
X2802Y412D01*
X3678Y412D02*
X3800Y412D01*
X2681Y411D02*
X2740Y411D01*
X2745Y411D02*
X2803Y411D01*
X3678Y411D02*
X3736Y411D01*
X3742Y411D02*
X3800Y411D01*
X2681Y410D02*
X2738Y410D01*
X2747Y410D02*
X2803Y410D01*
X3678Y410D02*
X3735Y410D01*
X3744Y410D02*
X3800Y410D01*
X2680Y409D02*
X2737Y409D01*
X2748Y409D02*
X2803Y409D01*
X3678Y409D02*
X3734Y409D01*
X3745Y409D02*
X3800Y409D01*
X2680Y408D02*
X2736Y408D01*
X2748Y408D02*
X2803Y408D01*
X3678Y408D02*
X3733Y408D01*
X3745Y408D02*
X3801Y408D01*
X2680Y407D02*
X2736Y407D01*
X2749Y407D02*
X2803Y407D01*
X3678Y407D02*
X3733Y407D01*
X3746Y407D02*
X3801Y407D01*
X2680Y406D02*
X2736Y406D01*
X2749Y406D02*
X2803Y406D01*
X3678Y406D02*
X3733Y406D01*
X3746Y406D02*
X3801Y406D01*
X2680Y405D02*
X2736Y405D01*
X2749Y405D02*
X2803Y405D01*
X3678Y405D02*
X3733Y405D01*
X3746Y405D02*
X3801Y405D01*
X2680Y404D02*
X2736Y404D01*
X2749Y404D02*
X2803Y404D01*
X3678Y404D02*
X3733Y404D01*
X3746Y404D02*
X3801Y404D01*
X2680Y403D02*
X2736Y403D01*
X2749Y403D02*
X2803Y403D01*
X3678Y403D02*
X3733Y403D01*
X3745Y403D02*
X3801Y403D01*
X2680Y402D02*
X2737Y402D01*
X2748Y402D02*
X2803Y402D01*
X3678Y402D02*
X3734Y402D01*
X3745Y402D02*
X3800Y402D01*
X2681Y401D02*
X2738Y401D01*
X2747Y401D02*
X2803Y401D01*
X3678Y401D02*
X3734Y401D01*
X3744Y401D02*
X3800Y401D01*
X2681Y400D02*
X2739Y400D01*
X2746Y400D02*
X2803Y400D01*
X3678Y400D02*
X3736Y400D01*
X3743Y400D02*
X3800Y400D01*
X2681Y399D02*
X2802Y399D01*
X3678Y399D02*
X3800Y399D01*
X2681Y398D02*
X2802Y398D01*
X3679Y398D02*
X3800Y398D01*
X2681Y397D02*
X2802Y397D01*
X3679Y397D02*
X3800Y397D01*
X2682Y396D02*
X2802Y396D01*
X3679Y396D02*
X3799Y396D01*
X2682Y395D02*
X2801Y395D01*
X3679Y395D02*
X3799Y395D01*
X2682Y394D02*
X2801Y394D01*
X3680Y394D02*
X3799Y394D01*
X2683Y393D02*
X2801Y393D01*
X3680Y393D02*
X3798Y393D01*
X2683Y392D02*
X2800Y392D01*
X3681Y392D02*
X3798Y392D01*
X2683Y391D02*
X2800Y391D01*
X3681Y391D02*
X3798Y391D01*
X2684Y390D02*
X2800Y390D01*
X3681Y390D02*
X3797Y390D01*
X2684Y389D02*
X2799Y389D01*
X3682Y389D02*
X3797Y389D01*
X2685Y388D02*
X2799Y388D01*
X3682Y388D02*
X3796Y388D01*
X2685Y387D02*
X2798Y387D01*
X3683Y387D02*
X3796Y387D01*
X2686Y386D02*
X2797Y386D01*
X3684Y386D02*
X3795Y386D01*
X2687Y385D02*
X2797Y385D01*
X3684Y385D02*
X3794Y385D01*
X2687Y384D02*
X2796Y384D01*
X3685Y384D02*
X3794Y384D01*
X2688Y383D02*
X2795Y383D01*
X3686Y383D02*
X3793Y383D01*
X2689Y382D02*
X2795Y382D01*
X3686Y382D02*
X3792Y382D01*
X2690Y381D02*
X2794Y381D01*
X3687Y381D02*
X3791Y381D01*
X2691Y380D02*
X2793Y380D01*
X3688Y380D02*
X3790Y380D01*
X2692Y379D02*
X2792Y379D01*
X3689Y379D02*
X3789Y379D01*
X2693Y378D02*
X2791Y378D01*
X3690Y378D02*
X3788Y378D01*
X2694Y377D02*
X2789Y377D01*
X3692Y377D02*
X3787Y377D01*
X2695Y376D02*
X2788Y376D01*
X3693Y376D02*
X3785Y376D01*
X2697Y375D02*
X2786Y375D01*
X3695Y375D02*
X3784Y375D01*
X2699Y374D02*
X2785Y374D01*
X3696Y374D02*
X3782Y374D01*
X2701Y373D02*
X2783Y373D01*
X3698Y373D02*
X3780Y373D01*
X2703Y372D02*
X2780Y372D01*
X3701Y372D02*
X3778Y372D01*
X2706Y371D02*
X2778Y371D01*
X3703Y371D02*
X3775Y371D01*
X2710Y370D02*
X2774Y370D01*
X3707Y370D02*
X3771Y370D01*
D02*
G04 End of Mask0*
M02*